{
.appVersion = "919";
classes = (
{
code = "gravecomb acutecomb uni0302 tildecomb uni0304 uni0306 uni0307 uni0308 uni030A uni030B uni030C uni030F uni0311 dotbelowcomb uni0324 uni0325 uni032D uni032E uni0330 uni0331";
name = case1;
},
{
code = "uni0300.cap uni0301.cap uni0302.cap uni0303.cap uni0304.cap uni0306.cap uni0307.cap uni0308.cap uni030A.cap uni030B.cap uni030C.cap uni030F.cap uni0311.cap uni0323.cap uni0324.cap uni0325.cap uni032D.cap uni032E.cap uni0330.cap uni0331.cap";
name = case2;
},
{
code = "gravecomb acutecomb uni0302 tildecomb uni0304 uni0305 uni0306 uni0307 uni0308 uni030A uni030B uni030C uni030F uni0311 uni0316 uni0317 dotbelowcomb uni0324 uni0325 uni0327 uni0328 uni032C uni032D uni032E uni032F uni0330 uni0331 uni0332 dotaccent.cap breve.cap ring.cap tilde.cap circumflex.cap acute.cap caron.cap dieresis.cap grave.cap hungarumlaut.cap macron.cap uni0300.cap uni0301.cap uni0302.cap uni0303.cap uni0304.cap uni0306.cap uni0307.cap uni0308.cap uni030A.cap uni030B.cap uni030C.cap uni030F.cap uni0311.cap uni0323.cap uni0324.cap uni0325.cap uni032D.cap uni032E.cap uni0330.cap uni0331.cap";
name = class0;
},
{

glyphs = (
{
glyphname = exclam;
lastChange = "2016-09-03 11:06:02 +0000";
layers = (
{
layerId = UUID0;
paths = (
{
closed = 1;
nodes = (
"102 212 LINE",
"99 198 OFFCURVE",
"104 190 OFFCURVE",
"119 190 CURVE SMOOTH",
"154 190 LINE SMOOTH",
"168 190 OFFCURVE",
"178 198 OFFCURVE",
"181 212 CURVE SMOOTH",
"298 673 LINE SMOOTH",
"302 691 OFFCURVE",
"296 700 OFFCURVE",
"280 700 CURVE SMOOTH",
"229 700 LINE SMOOTH",
"212 700 OFFCURVE",
"202 691 OFFCURVE",
"198 673 CURVE"
);
},
{
closed = 1;
nodes = (
"120 0 LINE",
"135 0 OFFCURVE",
"144 7 OFFCURVE",
"147 22 CURVE SMOOTH",
"161 82 LINE SMOOTH",
"165 96 OFFCURVE",
"159 104 OFFCURVE",
"144 104 CURVE SMOOTH",
"89 104 LINE SMOOTH",
"75 104 OFFCURVE",
"66 96 OFFCURVE",
"63 82 CURVE SMOOTH",
"48 22 LINE SMOOTH",
"45 7 OFFCURVE",
"51 0 OFFCURVE",
"65 0 CURVE SMOOTH"
);
}
);
width = 293;
},
{
layerId = "60861F18-288B-4955-898F-0966625DD71B";
paths = (
{
closed = 1;
nodes = (
"99 237 LINE",
"95 216 OFFCURVE",
"103 205 OFFCURVE",
"124 205 CURVE SMOOTH",
"180 205 LINE SMOOTH",
"201 205 OFFCURVE",
"214 216 OFFCURVE",
"219 237 CURVE SMOOTH",
"331 664 LINE SMOOTH",
"337 688 OFFCURVE",
"329 700 OFFCURVE",
"305 700 CURVE SMOOTH",
"227 700 LINE SMOOTH",
"204 700 OFFCURVE",
"189 688 OFFCURVE",
"185 664 CURVE SMOOTH"
);
},
{
closed = 1;
nodes = (
"142 0 LINE",
"165 0 OFFCURVE",
"179 12 OFFCURVE",
"184 37 CURVE SMOOTH",
"199 102 LINE SMOOTH",
"205 126 OFFCURVE",
"197 139 OFFCURVE",
"174 139 CURVE SMOOTH",
"100 139 LINE SMOOTH",
"77 139 OFFCURVE",
"62 126 OFFCURVE",
"57 102 CURVE SMOOTH",
"42 37 LINE SMOOTH",
"36 12 OFFCURVE",
"44 0 OFFCURVE",
"67 0 CURVE SMOOTH"
);
}
);
width = 326;
}
);
unicode = 0021;
},
{
glyphname = numbersign;
lastChange = "2016-09-03 11:06:02 +0000";
layers = (
{
layerId = UUID0;
paths = (
{
closed = 1;
nodes = (
"188 183 LINE",
"160 22 LINE SMOOTH",
"158 7 OFFCURVE",
"162 0 OFFCURVE",
"173 0 CURVE SMOOTH",
"204 0 LINE SMOOTH",
"215 0 OFFCURVE",
"222 7 OFFCURVE",
"225 22 CURVE SMOOTH",
"253 183 LINE",
"417 183 LINE",
"389 22 LINE SMOOTH",
"386 7 OFFCURVE",
"391 0 OFFCURVE",
"402 0 CURVE SMOOTH",
"432 0 LINE SMOOTH",
"443 0 OFFCURVE",
"451 7 OFFCURVE",
"453 22 CURVE SMOOTH",
"481 183 LINE",
"586 183 LINE SMOOTH",
"601 183 OFFCURVE",
"609 189 OFFCURVE",
"611 200 CURVE SMOOTH",
"616 225 LINE SMOOTH",
"618 236 OFFCURVE",
"611 242 OFFCURVE",
"597 242 CURVE SMOOTH",
"492 242 LINE",
"529 453 LINE",
"634 453 LINE SMOOTH",
"649 453 OFFCURVE",
"657 458 OFFCURVE",
"659 470 CURVE SMOOTH",
"663 494 LINE SMOOTH",
"665 505 OFFCURVE",
"659 511 OFFCURVE",
"645 511 CURVE SMOOTH",
"540 511 LINE",
"568 672 LINE SMOOTH",
"570 687 OFFCURVE",
"566 694 OFFCURVE",
"555 694 CURVE SMOOTH",
"524 694 LINE SMOOTH",
"513 694 OFFCURVE",
"506 687 OFFCURVE",
"503 672 CURVE SMOOTH",
"475 511 LINE",
"311 511 LINE",
"339 672 LINE SMOOTH",
"342 687 OFFCURVE",
"337 694 OFFCURVE",
"326 694 CURVE SMOOTH",
"296 694 LINE SMOOTH",
"285 694 OFFCURVE",
"277 687 OFFCURVE",
"275 672 CURVE SMOOTH",
"247 511 LINE",
"142 511 LINE SMOOTH",
"126 511 OFFCURVE",
"118 505 OFFCURVE",
"116 494 CURVE SMOOTH",
"112 470 LINE SMOOTH",
"110 458 OFFCURVE",
"117 453 OFFCURVE",
"131 453 CURVE SMOOTH",
"236 453 LINE",
"199 242 LINE",
"94 242 LINE SMOOTH",
"79 242 OFFCURVE",
"71 236 OFFCURVE",
"69 225 CURVE SMOOTH",
"64 200 LINE SMOOTH",
"63 189 OFFCURVE",
"69 183 OFFCURVE",
"83 183 CURVE SMOOTH"
);
},
{
closed = 1;
nodes = (
"300 453 LINE",
"464 453 LINE",
"427 242 LINE",
"263 242 LINE"
);
}
);
width = 679;
},
{
layerId = "60861F18-288B-4955-898F-0966625DD71B";
paths = (
{
closed = 1;
nodes = (
"172 168 LINE",
"148 29 LINE SMOOTH",
"145 10 OFFCURVE",
"151 0 OFFCURVE",
"167 0 CURVE SMOOTH",
"209 0 LINE SMOOTH",
"225 0 OFFCURVE",
"235 10 OFFCURVE",
"239 29 CURVE SMOOTH",
"263 168 LINE",
"409 168 LINE",
"384 29 LINE SMOOTH",
"381 10 OFFCURVE",
"387 0 OFFCURVE",
"403 0 CURVE SMOOTH",
"445 0 LINE SMOOTH",
"461 0 OFFCURVE",
"472 10 OFFCURVE",
"475 29 CURVE SMOOTH",
"500 168 LINE",
"587 168 LINE SMOOTH",
"606 168 OFFCURVE",
"618 176 OFFCURVE",
"621 192 CURVE SMOOTH",
"628 231 LINE",
"630 248 OFFCURVE",
"622 256 OFFCURVE",
"603 256 CURVE SMOOTH",
"515 256 LINE",
"547 438 LINE",
"635 438 LINE SMOOTH",
"654 438 OFFCURVE",
"666 447 OFFCURVE",
"668 463 CURVE SMOOTH",
"675 502 LINE SMOOTH",
"678 518 OFFCURVE",
"669 526 OFFCURVE",
"650 526 CURVE SMOOTH",
"563 526 LINE",
"587 665 LINE SMOOTH",
"590 685 OFFCURVE",
"584 694 OFFCURVE",
"568 694 CURVE SMOOTH",
"526 694 LINE SMOOTH",
"510 694 OFFCURVE",
"500 685 OFFCURVE",
"496 665 CURVE SMOOTH",
"472 526 LINE",
"326 526 LINE",
"351 665 LINE SMOOTH",
"354 685 OFFCURVE",
"348 694 OFFCURVE",
"332 694 CURVE SMOOTH",
"290 694 LINE SMOOTH",
"273 694 OFFCURVE",
"263 685 OFFCURVE",
"260 665 CURVE SMOOTH",
"235 526 LINE",
"147 526 LINE SMOOTH",
"128 526 OFFCURVE",
"117 518 OFFCURVE",
"114 502 CURVE SMOOTH",
"107 463 LINE SMOOTH",
"104 447 OFFCURVE",
"113 438 OFFCURVE",
"132 438 CURVE SMOOTH",
"220 438 LINE",
"188 256 LINE",
"100 256 LINE SMOOTH",
"81 256 OFFCURVE",
"69 248 OFFCURVE",
"66 231 CURVE SMOOTH",
"59 192 LINE",
"57 176 OFFCURVE",
"65 168 OFFCURVE",
"84 168 CURVE SMOOTH"
);
},
{
closed = 1;
nodes = (
"311 438 LINE",
"456 438 LINE",
"424 256 LINE",
"279 256 LINE"
);
}
);
width = 691;
}
);
unicode = 0023;
},
{
glyphname = dollar;
lastChange = "2016-09-03 11:06:02 +0000";
layers = (
{
layerId = UUID0;
paths = (
{
closed = 1;
nodes = (
"81 10 OFFCURVE",
"130 -9 OFFCURVE",
"201 -14 CURVE",
"185 -81 LINE SMOOTH",
"182 -95 OFFCURVE",
"186 -103 OFFCURVE",
"197 -103 CURVE SMOOTH",
"222 -103 LINE SMOOTH",
"233 -103 OFFCURVE",
"240 -95 OFFCURVE",
"244 -81 CURVE SMOOTH",
"259 -14 LINE",
"290 -13 OFFCURVE",
"321 -7 OFFCURVE",
"352 3 CURVE SMOOTH",
"382 14 OFFCURVE",
"414 35 OFFCURVE",
"445 69 CURVE SMOOTH",
"477 103 OFFCURVE",
"493 142 OFFCURVE",
"493 188 CURVE SMOOTH",
"493 247 OFFCURVE",
"475 285 OFFCURVE",
"453 310 CURVE SMOOTH",
"442 322 OFFCURVE",
"429 334 OFFCURVE",
"412 347 CURVE SMOOTH",
"392 361 OFFCURVE",
"371 373 OFFCURVE",
"351 383 CURVE",
"408 629 LINE",
"416 627 OFFCURVE",
"428 624 OFFCURVE",
"445 617 CURVE SMOOTH",
"462 611 OFFCURVE",
"478 602 OFFCURVE",
"491 590 CURVE SMOOTH",
"503 578 OFFCURVE",
"514 578 OFFCURVE",
"522 588 CURVE SMOOTH",
"545 617 LINE SMOOTH",
"555 628 OFFCURVE",
"552 641 OFFCURVE",
"537 656 CURVE SMOOTH",
"524 668 OFFCURVE",
"507 679 OFFCURVE",
"485 688 CURVE SMOOTH",
"463 698 OFFCURVE",
"443 704 OFFCURVE",
"425 706 CURVE",
"439 767 LINE SMOOTH",
"443 782 OFFCURVE",
"438 789 OFFCURVE",
"427 789 CURVE SMOOTH",
"403 789 LINE SMOOTH",
"392 789 OFFCURVE",
"384 782 OFFCURVE",
"381 767 CURVE SMOOTH",
"367 708 LINE",
"338 707 OFFCURVE",
"310 703 OFFCURVE",
"282 696 CURVE SMOOTH",
"254 689 OFFCURVE",
"224 671 OFFCURVE",
"191 643 CURVE SMOOTH",
"160 615 OFFCURVE",
"144 574 OFFCURVE",
"144 522 CURVE SMOOTH",
"144 486 OFFCURVE",
"148 458 OFFCURVE",
"157 438 CURVE SMOOTH",
"167 417 OFFCURVE",
"178 400 OFFCURVE",
"190 386 CURVE SMOOTH",
"203 372 OFFCURVE",
"218 360 OFFCURVE",
"236 349 CURVE SMOOTH",
"251 339 OFFCURVE",
"265 331 OFFCURVE",
"278 324 CURVE",
"217 60 LINE",
"197 61 OFFCURVE",
"177 64 OFFCURVE",
"158 69 CURVE SMOOTH",
"139 74 OFFCURVE",
"118 87 OFFCURVE",
"95 108 CURVE SMOOTH",
"78 125 OFFCURVE",
"63 127 OFFCURVE",
"53 115 CURVE SMOOTH",
"32 90 LINE SMOOTH",
"21 79 OFFCURVE",
"25 64 OFFCURVE",
"42 48 CURVE SMOOTH"
);
},
{
closed = 1;
nodes = (
"234 560 OFFCURVE",
"246 585 OFFCURVE",
"270 604 CURVE SMOOTH",
"293 623 OFFCURVE",
"320 633 OFFCURVE",
"351 635 CURVE",
"298 410 LINE",
"276 426 LINE",
"257 440 OFFCURVE",
"246 457 OFFCURVE",
"241 474 CURVE SMOOTH",
"237 492 OFFCURVE",
"234 510 OFFCURVE",
"234 529 CURVE SMOOTH"
);
},
{
closed = 1;
nodes = (
"331 296 LINE",
"337 292 OFFCURVE",
"344 289 OFFCURVE",
"350 284 CURVE SMOOTH",
"373 270 OFFCURVE",
"386 254 OFFCURVE",
"391 237 CURVE SMOOTH",
"395 220 OFFCURVE",
"397 203 OFFCURVE",
"397 187 CURVE SMOOTH",
"397 151 OFFCURVE",
"383 123 OFFCURVE",
"355 101 CURVE SMOOTH",
"327 79 OFFCURVE",
"301 65 OFFCURVE",
"276 61 CURVE"
);
}
);
width = 542;
},
{
layerId = "60861F18-288B-4955-898F-0966625DD71B";
paths = (
{
closed = 1;
nodes = (
"49 30 OFFCURVE",
"76 16 OFFCURVE",
"109 6 CURVE SMOOTH",
"143 -4 OFFCURVE",
"172 -10 OFFCURVE",
"197 -13 CURVE",
"183 -73 LINE SMOOTH",
"179 -93 OFFCURVE",
"185 -103 OFFCURVE",
"201 -103 CURVE SMOOTH",
"240 -103 LINE SMOOTH",
"256 -103 OFFCURVE",
"267 -93 OFFCURVE",
"271 -73 CURVE SMOOTH",
"284 -16 LINE",
"316 -16 OFFCURVE",
"351 -9 OFFCURVE",
"388 4 CURVE SMOOTH",
"425 18 OFFCURVE",
"457 42 OFFCURVE",
"483 79 CURVE SMOOTH",
"510 115 OFFCURVE",
"524 155 OFFCURVE",
"524 198 CURVE SMOOTH",
"524 219 OFFCURVE",
"520 242 OFFCURVE",
"513 267 CURVE SMOOTH",
"505 292 OFFCURVE",
"493 314 OFFCURVE",
"475 333 CURVE SMOOTH",
"457 351 OFFCURVE",
"435 366 OFFCURVE",
"411 377 CURVE SMOOTH",
"400 382 OFFCURVE",
"389 387 OFFCURVE",
"378 394 CURVE",
"426 598 LINE",
"452 591 OFFCURVE",
"476 574 OFFCURVE",
"489 558 CURVE SMOOTH",
"502 542 OFFCURVE",
"516 543 OFFCURVE",
"531 562 CURVE SMOOTH",
"573 614 LINE SMOOTH",
"583 626 OFFCURVE",
"579 641 OFFCURVE",
"560 658 CURVE SMOOTH",
"545 670 OFFCURVE",
"531 681 OFFCURVE",
"516 689 CURVE SMOOTH",
"500 697 OFFCURVE",
"479 704 OFFCURVE",
"451 708 CURVE",
"463 760 LINE SMOOTH",
"468 779 OFFCURVE",
"462 789 OFFCURVE",
"446 789 CURVE SMOOTH",
"407 789 LINE SMOOTH",
"391 789 OFFCURVE",
"380 779 OFFCURVE",
"375 760 CURVE SMOOTH",
"364 710 LINE",
"333 710 OFFCURVE",
"297 704 OFFCURVE",
"257 689 CURVE SMOOTH",
"216 676 OFFCURVE",
"185 651 OFFCURVE",
"163 614 CURVE SMOOTH",
"140 578 OFFCURVE",
"129 542 OFFCURVE",
"129 506 CURVE SMOOTH",
"129 471 OFFCURVE",
"133 443 OFFCURVE",
"141 424 CURVE SMOOTH",
"148 405 OFFCURVE",
"160 387 OFFCURVE",
"174 370 CURVE SMOOTH",
"188 353 OFFCURVE",
"207 336 OFFCURVE",
"229 322 CURVE SMOOTH",
"237 318 OFFCURVE",
"250 311 OFFCURVE",
"270 302 CURVE",
"221 92 LINE",
"207 94 OFFCURVE",
"188 99 OFFCURVE",
"163 107 CURVE SMOOTH",
"139 115 OFFCURVE",
"118 126 OFFCURVE",
"101 141 CURVE SMOOTH",
"78 160 OFFCURVE",
"61 161 OFFCURVE",
"50 146 CURVE SMOOTH",
"16 98 LINE SMOOTH",
"5 83 OFFCURVE",
"9 67 OFFCURVE",
"28 50 CURVE SMOOTH"
);
},
{
closed = 1;
nodes = (
"254 528 OFFCURVE",
"261 548 OFFCURVE",
"276 568 CURVE SMOOTH",
"292 588 OFFCURVE",
"312 599 OFFCURVE",
"339 602 CURVE",
"300 431 LINE",
"296 433 OFFCURVE",
"292 436 OFFCURVE",
"287 440 CURVE SMOOTH",
"271 452 OFFCURVE",
"262 464 OFFCURVE",
"259 475 CURVE SMOOTH",
"255 487 OFFCURVE",
"254 498 OFFCURVE",
"254 507 CURVE SMOOTH"
);
},
{
closed = 1;
nodes = (
"350 269 LINE",
"356 265 OFFCURVE",
"361 263 OFFCURVE",
"364 261 CURVE SMOOTH",
"390 245 OFFCURVE",
"397 219 OFFCURVE",
"397 196 CURVE SMOOTH",
"397 169 OFFCURVE",
"387 146 OFFCURVE",
"368 129 CURVE SMOOTH",
"349 111 OFFCURVE",
"330 100 OFFCURVE",
"310 96 CURVE"
);
}
);
width = 586;
}
);
unicode = 0024;
},
{
glyphname = ampersand;
lastChange = "2016-09-03 11:06:02 +0000";
layers = (
{
layerId = UUID0;
paths = (
{
closed = 1;
nodes = (
"35 87 OFFCURVE",
"51 48 OFFCURVE",
"85 23 CURVE SMOOTH",
"119 -2 OFFCURVE",
"163 -15 OFFCURVE",
"219 -15 CURVE SMOOTH",
"269 -15 OFFCURVE",
"308 -5 OFFCURVE",
"336 13 CURVE SMOOTH",
"364 31 OFFCURVE",
"397 55 OFFCURVE",
"434 84 CURVE",
"473 21 LINE SMOOTH",
"481 7 OFFCURVE",
"495 0 OFFCURVE",
"514 0 CURVE SMOOTH",
"554 0 LINE SMOOTH",
"575 0 OFFCURVE",
"580 9 OFFCURVE",
"569 28 CURVE SMOOTH",
"503 137 LINE",
"521 151 OFFCURVE",
"543 174 OFFCURVE",
"570 205 CURVE SMOOTH",
"597 235 OFFCURVE",
"617 265 OFFCURVE",
"629 293 CURVE SMOOTH",
"635 306 OFFCURVE",
"631 315 OFFCURVE",
"618 321 CURVE SMOOTH",
"585 336 LINE SMOOTH",
"574 341 OFFCURVE",
"565 336 OFFCURVE",
"559 322 CURVE SMOOTH",
"552 307 OFFCURVE",
"539 286 OFFCURVE",
"519 259 CURVE SMOOTH",
"500 232 OFFCURVE",
"482 212 OFFCURVE",
"466 198 CURVE",
"351 387 LINE",
"398 416 OFFCURVE",
"438 447 OFFCURVE",
"471 480 CURVE SMOOTH",
"504 513 OFFCURVE",
"521 545 OFFCURVE",
"521 576 CURVE SMOOTH",
"521 627 OFFCURVE",
"505 663 OFFCURVE",
"474 684 CURVE SMOOTH",
"443 705 OFFCURVE",
"410 715 OFFCURVE",
"375 715 CURVE SMOOTH",
"313 715 OFFCURVE",
"267 700 OFFCURVE",
"238 669 CURVE SMOOTH",
"210 639 OFFCURVE",
"196 604 OFFCURVE",
"196 565 CURVE SMOOTH",
"196 528 OFFCURVE",
"202 496 OFFCURVE",
"213 467 CURVE SMOOTH",
"225 438 OFFCURVE",
"234 416 OFFCURVE",
"243 399 CURVE",
"164 349 OFFCURVE",
"109 302 OFFCURVE",
"79 258 CURVE SMOOTH",
"49 214 OFFCURVE",
"35 175 OFFCURVE",
"35 142 CURVE SMOOTH"
);
},
{
closed = 1;
nodes = (
"130 179 OFFCURVE",
"142 211 OFFCURVE",
"167 245 CURVE SMOOTH",
"192 279 OFFCURVE",
"229 311 OFFCURVE",
"279 341 CURVE",
"398 143 LINE",
"372 120 OFFCURVE",
"345 99 OFFCURVE",
"319 82 CURVE SMOOTH",
"293 65 OFFCURVE",
"266 56 OFFCURVE",
"236 56 CURVE SMOOTH",
"196 56 OFFCURVE",
"168 64 OFFCURVE",
"153 81 CURVE SMOOTH",
"138 97 OFFCURVE",
"130 120 OFFCURVE",
"130 150 CURVE SMOOTH"
);
},
{
closed = 1;
nodes = (
"284 588 OFFCURVE",
"292 611 OFFCURVE",
"307 625 CURVE SMOOTH",
"323 640 OFFCURVE",
"341 647 OFFCURVE",
"363 647 CURVE SMOOTH",
"411 647 OFFCURVE",
"433 620 OFFCURVE",
"433 583 CURVE SMOOTH",
"433 563 OFFCURVE",
"424 542 OFFCURVE",
"406 521 CURVE SMOOTH",
"388 499 OFFCURVE",
"357 474 OFFCURVE",
"314 445 CURVE",
"307 459 OFFCURVE",
"299 474 OFFCURVE",
"293 490 CURVE SMOOTH",
"287 506 OFFCURVE",
"284 528 OFFCURVE",
"284 558 CURVE SMOOTH"
);
}
);
width = 661;
},
{
layerId = "60861F18-288B-4955-898F-0966625DD71B";
paths = (
{
closed = 1;
nodes = (
"34 94 OFFCURVE",
"48 58 OFFCURVE",
"76 28 CURVE SMOOTH",
"105 -2 OFFCURVE",
"152 -17 OFFCURVE",
"219 -17 CURVE SMOOTH",
"256 -17 OFFCURVE",
"294 -10 OFFCURVE",
"333 2 CURVE SMOOTH",
"372 14 OFFCURVE",
"405 32 OFFCURVE",
"432 56 CURVE",
"446 29 LINE SMOOTH",
"457 10 OFFCURVE",
"474 0 OFFCURVE",
"497 0 CURVE SMOOTH",
"572 0 LINE SMOOTH",
"599 0 OFFCURVE",
"606 11 OFFCURVE",
"595 32 CURVE SMOOTH",
"544 129 LINE",
"573 150 OFFCURVE",
"596 171 OFFCURVE",
"612 191 CURVE SMOOTH",
"628 212 OFFCURVE",
"643 236 OFFCURVE",
"656 263 CURVE SMOOTH",
"667 283 OFFCURVE",
"668 295 OFFCURVE",
"662 299 CURVE SMOOTH",
"614 330 LINE SMOOTH",
"597 341 OFFCURVE",
"582 336 OFFCURVE",
"568 315 CURVE SMOOTH",
"556 295 OFFCURVE",
"544 279 OFFCURVE",
"534 266 CURVE SMOOTH",
"523 252 OFFCURVE",
"509 239 OFFCURVE",
"493 224 CURVE",
"414 375 LINE",
"464 405 OFFCURVE",
"503 436 OFFCURVE",
"532 469 CURVE SMOOTH",
"561 501 OFFCURVE",
"575 538 OFFCURVE",
"575 579 CURVE SMOOTH",
"575 616 OFFCURVE",
"560 648 OFFCURVE",
"530 676 CURVE SMOOTH",
"500 703 OFFCURVE",
"459 717 OFFCURVE",
"407 717 CURVE SMOOTH",
"342 717 OFFCURVE",
"292 701 OFFCURVE",
"254 669 CURVE SMOOTH",
"217 637 OFFCURVE",
"199 599 OFFCURVE",
"199 554 CURVE SMOOTH",
"199 521 OFFCURVE",
"203 495 OFFCURVE",
"210 474 CURVE SMOOTH",
"218 454 OFFCURVE",
"231 431 OFFCURVE",
"248 405 CURVE",
"174 363 OFFCURVE",
"120 322 OFFCURVE",
"85 282 CURVE SMOOTH",
"51 241 OFFCURVE",
"34 192 OFFCURVE",
"34 136 CURVE SMOOTH"
);
},
{
closed = 1;
nodes = (
"180 183 OFFCURVE",
"191 209 OFFCURVE",
"212 232 CURVE SMOOTH",
"233 255 OFFCURVE",
"263 279 OFFCURVE",
"300 305 CURVE",
"383 148 LINE",
"360 130 OFFCURVE",
"338 116 OFFCURVE",
"317 105 CURVE SMOOTH",
"297 95 OFFCURVE",
"273 90 OFFCURVE",
"247 90 CURVE SMOOTH",
"201 90 OFFCURVE",
"180 114 OFFCURVE",
"180 153 CURVE SMOOTH"
);
},
{
closed = 1;
nodes = (
"331 563 OFFCURVE",
"336 574 OFFCURVE",
"347 586 CURVE SMOOTH",
"358 599 OFFCURVE",
"373 604 OFFCURVE",
"391 604 CURVE SMOOTH",
"430 604 OFFCURVE",
"443 584 OFFCURVE",
"443 559 CURVE SMOOTH",
"443 542 OFFCURVE",
"438 526 OFFCURVE",
"426 513 CURVE SMOOTH",
"414 500 OFFCURVE",
"392 484 OFFCURVE",
"360 466 CURVE",
"347 484 OFFCURVE",
"338 500 OFFCURVE",
"335 512 CURVE SMOOTH",
"332 524 OFFCURVE",
"331 538 OFFCURVE",
"331 553 CURVE SMOOTH"
);
}
);
width = 691;
}
);
unicode = 0026;
},
{
glyphname = quotesingle;
lastChange = "2016-09-03 11:06:02 +0000";
layers = (
{
layerId = UUID0;
paths = (
{
closed = 1;
nodes = (
"128 424 LINE SMOOTH",
"125 410 OFFCURVE",
"129 402 OFFCURVE",
"140 402 CURVE SMOOTH",
"171 402 LINE SMOOTH",
"182 402 OFFCURVE",
"189 410 OFFCURVE",
"193 424 CURVE",
"265 690 LINE SMOOTH",
"270 708 OFFCURVE",
"266 717 OFFCURVE",
"253 717 CURVE SMOOTH",
"203 717 LINE SMOOTH",
"190 717 OFFCURVE",
"182 708 OFFCURVE",
"179 690 CURVE SMOOTH"
);
}
);
width = 233;
},
{
layerId = "60861F18-288B-4955-898F-0966625DD71B";
paths = (
{
closed = 1;
nodes = (
"122 432 LINE SMOOTH",
"119 412 OFFCURVE",
"125 402 OFFCURVE",
"140 402 CURVE SMOOTH",
"202 402 LINE SMOOTH",
"217 402 OFFCURVE",
"228 412 OFFCURVE",
"233 432 CURVE SMOOTH",
"304 686 LINE SMOOTH",
"310 707 OFFCURVE",
"304 717 OFFCURVE",
"286 717 CURVE SMOOTH",
"201 717 LINE SMOOTH",
"184 717 OFFCURVE",
"173 707 OFFCURVE",
"169 686 CURVE SMOOTH"
);
}
);
width = 273;
}
);
unicode = 0027;
},
{
glyphname = parenleft;
lastChange = "2016-09-03 11:06:02 +0000";
layers = (
{
layerId = UUID0;
paths = (
{
closed = 1;
nodes = (
"44 99 OFFCURVE",
"52 37 OFFCURVE",
"68 -33 CURVE SMOOTH",
"84 -103 OFFCURVE",
"107 -157 OFFCURVE",
"138 -195 CURVE SMOOTH",
"150 -210 OFFCURVE",
"161 -214 OFFCURVE",
"170 -208 CURVE SMOOTH",
"188 -196 LINE SMOOTH",
"197 -190 OFFCURVE",
"198 -181 OFFCURVE",
"190 -167 CURVE SMOOTH",
"163 -118 OFFCURVE",
"140 -17 OFFCURVE",
"140 140 CURVE SMOOTH",
"140 264 OFFCURVE",
"172 379 OFFCURVE",
"237 484 CURVE SMOOTH",
"303 589 OFFCURVE",
"355 659 OFFCURVE",
"395 695 CURVE SMOOTH",
"406 705 OFFCURVE",
"408 715 OFFCURVE",
"398 723 CURVE SMOOTH",
"383 738 LINE SMOOTH",
"374 746 OFFCURVE",
"363 744 OFFCURVE",
"349 731 CURVE SMOOTH",
"244 636 OFFCURVE",
"167 540 OFFCURVE",
"118 441 CURVE SMOOTH",
"68 343 OFFCURVE",
"44 248 OFFCURVE",
"44 154 CURVE SMOOTH"
);
}
);
width = 327;
},
{
layerId = "60861F18-288B-4955-898F-0966625DD71B";
paths = (
{
closed = 1;
nodes = (
"38 88 OFFCURVE",
"48 17 OFFCURVE",
"68 -46 CURVE SMOOTH",
"89 -110 OFFCURVE",
"115 -164 OFFCURVE",
"147 -208 CURVE SMOOTH",
"159 -225 OFFCURVE",
"171 -229 OFFCURVE",
"185 -220 CURVE SMOOTH",
"225 -194 LINE SMOOTH",
"237 -186 OFFCURVE",
"239 -173 OFFCURVE",
"231 -154 CURVE SMOOTH",
"214 -115 OFFCURVE",
"202 -73 OFFCURVE",
"194 -29 CURVE SMOOTH",
"188 15 OFFCURVE",
"184 78 OFFCURVE",
"184 160 CURVE SMOOTH",
"184 294 OFFCURVE",
"211 403 OFFCURVE",
"265 485 CURVE SMOOTH",
"319 568 OFFCURVE",
"374 632 OFFCURVE",
"429 677 CURVE SMOOTH",
"445 690 OFFCURVE",
"448 702 OFFCURVE",
"437 712 CURVE SMOOTH",
"395 752 LINE",
"388 758 OFFCURVE",
"376 756 OFFCURVE",
"360 748 CURVE SMOOTH",
"297 713 OFFCURVE",
"228 642 OFFCURVE",
"151 535 CURVE SMOOTH",
"76 428 OFFCURVE",
"38 305 OFFCURVE",
"38 166 CURVE SMOOTH"
);
}
);
width = 361;
}
);
unicode = 0028;
},
{
glyphname = parenright;
lastChange = "2016-09-03 11:06:02 +0000";
layers = (
{
layerId = UUID0;
paths = (
{
closed = 1;
nodes = (
"-37 -207 LINE SMOOTH",
"-28 -215 OFFCURVE",
"-17 -212 OFFCURVE",
"-2 -200 CURVE SMOOTH",
"102 -105 OFFCURVE",
"179 -9 OFFCURVE",
"228 89 CURVE SMOOTH",
"277 188 OFFCURVE",
"302 284 OFFCURVE",
"302 377 CURVE SMOOTH",
"302 432 OFFCURVE",
"294 495 OFFCURVE",
"278 564 CURVE SMOOTH",
"262 634 OFFCURVE",
"239 688 OFFCURVE",
"208 727 CURVE SMOOTH",
"196 741 OFFCURVE",
"186 746 OFFCURVE",
"176 739 CURVE SMOOTH",
"158 728 LINE SMOOTH",
"149 722 OFFCURVE",
"148 712 OFFCURVE",
"156 699 CURVE SMOOTH",
"183 649 OFFCURVE",
"207 548 OFFCURVE",
"207 392 CURVE SMOOTH",
"207 267 OFFCURVE",
"174 152 OFFCURVE",
"108 47 CURVE SMOOTH",
"43 -58 OFFCURVE",
"-9 -128 OFFCURVE",
"-49 -164 CURVE SMOOTH",
"-60 -174 OFFCURVE",
"-62 -184 OFFCURVE",
"-52 -192 CURVE SMOOTH"
);
}
);
width = 327;
},
{
layerId = "60861F18-288B-4955-898F-0966625DD71B";
paths = (
{
closed = 1;
nodes = (
"-28 -221 LINE",
"-21 -227 OFFCURVE",
"-9 -225 OFFCURVE",
"7 -216 CURVE SMOOTH",
"70 -182 OFFCURVE",
"140 -111 OFFCURVE",
"215 -4 CURVE SMOOTH",
"292 103 OFFCURVE",
"330 226 OFFCURVE",
"330 366 CURVE SMOOTH",
"330 443 OFFCURVE",
"319 514 OFFCURVE",
"298 578 CURVE",
"278 642 OFFCURVE",
"252 695 OFFCURVE",
"220 739 CURVE SMOOTH",
"208 756 OFFCURVE",
"196 760 OFFCURVE",
"182 751 CURVE SMOOTH",
"143 726 LINE SMOOTH",
"130 717 OFFCURVE",
"128 704 OFFCURVE",
"136 685 CURVE SMOOTH",
"153 646 OFFCURVE",
"166 604 OFFCURVE",
"172 560 CURVE",
"180 516 OFFCURVE",
"183 453 OFFCURVE",
"183 372 CURVE SMOOTH",
"183 237 OFFCURVE",
"156 128 OFFCURVE",
"102 46 CURVE SMOOTH",
"48 -37 OFFCURVE",
"-6 -101 OFFCURVE",
"-62 -146 CURVE SMOOTH",
"-78 -159 OFFCURVE",
"-81 -170 OFFCURVE",
"-70 -181 CURVE SMOOTH"
);
}
);
width = 361;
}
);
unicode = 0029;
},
{
glyphname = asterisk;
lastChange = "2016-09-03 11:06:02 +0000";
layers = (
{
layerId = UUID0;
paths = (
{
closed = 1;
nodes = (
"138 471 LINE SMOOTH",
"109 460 OFFCURVE",
"98 442 OFFCURVE",
"106 419 CURVE SMOOTH",
"108 415 LINE SMOOTH",
"116 392 OFFCURVE",
"134 389 OFFCURVE",
"161 406 CURVE SMOOTH",
"268 474 LINE",
"229 361 LINE SMOOTH",
"218 332 OFFCURVE",
"227 318 OFFCURVE",
"253 318 CURVE SMOOTH",
"259 318 LINE SMOOTH",
"285 318 OFFCURVE",
"300 332 OFFCURVE",
"304 361 CURVE SMOOTH",
"316 474 LINE",
"392 406 LINE SMOOTH",
"411 389 OFFCURVE",
"430 392 OFFCURVE",
"449 415 CURVE SMOOTH",
"453 419 LINE SMOOTH",
"472 442 OFFCURVE",
"469 460 OFFCURVE",
"445 471 CURVE SMOOTH",
"351 516 LINE",
"465 562 LINE",
"495 573 OFFCURVE",
"506 590 OFFCURVE",
"498 613 CURVE SMOOTH",
"496 618 LINE SMOOTH",
"487 641 OFFCURVE",
"470 644 OFFCURVE",
"443 626 CURVE SMOOTH",
"336 559 LINE",
"375 672 LINE SMOOTH",
"385 701 OFFCURVE",
"377 715 OFFCURVE",
"351 715 CURVE SMOOTH",
"345 715 LINE SMOOTH",
"318 715 OFFCURVE",
"304 701 OFFCURVE",
"300 672 CURVE SMOOTH",
"287 559 LINE",
"211 626 LINE SMOOTH",
"192 644 OFFCURVE",
"173 641 OFFCURVE",
"155 618 CURVE SMOOTH",
"151 613 LINE SMOOTH",
"132 590 OFFCURVE",
"135 573 OFFCURVE",
"159 562 CURVE SMOOTH",
"253 516 LINE"
);
}
);
width = 459;
},
{
layerId = "60861F18-288B-4955-898F-0966625DD71B";
paths = (
{
closed = 1;
nodes = (
"125 476 LINE SMOOTH",
"94 463 OFFCURVE",
"83 445 OFFCURVE",
"91 421 CURVE SMOOTH",
"96 406 LINE SMOOTH",
"104 382 OFFCURVE",
"123 380 OFFCURVE",
"152 398 CURVE SMOOTH",
"250 461 LINE",
"214 357 LINE SMOOTH",
"203 327 OFFCURVE",
"211 312 OFFCURVE",
"239 312 CURVE SMOOTH",
"256 312 LINE SMOOTH",
"284 312 OFFCURVE",
"299 327 OFFCURVE",
"303 357 CURVE SMOOTH",
"314 461 LINE",
"384 398 LINE SMOOTH",
"404 380 OFFCURVE",
"424 383 OFFCURVE",
"443 407 CURVE SMOOTH",
"455 422 LINE SMOOTH",
"474 445 OFFCURVE",
"471 463 OFFCURVE",
"446 475 CURVE SMOOTH",
"359 517 LINE",
"465 558 LINE SMOOTH",
"496 570 OFFCURVE",
"507 587 OFFCURVE",
"499 611 CURVE SMOOTH",
"494 626 LINE SMOOTH",
"485 650 OFFCURVE",
"467 653 OFFCURVE",
"438 635 CURVE SMOOTH",
"340 572 LINE",
"376 676 LINE SMOOTH",
"387 707 OFFCURVE",
"378 722 OFFCURVE",
"351 722 CURVE SMOOTH",
"333 722 LINE SMOOTH",
"306 722 OFFCURVE",
"291 707 OFFCURVE",
"288 676 CURVE SMOOTH",
"276 572 LINE",
"207 635 LINE SMOOTH",
"187 653 OFFCURVE",
"167 650 OFFCURVE",
"147 627 CURVE SMOOTH",
"135 612 LINE SMOOTH",
"116 588 OFFCURVE",
"120 570 OFFCURVE",
"145 558 CURVE SMOOTH",
"230 517 LINE"
);
}
);
width = 469;
}
);
unicode = 002A;
},
{
glyphname = plus;
lastChange = "2016-09-03 11:06:02 +0000";
layers = (
{
layerId = UUID0;
paths = (
{
closed = 1;
nodes = (
"306 325 LINE",
"306 103 LINE SMOOTH",
"306 88 OFFCURVE",
"312 81 OFFCURVE",
"323 81 CURVE SMOOTH",
"347 81 LINE SMOOTH",
"358 81 OFFCURVE",
"364 88 OFFCURVE",
"364 103 CURVE SMOOTH",
"364 325 LINE",
"587 325 LINE SMOOTH",
"602 325 OFFCURVE",
"609 331 OFFCURVE",
"609 342 CURVE SMOOTH",
"609 366 LINE SMOOTH",
"609 377 OFFCURVE",
"602 383 OFFCURVE",
"587 383 CURVE SMOOTH",
"364 383 LINE",
"364 605 LINE SMOOTH",
"364 620 OFFCURVE",
"358 627 OFFCURVE",
"347 627 CURVE SMOOTH",
"323 627 LINE SMOOTH",
"312 627 OFFCURVE",
"306 620 OFFCURVE",
"306 605 CURVE SMOOTH",
"306 383 LINE",
"84 383 LINE SMOOTH",
"69 383 OFFCURVE",
"62 377 OFFCURVE",
"62 366 CURVE SMOOTH",
"62 342 LINE SMOOTH",
"62 331 OFFCURVE",
"69 325 OFFCURVE",
"84 325 CURVE SMOOTH"
);
}
);
width = 625;
},
{
layerId = "60861F18-288B-4955-898F-0966625DD71B";
paths = (
{
closed = 1;
nodes = (
"290 309 LINE",
"290 107 LINE SMOOTH",
"290 88 OFFCURVE",
"298 78 OFFCURVE",
"314 78 CURVE SMOOTH",
"356 78 LINE SMOOTH",
"373 78 OFFCURVE",
"381 88 OFFCURVE",
"381 107 CURVE SMOOTH",
"381 309 LINE",
"582 309 LINE SMOOTH",
"602 309 OFFCURVE",
"611 317 OFFCURVE",
"611 333 CURVE SMOOTH",
"611 375 LINE SMOOTH",
"611 391 OFFCURVE",
"602 399 OFFCURVE",
"582 399 CURVE SMOOTH",
"381 399 LINE",
"381 601 LINE SMOOTH",
"381 620 OFFCURVE",
"373 630 OFFCURVE",
"356 630 CURVE SMOOTH",
"314 630 LINE SMOOTH",
"298 630 OFFCURVE",
"290 620 OFFCURVE",
"290 601 CURVE SMOOTH",
"290 399 LINE",
"89 399 LINE SMOOTH",
"69 399 OFFCURVE",
"60 391 OFFCURVE",
"60 375 CURVE SMOOTH",
"60 333 LINE SMOOTH",
"60 317 OFFCURVE",
"69 309 OFFCURVE",
"89 309 CURVE SMOOTH"
);
}
);
width = 625;
}
);
unicode = 002B;
},
{
glyphname = comma;
lastChange = "2016-09-03 11:06:02 +0000";
layers = (
{
layerId = UUID0;
paths = (
{
closed = 1;
nodes = (
"92 0 LINE",
"87 -18 OFFCURVE",
"79 -37 OFFCURVE",
"66 -57 CURVE SMOOTH",
"54 -78 OFFCURVE",
"42 -92 OFFCURVE",
"30 -101 CURVE SMOOTH",
"21 -107 OFFCURVE",
"20 -113 OFFCURVE",
"24 -118 CURVE SMOOTH",
"42 -137 LINE SMOOTH",
"46 -142 OFFCURVE",
"52 -140 OFFCURVE",
"61 -134 CURVE SMOOTH",
"86 -114 OFFCURVE",
"104 -93 OFFCURVE",
"117 -72 CURVE SMOOTH",
"129 -51 OFFCURVE",
"140 -20 OFFCURVE",
"150 22 CURVE SMOOTH",
"164 82 LINE SMOOTH",
"167 96 OFFCURVE",
"162 104 OFFCURVE",
"147 104 CURVE SMOOTH",
"90 104 LINE SMOOTH",
"76 104 OFFCURVE",
"67 96 OFFCURVE",
"63 82 CURVE SMOOTH",
"49 22 LINE SMOOTH",
"46 7 OFFCURVE",
"51 0 OFFCURVE",
"66 0 CURVE SMOOTH"
);
}
);
width = 293;
},
{
layerId = "60861F18-288B-4955-898F-0966625DD71B";
paths = (
{
closed = 1;
nodes = (
"100 0 LINE",
"92 -38 OFFCURVE",
"77 -68 OFFCURVE",
"53 -87 CURVE SMOOTH",
"34 -102 OFFCURVE",
"30 -114 OFFCURVE",
"39 -124 CURVE SMOOTH",
"56 -142 LINE",
"66 -153 OFFCURVE",
"79 -151 OFFCURVE",
"96 -138 CURVE SMOOTH",
"125 -114 OFFCURVE",
"145 -88 OFFCURVE",
"156 -60 CURVE SMOOTH",
"167 -31 OFFCURVE",
"177 1 OFFCURVE",
"185 37 CURVE SMOOTH",
"200 102 LINE SMOOTH",
"206 126 OFFCURVE",
"198 139 OFFCURVE",
"175 139 CURVE SMOOTH",
"99 139 LINE SMOOTH",
"76 139 OFFCURVE",
"61 126 OFFCURVE",
"56 102 CURVE SMOOTH",
"41 37 LINE SMOOTH",
"35 12 OFFCURVE",
"43 0 OFFCURVE",
"66 0 CURVE SMOOTH"
);
}
);
width = 326;
}
);
unicode = 002C;
},
{
glyphname = hyphen;
lastChange = "2016-09-03 11:06:02 +0000";
layers = (
{
layerId = UUID0;
paths = (
{
closed = 1;
nodes = (
"283 236 LINE SMOOTH",
"297 236 OFFCURVE",
"306 242 OFFCURVE",
"309 253 CURVE SMOOTH",
"316 287 LINE SMOOTH",
"319 298 OFFCURVE",
"313 304 OFFCURVE",
"298 304 CURVE SMOOTH",
"65 304 LINE SMOOTH",
"50 304 OFFCURVE",
"42 298 OFFCURVE",
"39 287 CURVE SMOOTH",
"31 253 LINE SMOOTH",
"29 242 OFFCURVE",
"35 236 OFFCURVE",
"49 236 CURVE SMOOTH"
);
}
);
width = 332;
},
{
layerId = "60861F18-288B-4955-898F-0966625DD71B";
paths = (
{
closed = 1;
nodes = (
"278 218 LINE SMOOTH",
"298 218 OFFCURVE",
"310 226 OFFCURVE",
"313 242 CURVE SMOOTH",
"326 298 LINE SMOOTH",
"330 314 OFFCURVE",
"322 322 OFFCURVE",
"302 322 CURVE SMOOTH",
"71 322 LINE SMOOTH",
"52 322 OFFCURVE",
"40 314 OFFCURVE",
"36 298 CURVE SMOOTH",
"23 242 LINE SMOOTH",
"20 226 OFFCURVE",
"27 218 OFFCURVE",
"47 218 CURVE SMOOTH"
);
}
);
width = 342;
}
);
unicode = 002D;
},
{
glyphname = period;
lastChange = "2016-09-03 11:06:02 +0000";
layers = (
{
layerId = UUID0;
paths = (
{
closed = 1;
nodes = (
"120 0 LINE SMOOTH",
"135 0 OFFCURVE",
"144 7 OFFCURVE",
"147 22 CURVE SMOOTH",
"161 82 LINE SMOOTH",
"165 96 OFFCURVE",
"159 104 OFFCURVE",
"144 104 CURVE SMOOTH",
"89 104 LINE SMOOTH",
"75 104 OFFCURVE",
"66 96 OFFCURVE",
"63 82 CURVE SMOOTH",
"48 22 LINE SMOOTH",
"45 7 OFFCURVE",
"51 0 OFFCURVE",
"65 0 CURVE SMOOTH"
);
}
);
width = 293;
},
{
layerId = "60861F18-288B-4955-898F-0966625DD71B";
paths = (
{
closed = 1;
nodes = (
"142 0 LINE SMOOTH",
"165 0 OFFCURVE",
"179 12 OFFCURVE",
"184 37 CURVE SMOOTH",
"199 102 LINE SMOOTH",
"205 126 OFFCURVE",
"197 139 OFFCURVE",
"174 139 CURVE SMOOTH",
"100 139 LINE SMOOTH",
"77 139 OFFCURVE",
"62 126 OFFCURVE",
"57 102 CURVE SMOOTH",
"42 37 LINE SMOOTH",
"36 12 OFFCURVE",
"44 0 OFFCURVE",
"67 0 CURVE SMOOTH"
);
}
);
width = 326;
}
);
unicode = 002E;
},
{
glyphname = slash;
lastChange = "2016-09-03 11:06:02 +0000";
layers = (
{
layerId = UUID0;
paths = (
{
closed = 1;
nodes = (
"-56 -201 LINE SMOOTH",
"-47 -206 OFFCURVE",
"-38 -201 OFFCURVE",
"-29 -187 CURVE SMOOTH",
"520 678 LINE SMOOTH",
"528 691 OFFCURVE",
"528 700 OFFCURVE",
"519 705 CURVE SMOOTH",
"496 716 LINE SMOOTH",
"486 721 OFFCURVE",
"477 717 OFFCURVE",
"468 703 CURVE SMOOTH",
"-81 -162 LINE SMOOTH",
"-89 -175 OFFCURVE",
"-89 -185 OFFCURVE",
"-79 -189 CURVE SMOOTH"
);
}
);
width = 410;
},
{
layerId = "60861F18-288B-4955-898F-0966625DD71B";
paths = (
{
closed = 1;
nodes = (
"-46 -203 LINE SMOOTH",
"-34 -210 OFFCURVE",
"-21 -204 OFFCURVE",
"-9 -184 CURVE SMOOTH",
"510 659 LINE SMOOTH",
"521 675 OFFCURVE",
"520 688 OFFCURVE",
"506 695 CURVE SMOOTH",
"466 718 LINE SMOOTH",
"453 725 OFFCURVE",
"441 719 OFFCURVE",
"429 699 CURVE SMOOTH",
"-90 -144 LINE SMOOTH",
"-101 -160 OFFCURVE",
"-100 -172 OFFCURVE",
"-86 -180 CURVE SMOOTH"
);
}
);
width = 418;
}
);
unicode = 002F;
},
{
glyphname = zero;
lastChange = "2016-09-03 11:06:02 +0000";
layers = (
{
layerId = UUID0;
paths = (
{
closed = 1;
nodes = (
"51 150 OFFCURVE",
"65 95 OFFCURVE",
"94 51 CURVE SMOOTH",
"123 7 OFFCURVE",
"168 -15 OFFCURVE",
"230 -15 CURVE SMOOTH",
"336 -15 OFFCURVE",
"412 38 OFFCURVE",
"459 143 CURVE SMOOTH",
"506 249 OFFCURVE",
"529 361 OFFCURVE",
"529 479 CURVE SMOOTH",
"529 544 OFFCURVE",
"515 599 OFFCURVE",
"486 643 CURVE SMOOTH",
"457 687 OFFCURVE",
"412 709 OFFCURVE",
"350 709 CURVE SMOOTH",
"244 709 OFFCURVE",
"168 656 OFFCURVE",
"121 551 CURVE SMOOTH",
"74 446 OFFCURVE",
"51 333 OFFCURVE",
"51 215 CURVE SMOOTH"
);
},
{
closed = 1;
nodes = (
"142 314 OFFCURVE",
"160 416 OFFCURVE",
"195 505 CURVE SMOOTH",
"231 594 OFFCURVE",
"281 639 OFFCURVE",
"344 639 CURVE SMOOTH",
"378 639 OFFCURVE",
"403 623 OFFCURVE",
"417 591 CURVE SMOOTH",
"431 559 OFFCURVE",
"438 527 OFFCURVE",
"438 494 CURVE SMOOTH",
"438 380 OFFCURVE",
"420 279 OFFCURVE",
"385 189 CURVE SMOOTH",
"349 100 OFFCURVE",
"299 56 OFFCURVE",
"236 56 CURVE SMOOTH",
"202 56 OFFCURVE",
"177 72 OFFCURVE",
"163 104 CURVE SMOOTH",
"149 135 OFFCURVE",
"142 167 OFFCURVE",
"142 200 CURVE SMOOTH"
);
}
);
width = 542;
},
{
layerId = "60861F18-288B-4955-898F-0966625DD71B";
paths = (
{
closed = 1;
nodes = (
"49 145 OFFCURVE",
"68 78 OFFCURVE",
"107 40 CURVE SMOOTH",
"146 2 OFFCURVE",
"196 -17 OFFCURVE",
"258 -17 CURVE SMOOTH",
"380 -17 OFFCURVE",
"464 36 OFFCURVE",
"510 141 CURVE SMOOTH",
"557 247 OFFCURVE",
"580 352 OFFCURVE",
"580 456 CURVE SMOOTH",
"580 550 OFFCURVE",
"561 616 OFFCURVE",
"522 654 CURVE SMOOTH",
"483 692 OFFCURVE",
"433 711 OFFCURVE",
"371 711 CURVE SMOOTH",
"249 711 OFFCURVE",
"165 658 OFFCURVE",
"118 553 CURVE SMOOTH",
"72 448 OFFCURVE",
"49 343 OFFCURVE",
"49 239 CURVE SMOOTH"
);
},
{
closed = 1;
nodes = (
"193 292 OFFCURVE",
"207 375 OFFCURVE",
"235 467 CURVE SMOOTH",
"263 559 OFFCURVE",
"305 604 OFFCURVE",
"362 604 CURVE SMOOTH",
"411 604 OFFCURVE",
"436 566 OFFCURVE",
"436 475 CURVE SMOOTH",
"436 402 OFFCURVE",
"421 319 OFFCURVE",
"394 228 CURVE SMOOTH",
"366 136 OFFCURVE",
"324 90 OFFCURVE",
"267 90 CURVE SMOOTH",
"218 90 OFFCURVE",
"193 128 OFFCURVE",
"193 219 CURVE SMOOTH"
);
}
);
width = 586;
}
);
unicode = 0030;
},
{
glyphname = one;
lastChange = "2016-09-03 11:06:02 +0000";
layers = (
{
layerId = UUID0;
paths = (
{
closed = 1;
nodes = (
"167 521 LINE SMOOTH",
"170 512 OFFCURVE",
"178 508 OFFCURVE",
"189 512 CURVE SMOOTH",
"204 516 OFFCURVE",
"223 524 OFFCURVE",
"247 537 CURVE SMOOTH",
"271 550 OFFCURVE",
"288 563 OFFCURVE",
"299 576 CURVE",
"301 576 LINE",
"296 561 OFFCURVE",
"294 551 OFFCURVE",
"293 546 CURVE SMOOTH",
"172 22 LINE SMOOTH",
"168 7 OFFCURVE",
"174 0 OFFCURVE",
"189 0 CURVE SMOOTH",
"231 0 LINE SMOOTH",
"246 0 OFFCURVE",
"254 7 OFFCURVE",
"258 22 CURVE SMOOTH",
"410 681 LINE SMOOTH",
"414 696 OFFCURVE",
"408 703 OFFCURVE",
"393 703 CURVE SMOOTH",
"351 703 LINE SMOOTH",
"342 703 OFFCURVE",
"332 697 OFFCURVE",
"320 686 CURVE SMOOTH",
"303 669 OFFCURVE",
"280 650 OFFCURVE",
"250 628 CURVE SMOOTH",
"219 606 OFFCURVE",
"193 591 OFFCURVE",
"170 583 CURVE SMOOTH",
"155 578 OFFCURVE",
"149 570 OFFCURVE",
"153 561 CURVE SMOOTH"
);
}
);
width = 404;
},
{
layerId = "60861F18-288B-4955-898F-0966625DD71B";
paths = (
{
closed = 1;
nodes = (
"169 487 LINE SMOOTH",
"174 473 OFFCURVE",
"185 469 OFFCURVE",
"201 475 CURVE SMOOTH",
"230 485 OFFCURVE",
"256 499 OFFCURVE",
"276 523 CURVE",
"278 523 LINE",
"274 511 OFFCURVE",
"271 498 OFFCURVE",
"267 484 CURVE SMOOTH",
"163 29 LINE SMOOTH",
"158 10 OFFCURVE",
"166 0 OFFCURVE",
"185 0 CURVE SMOOTH",
"263 0 LINE SMOOTH",
"283 0 OFFCURVE",
"295 10 OFFCURVE",
"299 29 CURVE SMOOTH",
"448 674 LINE SMOOTH",
"453 693 OFFCURVE",
"445 703 OFFCURVE",
"425 703 CURVE SMOOTH",
"348 703 LINE SMOOTH",
"334 703 OFFCURVE",
"319 694 OFFCURVE",
"300 676 CURVE SMOOTH",
"283 660 OFFCURVE",
"262 644 OFFCURVE",
"237 628 CURVE SMOOTH",
"212 613 OFFCURVE",
"189 601 OFFCURVE",
"168 593 CURVE SMOOTH",
"146 583 OFFCURVE",
"137 571 OFFCURVE",
"143 556 CURVE SMOOTH"
);
}
);
width = 443;
}
);
unicode = 0031;
},
{
glyphname = two;
lastChange = "2016-09-03 11:06:02 +0000";
layers = (
{
layerId = UUID0;
paths = (
{
closed = 1;
nodes = (
"415 0 LINE SMOOTH",
"433 0 OFFCURVE",
"443 7 OFFCURVE",
"446 22 CURVE SMOOTH",
"455 58 LINE SMOOTH",
"458 73 OFFCURVE",
"451 80 OFFCURVE",
"433 80 CURVE SMOOTH",
"174 80 LINE SMOOTH",
"161 80 OFFCURVE",
"147 80 OFFCURVE",
"134 79 CURVE",
"135 81 LINE",
"332 237 LINE SMOOTH",
"393 285 OFFCURVE",
"444 332 OFFCURVE",
"488 376 CURVE SMOOTH",
"531 421 OFFCURVE",
"553 476 OFFCURVE",
"553 539 CURVE SMOOTH",
"553 591 OFFCURVE",
"537 632 OFFCURVE",
"503 663 CURVE SMOOTH",
"470 693 OFFCURVE",
"418 709 OFFCURVE",
"350 709 CURVE SMOOTH",
"293 709 OFFCURVE",
"245 693 OFFCURVE",
"203 661 CURVE SMOOTH",
"161 628 OFFCURVE",
"133 593 OFFCURVE",
"120 554 CURVE SMOOTH",
"111 530 OFFCURVE",
"113 516 OFFCURVE",
"124 512 CURVE SMOOTH",
"160 498 LINE SMOOTH",
"173 492 OFFCURVE",
"184 499 OFFCURVE",
"191 516 CURVE SMOOTH",
"205 549 OFFCURVE",
"224 577 OFFCURVE",
"250 601 CURVE SMOOTH",
"275 624 OFFCURVE",
"308 636 OFFCURVE",
"349 636 CURVE SMOOTH",
"388 636 OFFCURVE",
"416 625 OFFCURVE",
"433 605 CURVE SMOOTH",
"449 585 OFFCURVE",
"458 563 OFFCURVE",
"458 538 CURVE SMOOTH",
"458 496 OFFCURVE",
"442 456 OFFCURVE",
"413 417 CURVE SMOOTH",
"383 378 OFFCURVE",
"333 331 OFFCURVE",
"263 273 CURVE SMOOTH",
"27 81 LINE SMOOTH",
"14 69 OFFCURVE",
"5 58 OFFCURVE",
"2 45 CURVE SMOOTH",
"-3 22 LINE SMOOTH",
"-6 7 OFFCURVE",
"1 0 OFFCURVE",
"19 0 CURVE SMOOTH"
);
}
);
width = 542;
},
{
layerId = "60861F18-288B-4955-898F-0966625DD71B";
paths = (
{
closed = 1;
nodes = (
"447 0 LINE SMOOTH",
"471 0 OFFCURVE",
"486 11 OFFCURVE",
"491 32 CURVE SMOOTH",
"504 89 LINE SMOOTH",
"509 110 OFFCURVE",
"499 121 OFFCURVE",
"475 121 CURVE SMOOTH",
"263 121 LINE SMOOTH",
"250 121 OFFCURVE",
"234 121 OFFCURVE",
"214 119 CURVE",
"215 122 LINE",
"320 209 LINE SMOOTH",
"360 243 OFFCURVE",
"416 291 OFFCURVE",
"487 352 CURVE SMOOTH",
"558 414 OFFCURVE",
"593 474 OFFCURVE",
"593 534 CURVE SMOOTH",
"593 589 OFFCURVE",
"575 632 OFFCURVE",
"540 664 CURVE SMOOTH",
"504 695 OFFCURVE",
"455 711 OFFCURVE",
"391 711 CURVE SMOOTH",
"313 711 OFFCURVE",
"253 696 OFFCURVE",
"212 665 CURVE SMOOTH",
"171 635 OFFCURVE",
"140 596 OFFCURVE",
"117 548 CURVE SMOOTH",
"107 527 OFFCURVE",
"112 512 OFFCURVE",
"131 502 CURVE SMOOTH",
"177 479 LINE SMOOTH",
"191 471 OFFCURVE",
"205 479 OFFCURVE",
"218 503 CURVE SMOOTH",
"236 535 OFFCURVE",
"256 559 OFFCURVE",
"280 576 CURVE SMOOTH",
"303 593 OFFCURVE",
"334 602 OFFCURVE",
"373 602 CURVE SMOOTH",
"393 602 OFFCURVE",
"410 597 OFFCURVE",
"425 586 CURVE SMOOTH",
"439 576 OFFCURVE",
"447 556 OFFCURVE",
"447 525 CURVE SMOOTH",
"447 496 OFFCURVE",
"423 458 OFFCURVE",
"376 410 CURVE SMOOTH",
"330 361 OFFCURVE",
"275 312 OFFCURVE",
"214 259 CURVE SMOOTH",
"32 105 LINE SMOOTH",
"13 89 OFFCURVE",
"1 72 OFFCURVE",
"-3 55 CURVE SMOOTH",
"-8 32 LINE SMOOTH",
"-13 11 OFFCURVE",
"-3 0 OFFCURVE",
"21 0 CURVE SMOOTH"
);
}
);
width = 586;
}
);
unicode = 0032;
},
{
glyphname = three;
lastChange = "2016-09-03 11:06:02 +0000";
layers = (
{
layerId = UUID0;
paths = (
{
closed = 1;
nodes = (
"47 51 OFFCURVE",
"71 32 OFFCURVE",
"102 13 CURVE SMOOTH",
"134 -5 OFFCURVE",
"174 -15 OFFCURVE",
"224 -15 CURVE SMOOTH",
"317 -15 OFFCURVE",
"386 10 OFFCURVE",
"431 60 CURVE SMOOTH",
"476 110 OFFCURVE",
"498 159 OFFCURVE",
"498 208 CURVE SMOOTH",
"498 254 OFFCURVE",
"488 292 OFFCURVE",
"468 321 CURVE SMOOTH",
"448 350 OFFCURVE",
"422 369 OFFCURVE",
"389 378 CURVE",
"390 380 LINE",
"421 383 OFFCURVE",
"455 402 OFFCURVE",
"493 435 CURVE SMOOTH",
"530 468 OFFCURVE",
"549 505 OFFCURVE",
"549 546 CURVE SMOOTH",
"549 646 OFFCURVE",
"485 709 OFFCURVE",
"356 709 CURVE SMOOTH",
"318 709 OFFCURVE",
"281 702 OFFCURVE",
"247 687 CURVE SMOOTH",
"212 672 OFFCURVE",
"184 655 OFFCURVE",
"161 636 CURVE SMOOTH",
"142 620 OFFCURVE",
"137 607 OFFCURVE",
"146 597 CURVE SMOOTH",
"172 567 LINE SMOOTH",
"183 555 OFFCURVE",
"194 557 OFFCURVE",
"208 571 CURVE SMOOTH",
"221 585 OFFCURVE",
"239 599 OFFCURVE",
"264 614 CURVE SMOOTH",
"289 628 OFFCURVE",
"318 636 OFFCURVE",
"350 636 CURVE SMOOTH",
"418 636 OFFCURVE",
"457 605 OFFCURVE",
"457 552 CURVE SMOOTH",
"457 517 OFFCURVE",
"440 484 OFFCURVE",
"408 454 CURVE SMOOTH",
"375 424 OFFCURVE",
"337 409 OFFCURVE",
"294 409 CURVE SMOOTH",
"260 409 LINE SMOOTH",
"245 409 OFFCURVE",
"236 403 OFFCURVE",
"234 392 CURVE SMOOTH",
"226 356 LINE SMOOTH",
"223 345 OFFCURVE",
"229 340 OFFCURVE",
"244 340 CURVE SMOOTH",
"297 340 LINE SMOOTH",
"371 340 OFFCURVE",
"402 299 OFFCURVE",
"402 215 CURVE SMOOTH",
"402 171 OFFCURVE",
"386 133 OFFCURVE",
"352 104 CURVE SMOOTH",
"318 74 OFFCURVE",
"278 59 OFFCURVE",
"230 59 CURVE SMOOTH",
"181 59 OFFCURVE",
"131 83 OFFCURVE",
"94 125 CURVE SMOOTH",
"78 144 OFFCURVE",
"65 148 OFFCURVE",
"56 138 CURVE SMOOTH",
"28 109 LINE SMOOTH",
"19 101 OFFCURVE",
"21 88 OFFCURVE",
"32 72 CURVE SMOOTH"
);
}
);
width = 542;
},
{
layerId = "60861F18-288B-4955-898F-0966625DD71B";
paths = (
{
closed = 1;
nodes = (
"47 26 OFFCURVE",
"79 10 OFFCURVE",
"117 0 CURVE SMOOTH",
"156 -11 OFFCURVE",
"194 -17 OFFCURVE",
"231 -17 CURVE SMOOTH",
"339 -17 OFFCURVE",
"416 7 OFFCURVE",
"463 55 CURVE SMOOTH",
"511 103 OFFCURVE",
"535 154 OFFCURVE",
"535 208 CURVE SMOOTH",
"535 252 OFFCURVE",
"522 290 OFFCURVE",
"498 320 CURVE SMOOTH",
"474 350 OFFCURVE",
"444 370 OFFCURVE",
"407 378 CURVE",
"407 380 LINE",
"450 387 OFFCURVE",
"490 405 OFFCURVE",
"526 434 CURVE SMOOTH",
"563 463 OFFCURVE",
"581 501 OFFCURVE",
"581 548 CURVE SMOOTH",
"581 590 OFFCURVE",
"563 628 OFFCURVE",
"528 661 CURVE SMOOTH",
"494 694 OFFCURVE",
"440 711 OFFCURVE",
"367 711 CURVE SMOOTH",
"320 711 OFFCURVE",
"276 705 OFFCURVE",
"236 691 CURVE SMOOTH",
"197 679 OFFCURVE",
"166 662 OFFCURVE",
"142 642 CURVE SMOOTH",
"124 626 OFFCURVE",
"121 610 OFFCURVE",
"132 594 CURVE SMOOTH",
"159 557 LINE SMOOTH",
"171 540 OFFCURVE",
"188 539 OFFCURVE",
"209 555 CURVE SMOOTH",
"242 580 OFFCURVE",
"283 602 OFFCURVE",
"341 602 CURVE SMOOTH",
"410 602 OFFCURVE",
"438 574 OFFCURVE",
"438 535 CURVE SMOOTH",
"438 505 OFFCURVE",
"424 480 OFFCURVE",
"396 459 CURVE SMOOTH",
"369 438 OFFCURVE",
"335 428 OFFCURVE",
"295 428 CURVE SMOOTH",
"271 428 LINE SMOOTH",
"250 428 OFFCURVE",
"237 419 OFFCURVE",
"233 401 CURVE SMOOTH",
"220 347 LINE SMOOTH",
"216 330 OFFCURVE",
"225 321 OFFCURVE",
"246 321 CURVE SMOOTH",
"278 321 LINE SMOOTH",
"310 321 OFFCURVE",
"336 312 OFFCURVE",
"357 293 CURVE SMOOTH",
"378 275 OFFCURVE",
"388 249 OFFCURVE",
"388 216 CURVE SMOOTH",
"388 184 OFFCURVE",
"376 155 OFFCURVE",
"352 130 CURVE SMOOTH",
"328 105 OFFCURVE",
"290 93 OFFCURVE",
"240 93 CURVE SMOOTH",
"177 93 OFFCURVE",
"125 115 OFFCURVE",
"88 141 CURVE SMOOTH",
"64 158 OFFCURVE",
"47 157 OFFCURVE",
"36 137 CURVE SMOOTH",
"11 89 LINE SMOOTH",
"2 74 OFFCURVE",
"7 60 OFFCURVE",
"23 46 CURVE SMOOTH"
);
}
);
width = 586;
}
);
unicode = 0033;
},
{
glyphname = four;
lastChange = "2016-09-03 11:06:02 +0000";
layers = (
{
layerId = UUID0;
paths = (
{
closed = 1;
nodes = (
"306 173 LINE",
"271 22 LINE SMOOTH",
"267 7 OFFCURVE",
"273 0 OFFCURVE",
"288 0 CURVE SMOOTH",
"330 0 LINE SMOOTH",
"344 0 OFFCURVE",
"353 7 OFFCURVE",
"356 22 CURVE SMOOTH",
"392 173 LINE",
"476 173 LINE SMOOTH",
"490 173 OFFCURVE",
"499 180 OFFCURVE",
"502 195 CURVE SMOOTH",
"510 231 LINE SMOOTH",
"514 246 OFFCURVE",
"508 253 OFFCURVE",
"494 253 CURVE SMOOTH",
"410 253 LINE",
"509 681 LINE SMOOTH",
"512 696 OFFCURVE",
"506 703 OFFCURVE",
"491 703 CURVE SMOOTH",
"447 703 LINE SMOOTH",
"436 703 OFFCURVE",
"426 697 OFFCURVE",
"416 686 CURVE SMOOTH",
"52 271 LINE SMOOTH",
"42 259 OFFCURVE",
"35 248 OFFCURVE",
"32 238 CURVE SMOOTH",
"22 195 LINE SMOOTH",
"19 180 OFFCURVE",
"25 173 OFFCURVE",
"40 173 CURVE SMOOTH"
);
},
{
closed = 1;
nodes = (
"393 553 LINE",
"394 553 LINE",
"391 543 OFFCURVE",
"389 534 OFFCURVE",
"386 524 CURVE SMOOTH",
"324 253 LINE",
"129 253 LINE"
);
}
);
width = 542;
},
{
layerId = "60861F18-288B-4955-898F-0966625DD71B";
paths = (
{
closed = 1;
nodes = (
"305 152 LINE",
"277 32 LINE SMOOTH",
"272 11 OFFCURVE",
"280 0 OFFCURVE",
"301 0 CURVE SMOOTH",
"375 0 LINE SMOOTH",
"396 0 OFFCURVE",
"409 11 OFFCURVE",
"414 32 CURVE SMOOTH",
"441 152 LINE",
"501 152 LINE SMOOTH",
"522 152 OFFCURVE",
"535 163 OFFCURVE",
"540 184 CURVE SMOOTH",
"553 242 LINE SMOOTH",
"558 263 OFFCURVE",
"549 273 OFFCURVE",
"528 273 CURVE SMOOTH",
"469 273 LINE",
"561 671 LINE SMOOTH",
"566 692 OFFCURVE",
"558 703 OFFCURVE",
"536 703 CURVE SMOOTH",
"457 703 LINE SMOOTH",
"438 703 OFFCURVE",
"421 695 OFFCURVE",
"405 678 CURVE SMOOTH",
"55 297 LINE SMOOTH",
"42 283 OFFCURVE",
"34 267 OFFCURVE",
"29 249 CURVE SMOOTH",
"14 184 LINE SMOOTH",
"9 163 OFFCURVE",
"18 152 OFFCURVE",
"39 152 CURVE SMOOTH"
);
},
{
closed = 1;
nodes = (
"382 487 LINE",
"384 487 LINE",
"379 474 OFFCURVE",
"376 461 OFFCURVE",
"373 448 CURVE SMOOTH",
"333 273 LINE",
"186 273 LINE"
);
}
);
width = 586;
}
);
unicode = 0034;
},
{
glyphname = five;
lastChange = "2016-09-03 11:06:02 +0000";
layers = (
{
layerId = UUID0;
paths = (
{
closed = 1;
nodes = (
"51 63 OFFCURVE",
"73 41 OFFCURVE",
"105 19 CURVE SMOOTH",
"137 -3 OFFCURVE",
"182 -15 OFFCURVE",
"240 -15 CURVE SMOOTH",
"315 -15 OFFCURVE",
"378 9 OFFCURVE",
"428 56 CURVE SMOOTH",
"477 104 OFFCURVE",
"502 163 OFFCURVE",
"502 234 CURVE SMOOTH",
"502 292 OFFCURVE",
"489 339 OFFCURVE",
"463 376 CURVE",
"438 414 OFFCURVE",
"392 433 OFFCURVE",
"324 433 CURVE SMOOTH",
"307 433 OFFCURVE",
"287 429 OFFCURVE",
"264 423 CURVE SMOOTH",
"241 417 OFFCURVE",
"223 406 OFFCURVE",
"208 392 CURVE",
"206 392 LINE",
"209 404 OFFCURVE",
"212 414 OFFCURVE",
"214 421 CURVE",
"258 614 LINE",
"531 614 LINE SMOOTH",
"546 614 OFFCURVE",
"555 622 OFFCURVE",
"559 636 CURVE SMOOTH",
"567 672 LINE SMOOTH",
"570 687 OFFCURVE",
"564 694 OFFCURVE",
"550 694 CURVE SMOOTH",
"213 694 LINE SMOOTH",
"198 694 OFFCURVE",
"189 687 OFFCURVE",
"186 672 CURVE SMOOTH",
"106 327 LINE SMOOTH",
"103 313 OFFCURVE",
"109 305 OFFCURVE",
"123 305 CURVE SMOOTH",
"146 305 LINE SMOOTH",
"158 305 OFFCURVE",
"173 311 OFFCURVE",
"189 321 CURVE SMOOTH",
"214 338 OFFCURVE",
"235 348 OFFCURVE",
"250 353 CURVE SMOOTH",
"267 357 OFFCURVE",
"282 359 OFFCURVE",
"297 359 CURVE SMOOTH",
"370 359 OFFCURVE",
"406 329 OFFCURVE",
"406 245 CURVE SMOOTH",
"406 191 OFFCURVE",
"391 146 OFFCURVE",
"361 111 CURVE SMOOTH",
"332 76 OFFCURVE",
"292 59 OFFCURVE",
"244 59 CURVE SMOOTH",
"203 59 OFFCURVE",
"171 67 OFFCURVE",
"150 84 CURVE SMOOTH",
"129 102 OFFCURVE",
"115 117 OFFCURVE",
"107 128 CURVE SMOOTH",
"94 147 OFFCURVE",
"82 153 OFFCURVE",
"70 144 CURVE",
"38 120 LINE SMOOTH",
"27 112 OFFCURVE",
"28 100 OFFCURVE",
"39 83 CURVE"
);
}
);
width = 542;
},
{
layerId = "60861F18-288B-4955-898F-0966625DD71B";
paths = (
{
closed = 1;
nodes = (
"67 -1 OFFCURVE",
"139 -17 OFFCURVE",
"233 -17 CURVE SMOOTH",
"323 -17 OFFCURVE",
"396 11 OFFCURVE",
"451 65 CURVE SMOOTH",
"506 119 OFFCURVE",
"534 181 OFFCURVE",
"534 250 CURVE SMOOTH",
"534 317 OFFCURVE",
"519 367 OFFCURVE",
"488 401 CURVE SMOOTH",
"458 435 OFFCURVE",
"418 452 OFFCURVE",
"371 452 CURVE SMOOTH",
"346 452 OFFCURVE",
"323 450 OFFCURVE",
"304 444 CURVE SMOOTH",
"285 439 OFFCURVE",
"265 429 OFFCURVE",
"244 415 CURVE",
"238 415 LINE",
"244 427 OFFCURVE",
"248 439 OFFCURVE",
"251 454 CURVE SMOOTH",
"279 573 LINE",
"526 573 LINE SMOOTH",
"547 573 OFFCURVE",
"560 584 OFFCURVE",
"565 605 CURVE SMOOTH",
"578 663 LINE SMOOTH",
"583 684 OFFCURVE",
"575 694 OFFCURVE",
"554 694 CURVE SMOOTH",
"202 694 LINE SMOOTH",
"181 694 OFFCURVE",
"168 684 OFFCURVE",
"163 663 CURVE SMOOTH",
"85 326 LINE SMOOTH",
"81 305 OFFCURVE",
"89 294 OFFCURVE",
"110 294 CURVE SMOOTH",
"163 294 LINE SMOOTH",
"179 294 OFFCURVE",
"195 299 OFFCURVE",
"212 310 CURVE SMOOTH",
"236 325 OFFCURVE",
"254 334 OFFCURVE",
"266 338 CURVE SMOOTH",
"278 341 OFFCURVE",
"293 343 OFFCURVE",
"310 343 CURVE SMOOTH",
"328 343 OFFCURVE",
"345 338 OFFCURVE",
"362 328 CURVE SMOOTH",
"379 318 OFFCURVE",
"388 295 OFFCURVE",
"388 257 CURVE SMOOTH",
"388 205 OFFCURVE",
"372 165 OFFCURVE",
"340 136 CURVE SMOOTH",
"309 107 OFFCURVE",
"271 93 OFFCURVE",
"227 93 CURVE SMOOTH",
"194 93 OFFCURVE",
"168 96 OFFCURVE",
"151 102 CURVE SMOOTH",
"134 108 OFFCURVE",
"117 120 OFFCURVE",
"99 136 CURVE SMOOTH",
"81 153 OFFCURVE",
"64 153 OFFCURVE",
"49 135 CURVE SMOOTH",
"11 88 LINE SMOOTH",
"1 77 OFFCURVE",
"3 64 OFFCURVE",
"16 51 CURVE SMOOTH"
);
}
);
width = 586;
}
);
unicode = 0035;
},
{
glyphname = six;
lastChange = "2016-09-03 11:06:02 +0000";
layers = (
{
layerId = UUID0;
paths = (
{
closed = 1;
nodes = (
"57 146 OFFCURVE",
"74 89 OFFCURVE",
"107 47 CURVE SMOOTH",
"141 6 OFFCURVE",
"189 -15 OFFCURVE",
"250 -15 CURVE SMOOTH",
"327 -15 OFFCURVE",
"387 12 OFFCURVE",
"431 66 CURVE SMOOTH",
"476 121 OFFCURVE",
"498 182 OFFCURVE",
"498 249 CURVE SMOOTH",
"498 312 OFFCURVE",
"481 359 OFFCURVE",
"448 391 CURVE SMOOTH",
"415 423 OFFCURVE",
"371 439 OFFCURVE",
"316 439 CURVE SMOOTH",
"287 439 OFFCURVE",
"257 433 OFFCURVE",
"226 420 CURVE SMOOTH",
"195 407 OFFCURVE",
"170 388 OFFCURVE",
"151 363 CURVE",
"150 363 LINE",
"168 442 OFFCURVE",
"197 507 OFFCURVE",
"238 559 CURVE SMOOTH",
"278 610 OFFCURVE",
"324 636 OFFCURVE",
"375 636 CURVE SMOOTH",
"424 636 OFFCURVE",
"464 621 OFFCURVE",
"482 599 CURVE SMOOTH",
"493 584 OFFCURVE",
"505 582 OFFCURVE",
"517 592 CURVE SMOOTH",
"547 617 LINE SMOOTH",
"556 624 OFFCURVE",
"553 634 OFFCURVE",
"541 649 CURVE SMOOTH",
"509 685 OFFCURVE",
"452 709 OFFCURVE",
"386 709 CURVE SMOOTH",
"283 709 OFFCURVE",
"202 661 OFFCURVE",
"144 565 CURVE SMOOTH",
"86 470 OFFCURVE",
"57 354 OFFCURVE",
"57 219 CURVE SMOOTH"
);
},
{
closed = 1;
nodes = (
"149 227 OFFCURVE",
"163 266 OFFCURVE",
"190 305 CURVE SMOOTH",
"218 345 OFFCURVE",
"253 364 OFFCURVE",
"296 364 CURVE SMOOTH",
"361 364 OFFCURVE",
"402 325 OFFCURVE",
"402 256 CURVE SMOOTH",
"402 208 OFFCURVE",
"388 164 OFFCURVE",
"358 122 CURVE SMOOTH",
"330 80 OFFCURVE",
"294 59 OFFCURVE",
"254 59 CURVE SMOOTH",
"187 59 OFFCURVE",
"149 107 OFFCURVE",
"149 188 CURVE SMOOTH"
);
}
);
width = 542;
},
{
layerId = "60861F18-288B-4955-898F-0966625DD71B";
paths = (
{
closed = 1;
nodes = (
"55 151 OFFCURVE",
"71 86 OFFCURVE",
"103 45 CURVE",
"135 4 OFFCURVE",
"187 -17 OFFCURVE",
"258 -17 CURVE SMOOTH",
"341 -17 OFFCURVE",
"409 10 OFFCURVE",
"463 63 CURVE SMOOTH",
"518 116 OFFCURVE",
"545 180 OFFCURVE",
"545 256 CURVE SMOOTH",
"545 317 OFFCURVE",
"530 365 OFFCURVE",
"500 399 CURVE SMOOTH",
"470 435 OFFCURVE",
"424 452 OFFCURVE",
"362 452 CURVE SMOOTH",
"335 452 OFFCURVE",
"308 448 OFFCURVE",
"279 439 CURVE SMOOTH",
"250 430 OFFCURVE",
"226 414 OFFCURVE",
"206 389 CURVE",
"204 389 LINE",
"220 462 OFFCURVE",
"247 515 OFFCURVE",
"283 550 CURVE SMOOTH",
"320 584 OFFCURVE",
"359 602 OFFCURVE",
"399 602 CURVE SMOOTH",
"438 602 OFFCURVE",
"470 596 OFFCURVE",
"505 573 CURVE SMOOTH",
"525 560 OFFCURVE",
"541 560 OFFCURVE",
"551 573 CURVE SMOOTH",
"588 621 LINE SMOOTH",
"599 634 OFFCURVE",
"595 648 OFFCURVE",
"578 662 CURVE SMOOTH",
"534 699 OFFCURVE",
"482 711 OFFCURVE",
"404 711 CURVE SMOOTH",
"301 711 OFFCURVE",
"217 667 OFFCURVE",
"152 577 CURVE SMOOTH",
"87 488 OFFCURVE",
"55 376 OFFCURVE",
"55 240 CURVE SMOOTH"
);
},
{
closed = 1;
nodes = (
"194 225 OFFCURVE",
"206 260 OFFCURVE",
"228 293 CURVE SMOOTH",
"251 326 OFFCURVE",
"282 343 OFFCURVE",
"322 343 CURVE SMOOTH",
"342 343 OFFCURVE",
"359 337 OFFCURVE",
"375 325 CURVE SMOOTH",
"391 313 OFFCURVE",
"398 294 OFFCURVE",
"398 269 CURVE SMOOTH",
"398 220 OFFCURVE",
"386 179 OFFCURVE",
"362 145 CURVE SMOOTH",
"338 110 OFFCURVE",
"310 93 OFFCURVE",
"276 93 CURVE SMOOTH",
"253 93 OFFCURVE",
"234 100 OFFCURVE",
"218 114 CURVE",
"202 129 OFFCURVE",
"194 153 OFFCURVE",
"194 187 CURVE SMOOTH"
);
}
);
width = 586;
}
);
unicode = 0036;
},
{
glyphname = seven;
lastChange = "2016-09-03 11:06:02 +0000";
layers = (
{
layerId = UUID0;
paths = (
{
closed = 1;
nodes = (
"459 614 LINE SMOOTH",
"469 614 OFFCURVE",
"479 615 OFFCURVE",
"489 615 CURVE",
"489 614 LINE",
"404 533 OFFCURVE",
"330 449 OFFCURVE",
"268 363 CURVE SMOOTH",
"205 277 OFFCURVE",
"159 172 OFFCURVE",
"130 48 CURVE SMOOTH",
"123 19 LINE SMOOTH",
"120 4 OFFCURVE",
"125 -3 OFFCURVE",
"140 -3 CURVE SMOOTH",
"185 -3 LINE SMOOTH",
"199 -3 OFFCURVE",
"208 4 OFFCURVE",
"211 19 CURVE SMOOTH",
"222 65 LINE SMOOTH",
"246 167 OFFCURVE",
"288 263 OFFCURVE",
"348 355 CURVE SMOOTH",
"409 447 OFFCURVE",
"480 530 OFFCURVE",
"562 604 CURVE SMOOTH",
"577 617 OFFCURVE",
"585 628 OFFCURVE",
"588 639 CURVE SMOOTH",
"596 672 LINE SMOOTH",
"599 687 OFFCURVE",
"593 694 OFFCURVE",
"579 694 CURVE SMOOTH",
"171 694 LINE SMOOTH",
"157 694 OFFCURVE",
"148 687 OFFCURVE",
"145 672 CURVE SMOOTH",
"136 636 LINE SMOOTH",
"133 622 OFFCURVE",
"138 614 OFFCURVE",
"153 614 CURVE SMOOTH"
);
}
);
width = 537;
},
{
layerId = "60861F18-288B-4955-898F-0966625DD71B";
paths = (
{
closed = 1;
nodes = (
"399 573 LINE SMOOTH",
"412 573 OFFCURVE",
"425 574 OFFCURVE",
"438 575 CURVE",
"438 573 LINE",
"369 512 OFFCURVE",
"304 441 OFFCURVE",
"245 360 CURVE SMOOTH",
"186 279 OFFCURVE",
"141 173 OFFCURVE",
"112 42 CURVE SMOOTH",
"109 29 LINE SMOOTH",
"105 8 OFFCURVE",
"113 -3 OFFCURVE",
"134 -3 CURVE SMOOTH",
"207 -3 LINE SMOOTH",
"228 -3 OFFCURVE",
"241 8 OFFCURVE",
"246 29 CURVE SMOOTH",
"253 59 LINE SMOOTH",
"279 172 OFFCURVE",
"313 266 OFFCURVE",
"358 339 CURVE SMOOTH",
"402 413 OFFCURVE",
"465 485 OFFCURVE",
"547 555 CURVE SMOOTH",
"568 573 OFFCURVE",
"580 590 OFFCURVE",
"584 607 CURVE SMOOTH",
"597 663 LINE SMOOTH",
"602 684 OFFCURVE",
"593 694 OFFCURVE",
"572 694 CURVE SMOOTH",
"174 694 LINE SMOOTH",
"153 694 OFFCURVE",
"140 684 OFFCURVE",
"135 663 CURVE SMOOTH",
"122 605 LINE SMOOTH",
"117 584 OFFCURVE",
"125 573 OFFCURVE",
"146 573 CURVE SMOOTH"
);
}
);
width = 543;
}
);
unicode = 0037;
},
{
glyphname = eight;
lastChange = "2016-09-03 11:06:02 +0000";
layers = (
{
layerId = UUID0;
paths = (
{
closed = 1;
nodes = (
"28 110 OFFCURVE",
"46 63 OFFCURVE",
"82 32 CURVE SMOOTH",
"118 1 OFFCURVE",
"168 -15 OFFCURVE",
"231 -15 CURVE SMOOTH",
"303 -15 OFFCURVE",
"362 9 OFFCURVE",
"411 56 CURVE SMOOTH",
"459 103 OFFCURVE",
"483 159 OFFCURVE",
"483 225 CURVE SMOOTH",
"483 294 OFFCURVE",
"453 350 OFFCURVE",
"392 373 CURVE",
"392 374 LINE",
"423 378 OFFCURVE",
"456 396 OFFCURVE",
"492 427 CURVE SMOOTH",
"527 458 OFFCURVE",
"545 500 OFFCURVE",
"545 551 CURVE SMOOTH",
"545 596 OFFCURVE",
"530 633 OFFCURVE",
"500 664 CURVE SMOOTH",
"470 694 OFFCURVE",
"422 709 OFFCURVE",
"355 709 CURVE SMOOTH",
"289 709 OFFCURVE",
"234 689 OFFCURVE",
"190 650 CURVE SMOOTH",
"146 612 OFFCURVE",
"125 565 OFFCURVE",
"125 512 CURVE SMOOTH",
"125 449 OFFCURVE",
"147 410 OFFCURVE",
"197 378 CURVE",
"197 377 LINE",
"160 369 OFFCURVE",
"123 345 OFFCURVE",
"85 307 CURVE SMOOTH",
"47 268 OFFCURVE",
"28 223 OFFCURVE",
"28 171 CURVE SMOOTH"
);
},
{
closed = 1;
nodes = (
"123 216 OFFCURVE",
"139 253 OFFCURVE",
"172 286 CURVE SMOOTH",
"205 318 OFFCURVE",
"245 334 OFFCURVE",
"293 334 CURVE SMOOTH",
"329 334 OFFCURVE",
"354 322 OFFCURVE",
"367 299 CURVE SMOOTH",
"381 275 OFFCURVE",
"388 249 OFFCURVE",
"388 218 CURVE SMOOTH",
"388 174 OFFCURVE",
"373 137 OFFCURVE",
"344 105 CURVE SMOOTH",
"315 74 OFFCURVE",
"279 59 OFFCURVE",
"236 59 CURVE SMOOTH",
"156 59 OFFCURVE",
"123 100 OFFCURVE",
"123 174 CURVE SMOOTH"
);
},
{
closed = 1;
nodes = (
"216 547 OFFCURVE",
"229 572 OFFCURVE",
"255 598 CURVE SMOOTH",
"281 623 OFFCURVE",
"313 636 OFFCURVE",
"350 636 CURVE SMOOTH",
"422 636 OFFCURVE",
"454 598 OFFCURVE",
"454 541 CURVE SMOOTH",
"454 504 OFFCURVE",
"438 474 OFFCURVE",
"407 450 CURVE SMOOTH",
"376 425 OFFCURVE",
"340 413 OFFCURVE",
"300 413 CURVE SMOOTH",
"277 413 OFFCURVE",
"257 420 OFFCURVE",
"241 436 CURVE SMOOTH",
"225 451 OFFCURVE",
"216 479 OFFCURVE",
"216 521 CURVE SMOOTH"
);
}
);
width = 542;
},
{
layerId = "60861F18-288B-4955-898F-0966625DD71B";
paths = (
{
closed = 1;
nodes = (
"26 96 OFFCURVE",
"46 50 OFFCURVE",
"87 23 CURVE SMOOTH",
"127 -3 OFFCURVE",
"184 -17 OFFCURVE",
"257 -17 CURVE SMOOTH",
"346 -17 OFFCURVE",
"414 8 OFFCURVE",
"461 57 CURVE SMOOTH",
"509 106 OFFCURVE",
"533 159 OFFCURVE",
"533 216 CURVE SMOOTH",
"533 266 OFFCURVE",
"523 301 OFFCURVE",
"503 323 CURVE SMOOTH",
"483 345 OFFCURVE",
"459 362 OFFCURVE",
"433 375 CURVE",
"433 377 LINE",
"464 385 OFFCURVE",
"499 404 OFFCURVE",
"535 434 CURVE SMOOTH",
"571 463 OFFCURVE",
"589 501 OFFCURVE",
"589 548 CURVE SMOOTH",
"589 595 OFFCURVE",
"573 634 OFFCURVE",
"542 665 CURVE SMOOTH",
"510 695 OFFCURVE",
"456 711 OFFCURVE",
"378 711 CURVE SMOOTH",
"306 711 OFFCURVE",
"246 691 OFFCURVE",
"198 650 CURVE SMOOTH",
"149 610 OFFCURVE",
"125 561 OFFCURVE",
"125 500 CURVE SMOOTH",
"125 465 OFFCURVE",
"134 438 OFFCURVE",
"152 419 CURVE SMOOTH",
"171 400 OFFCURVE",
"190 386 OFFCURVE",
"211 377 CURVE",
"211 375 LINE",
"165 369 OFFCURVE",
"123 347 OFFCURVE",
"84 309 CURVE SMOOTH",
"45 271 OFFCURVE",
"26 222 OFFCURVE",
"26 162 CURVE SMOOTH"
);
},
{
closed = 1;
nodes = (
"173 217 OFFCURVE",
"186 246 OFFCURVE",
"211 273 CURVE SMOOTH",
"236 301 OFFCURVE",
"268 314 OFFCURVE",
"305 314 CURVE SMOOTH",
"361 314 OFFCURVE",
"386 276 OFFCURVE",
"386 221 CURVE SMOOTH",
"386 184 OFFCURVE",
"375 153 OFFCURVE",
"351 129 CURVE SMOOTH",
"327 105 OFFCURVE",
"299 93 OFFCURVE",
"267 93 CURVE SMOOTH",
"237 93 OFFCURVE",
"214 99 OFFCURVE",
"198 111 CURVE SMOOTH",
"181 124 OFFCURVE",
"173 148 OFFCURVE",
"173 186 CURVE SMOOTH"
);
},
{
closed = 1;
nodes = (
"268 533 OFFCURVE",
"277 556 OFFCURVE",
"297 574 CURVE SMOOTH",
"316 592 OFFCURVE",
"340 602 OFFCURVE",
"368 602 CURVE SMOOTH",
"419 602 OFFCURVE",
"447 575 OFFCURVE",
"447 534 CURVE SMOOTH",
"447 508 OFFCURVE",
"438 485 OFFCURVE",
"419 464 CURVE SMOOTH",
"400 443 OFFCURVE",
"372 433 OFFCURVE",
"333 433 CURVE SMOOTH",
"316 433 OFFCURVE",
"301 438 OFFCURVE",
"288 449 CURVE SMOOTH",
"274 459 OFFCURVE",
"268 479 OFFCURVE",
"268 505 CURVE SMOOTH"
);
}
);
width = 586;
}
);
unicode = 0038;
},
{
glyphname = nine;
lastChange = "2016-09-03 11:06:02 +0000";
layers = (
{
layerId = UUID0;
paths = (
{
closed = 1;
nodes = (
"100 383 OFFCURVE",
"116 335 OFFCURVE",
"149 303 CURVE SMOOTH",
"183 271 OFFCURVE",
"227 255 OFFCURVE",
"281 255 CURVE SMOOTH",
"311 255 OFFCURVE",
"341 262 OFFCURVE",
"372 274 CURVE SMOOTH",
"403 287 OFFCURVE",
"428 306 OFFCURVE",
"446 332 CURVE",
"447 332 LINE",
"429 252 OFFCURVE",
"400 187 OFFCURVE",
"359 135 CURVE SMOOTH",
"319 84 OFFCURVE",
"273 59 OFFCURVE",
"223 59 CURVE SMOOTH",
"173 59 OFFCURVE",
"133 74 OFFCURVE",
"116 96 CURVE SMOOTH",
"104 110 OFFCURVE",
"93 112 OFFCURVE",
"81 102 CURVE SMOOTH",
"50 78 LINE SMOOTH",
"42 71 OFFCURVE",
"44 60 OFFCURVE",
"57 45 CURVE SMOOTH",
"88 10 OFFCURVE",
"146 -15 OFFCURVE",
"212 -15 CURVE SMOOTH",
"315 -15 OFFCURVE",
"396 33 OFFCURVE",
"454 129 CURVE SMOOTH",
"512 225 OFFCURVE",
"541 340 OFFCURVE",
"541 475 CURVE SMOOTH",
"541 548 OFFCURVE",
"524 605 OFFCURVE",
"490 646 CURVE SMOOTH",
"457 688 OFFCURVE",
"409 709 OFFCURVE",
"347 709 CURVE SMOOTH",
"271 709 OFFCURVE",
"210 682 OFFCURVE",
"166 627 CURVE SMOOTH",
"122 573 OFFCURVE",
"100 513 OFFCURVE",
"100 445 CURVE SMOOTH"
);
},
{
closed = 1;
nodes = (
"195 486 OFFCURVE",
"210 531 OFFCURVE",
"239 573 CURVE SMOOTH",
"268 615 OFFCURVE",
"303 636 OFFCURVE",
"344 636 CURVE SMOOTH",
"411 636 OFFCURVE",
"449 587 OFFCURVE",
"449 507 CURVE SMOOTH",
"449 467 OFFCURVE",
"435 428 OFFCURVE",
"407 389 CURVE SMOOTH",
"380 350 OFFCURVE",
"345 330 OFFCURVE",
"302 330 CURVE SMOOTH",
"237 330 OFFCURVE",
"195 370 OFFCURVE",
"195 438 CURVE SMOOTH"
);
}
);
width = 542;
},
{
layerId = "60861F18-288B-4955-898F-0966625DD71B";
paths = (
{
closed = 1;
nodes = (
"83 377 OFFCURVE",
"98 330 OFFCURVE",
"128 294 CURVE SMOOTH",
"158 260 OFFCURVE",
"204 242 OFFCURVE",
"267 242 CURVE SMOOTH",
"293 242 OFFCURVE",
"320 247 OFFCURVE",
"349 255 CURVE SMOOTH",
"378 264 OFFCURVE",
"402 281 OFFCURVE",
"423 305 CURVE",
"425 305 LINE",
"408 232 OFFCURVE",
"381 179 OFFCURVE",
"345 145 CURVE SMOOTH",
"308 110 OFFCURVE",
"270 93 OFFCURVE",
"229 93 CURVE SMOOTH",
"190 93 OFFCURVE",
"158 99 OFFCURVE",
"123 122 CURVE SMOOTH",
"103 135 OFFCURVE",
"88 135 OFFCURVE",
"78 122 CURVE SMOOTH",
"40 73 LINE SMOOTH",
"30 60 OFFCURVE",
"33 46 OFFCURVE",
"50 32 CURVE SMOOTH",
"95 -5 OFFCURVE",
"146 -17 OFFCURVE",
"225 -17 CURVE SMOOTH",
"328 -17 OFFCURVE",
"412 28 OFFCURVE",
"477 117 CURVE SMOOTH",
"542 206 OFFCURVE",
"574 318 OFFCURVE",
"574 455 CURVE SMOOTH",
"574 543 OFFCURVE",
"558 608 OFFCURVE",
"525 649 CURVE",
"494 690 OFFCURVE",
"442 711 OFFCURVE",
"370 711 CURVE SMOOTH",
"288 711 OFFCURVE",
"219 685 OFFCURVE",
"165 631 CURVE SMOOTH",
"110 579 OFFCURVE",
"83 514 OFFCURVE",
"83 438 CURVE SMOOTH"
);
},
{
closed = 1;
nodes = (
"230 474 OFFCURVE",
"242 515 OFFCURVE",
"266 550 CURVE SMOOTH",
"290 584 OFFCURVE",
"319 602 OFFCURVE",
"352 602 CURVE SMOOTH",
"375 602 OFFCURVE",
"395 594 OFFCURVE",
"410 580 CURVE",
"426 565 OFFCURVE",
"434 541 OFFCURVE",
"434 507 CURVE SMOOTH",
"434 470 OFFCURVE",
"423 435 OFFCURVE",
"400 401 CURVE SMOOTH",
"377 368 OFFCURVE",
"346 352 OFFCURVE",
"306 352 CURVE SMOOTH",
"287 352 OFFCURVE",
"269 357 OFFCURVE",
"253 369 CURVE SMOOTH",
"238 381 OFFCURVE",
"230 400 OFFCURVE",
"230 426 CURVE SMOOTH"
);
}
);
width = 586;
}
);
unicode = 0039;
},
{
glyphname = less;
lastChange = "2016-09-03 11:06:02 +0000";
layers = (
{
layerId = UUID0;
paths = (
{
closed = 1;
nodes = (
"551 66 LINE SMOOTH",
"564 59 OFFCURVE",
"573 60 OFFCURVE",
"579 70 CURVE SMOOTH",
"591 91 LINE SMOOTH",
"597 101 OFFCURVE",
"594 109 OFFCURVE",
"581 117 CURVE SMOOTH",
"161 358 LINE",
"161 359 LINE",
"581 601 LINE SMOOTH",
"594 608 OFFCURVE",
"597 617 OFFCURVE",
"591 627 CURVE SMOOTH",
"579 648 LINE SMOOTH",
"573 658 OFFCURVE",
"564 659 OFFCURVE",
"551 652 CURVE SMOOTH",
"86 383 LINE",
"78 379 OFFCURVE",
"74 373 OFFCURVE",
"74 367 CURVE SMOOTH",
"74 351 LINE SMOOTH",
"74 345 OFFCURVE",
"78 339 OFFCURVE",
"86 334 CURVE"
);
}
);
width = 625;
},
{
layerId = "60861F18-288B-4955-898F-0966625DD71B";
paths = (
{
closed = 1;
nodes = (
"545 65 LINE SMOOTH",
"562 56 OFFCURVE",
"575 59 OFFCURVE",
"583 73 CURVE SMOOTH",
"601 107 LINE SMOOTH",
"608 122 OFFCURVE",
"604 133 OFFCURVE",
"586 143 CURVE SMOOTH",
"179 358 LINE",
"179 359 LINE",
"586 575 LINE SMOOTH",
"604 584 OFFCURVE",
"608 596 OFFCURVE",
"601 610 CURVE SMOOTH",
"583 645 LINE SMOOTH",
"575 659 OFFCURVE",
"562 662 OFFCURVE",
"545 653 CURVE SMOOTH",
"85 408 LINE SMOOTH",
"72 401 OFFCURVE",
"66 393 OFFCURVE",
"66 381 CURVE SMOOTH",
"66 336 LINE SMOOTH",
"66 325 OFFCURVE",
"72 316 OFFCURVE",
"85 310 CURVE SMOOTH"
);
}
);
width = 648;
}
);
unicode = 003C;
},
{
glyphname = greater;
lastChange = "2016-09-03 11:06:02 +0000";
layers = (
{
layerId = UUID0;
paths = (
{
closed = 1;
nodes = (
"101 70 LINE SMOOTH",
"106 60 OFFCURVE",
"116 59 OFFCURVE",
"128 66 CURVE SMOOTH",
"593 334 LINE",
"602 339 OFFCURVE",
"605 345 OFFCURVE",
"605 351 CURVE SMOOTH",
"605 367 LINE SMOOTH",
"605 373 OFFCURVE",
"602 379 OFFCURVE",
"593 383 CURVE",
"128 652 LINE SMOOTH",
"116 659 OFFCURVE",
"106 658 OFFCURVE",
"101 648 CURVE SMOOTH",
"88 627 LINE SMOOTH",
"83 617 OFFCURVE",
"86 608 OFFCURVE",
"99 601 CURVE SMOOTH",
"519 359 LINE",
"519 358 LINE",
"99 117 LINE SMOOTH",
"86 109 OFFCURVE",
"83 101 OFFCURVE",
"88 91 CURVE SMOOTH"
);
}
);
width = 625;
},
{
layerId = "60861F18-288B-4955-898F-0966625DD71B";
paths = (
{
closed = 1;
nodes = (
"88 73 LINE SMOOTH",
"96 59 OFFCURVE",
"109 56 OFFCURVE",
"126 65 CURVE SMOOTH",
"585 310 LINE SMOOTH",
"599 316 OFFCURVE",
"605 325 OFFCURVE",
"605 336 CURVE SMOOTH",
"605 381 LINE SMOOTH",
"605 393 OFFCURVE",
"599 401 OFFCURVE",
"585 408 CURVE SMOOTH",
"126 653 LINE SMOOTH",
"109 662 OFFCURVE",
"96 659 OFFCURVE",
"88 645 CURVE SMOOTH",
"70 610 LINE SMOOTH",
"63 596 OFFCURVE",
"67 584 OFFCURVE",
"84 575 CURVE SMOOTH",
"492 359 LINE",
"492 358 LINE",
"84 143 LINE SMOOTH",
"67 133 OFFCURVE",
"63 122 OFFCURVE",
"70 107 CURVE SMOOTH"
);
}
);
width = 648;
}
);
unicode = 003E;
},
{
glyphname = question;
lastChange = "2016-09-03 11:06:02 +0000";
layers = (
{
layerId = UUID0;
paths = (
{
closed = 1;
nodes = (
"174 552 LINE",
"187 544 OFFCURVE",
"198 549 OFFCURVE",
"207 566 CURVE SMOOTH",
"216 583 OFFCURVE",
"233 600 OFFCURVE",
"259 617 CURVE SMOOTH",
"285 633 OFFCURVE",
"312 642 OFFCURVE",
"341 642 CURVE SMOOTH",
"367 642 OFFCURVE",
"389 636 OFFCURVE",
"406 624 CURVE SMOOTH",
"423 612 OFFCURVE",
"432 590 OFFCURVE",
"432 559 CURVE SMOOTH",
"432 519 OFFCURVE",
"397 467 OFFCURVE",
"328 403 CURVE SMOOTH",
"258 339 OFFCURVE",
"217 278 OFFCURVE",
"205 221 CURVE SMOOTH",
"201 203 LINE SMOOTH",
"197 188 OFFCURVE",
"203 181 OFFCURVE",
"217 181 CURVE SMOOTH",
"259 181 LINE SMOOTH",
"274 181 OFFCURVE",
"283 188 OFFCURVE",
"287 203 CURVE SMOOTH",
"289 214 LINE SMOOTH",
"298 254 OFFCURVE",
"340 308 OFFCURVE",
"415 375 CURVE SMOOTH",
"490 442 OFFCURVE",
"528 501 OFFCURVE",
"528 553 CURVE SMOOTH",
"528 663 OFFCURVE",
"473 715 OFFCURVE",
"344 715 CURVE SMOOTH",
"291 715 OFFCURVE",
"247 704 OFFCURVE",
"213 682 CURVE SMOOTH",
"179 660 OFFCURVE",
"155 637 OFFCURVE",
"141 613 CURVE SMOOTH",
"129 591 OFFCURVE",
"128 578 OFFCURVE",
"139 571 CURVE SMOOTH"
);
},
{
closed = 1;
nodes = (
"224 0 LINE",
"238 0 OFFCURVE",
"247 7 OFFCURVE",
"250 22 CURVE SMOOTH",
"265 82 LINE SMOOTH",
"268 96 OFFCURVE",
"262 104 OFFCURVE",
"248 104 CURVE SMOOTH",
"193 104 LINE SMOOTH",
"178 104 OFFCURVE",
"169 96 OFFCURVE",
"166 82 CURVE SMOOTH",
"152 22 LINE SMOOTH",
"148 7 OFFCURVE",
"154 0 OFFCURVE",
"169 0 CURVE SMOOTH"
);
}
);
width = 496;
},
{
layerId = "60861F18-288B-4955-898F-0966625DD71B";
paths = (
{
closed = 1;
nodes = (
"168 530 LINE",
"182 518 OFFCURVE",
"197 521 OFFCURVE",
"212 540 CURVE SMOOTH",
"227 558 OFFCURVE",
"245 574 OFFCURVE",
"267 587 CURVE SMOOTH",
"289 601 OFFCURVE",
"311 607 OFFCURVE",
"334 607 CURVE SMOOTH",
"389 607 OFFCURVE",
"408 583 OFFCURVE",
"408 554 CURVE SMOOTH",
"408 516 OFFCURVE",
"376 473 OFFCURVE",
"313 426 CURVE SMOOTH",
"249 380 OFFCURVE",
"208 320 OFFCURVE",
"191 248 CURVE SMOOTH",
"188 233 LINE SMOOTH",
"183 212 OFFCURVE",
"191 202 OFFCURVE",
"212 202 CURVE SMOOTH",
"286 202 LINE SMOOTH",
"307 202 OFFCURVE",
"319 212 OFFCURVE",
"325 233 CURVE SMOOTH",
"327 241 LINE SMOOTH",
"337 285 OFFCURVE",
"378 333 OFFCURVE",
"449 385 CURVE SMOOTH",
"520 437 OFFCURVE",
"555 497 OFFCURVE",
"555 565 CURVE SMOOTH",
"555 619 OFFCURVE",
"536 658 OFFCURVE",
"497 681 CURVE SMOOTH",
"458 705 OFFCURVE",
"408 717 OFFCURVE",
"344 717 CURVE SMOOTH",
"289 717 OFFCURVE",
"243 706 OFFCURVE",
"207 685 CURVE SMOOTH",
"170 664 OFFCURVE",
"142 642 OFFCURVE",
"120 618 CURVE SMOOTH",
"104 602 OFFCURVE",
"107 585 OFFCURVE",
"126 568 CURVE SMOOTH"
);
},
{
closed = 1;
nodes = (
"240 0 LINE",
"263 0 OFFCURVE",
"277 12 OFFCURVE",
"282 37 CURVE SMOOTH",
"297 102 LINE SMOOTH",
"303 126 OFFCURVE",
"295 139 OFFCURVE",
"272 139 CURVE SMOOTH",
"198 139 LINE SMOOTH",
"175 139 OFFCURVE",
"160 126 OFFCURVE",
"155 102 CURVE SMOOTH",
"140 37 LINE SMOOTH",
"134 12 OFFCURVE",
"143 0 OFFCURVE",
"166 0 CURVE SMOOTH"
);
}
);
width = 540;
}
);
unicode = 003F;
},
{
glyphname = at;
lastChange = "2016-09-03 11:06:02 +0000";
layers = (
{
layerId = UUID0;
paths = (
{
closed = 1;
nodes = (
"59 137 OFFCURVE",
"102 32 OFFCURVE",
"188 -46 CURVE SMOOTH",
"275 -124 OFFCURVE",
"377 -162 OFFCURVE",
"494 -162 CURVE SMOOTH",
"554 -162 OFFCURVE",
"610 -152 OFFCURVE",
"662 -132 CURVE SMOOTH",
"714 -112 OFFCURVE",
"766 -83 OFFCURVE",
"819 -45 CURVE SMOOTH",
"828 -40 OFFCURVE",
"830 -33 OFFCURVE",
"824 -25 CURVE SMOOTH",
"805 1 LINE SMOOTH",
"800 9 OFFCURVE",
"793 9 OFFCURVE",
"784 1 CURVE SMOOTH",
"699 -67 OFFCURVE",
"596 -104 OFFCURVE",
"498 -104 CURVE SMOOTH",
"394 -104 OFFCURVE",
"304 -70 OFFCURVE",
"229 -2 CURVE SMOOTH",
"155 66 OFFCURVE",
"118 154 OFFCURVE",
"118 262 CURVE SMOOTH",
"118 385 OFFCURVE",
"157 483 OFFCURVE",
"235 554 CURVE SMOOTH",
"313 625 OFFCURVE",
"407 661 OFFCURVE",
"519 661 CURVE SMOOTH",
"616 661 OFFCURVE",
"697 633 OFFCURVE",
"760 579 CURVE SMOOTH",
"823 525 OFFCURVE",
"854 449 OFFCURVE",
"854 350 CURVE SMOOTH",
"854 264 OFFCURVE",
"837 204 OFFCURVE",
"802 167 CURVE SMOOTH",
"768 131 OFFCURVE",
"727 113 OFFCURVE",
"679 113 CURVE SMOOTH",
"665 113 OFFCURVE",
"653 117 OFFCURVE",
"645 125 CURVE SMOOTH",
"636 133 OFFCURVE",
"635 154 OFFCURVE",
"643 186 CURVE SMOOTH",
"707 474 LINE SMOOTH",
"709 485 OFFCURVE",
"705 491 OFFCURVE",
"693 491 CURVE SMOOTH",
"640 491 LINE SMOOTH",
"628 491 OFFCURVE",
"622 486 OFFCURVE",
"619 475 CURVE SMOOTH",
"608 423 LINE",
"606 423 LINE",
"592 480 OFFCURVE",
"553 509 OFFCURVE",
"491 509 CURVE SMOOTH",
"427 509 OFFCURVE",
"374 479 OFFCURVE",
"331 418 CURVE SMOOTH",
"288 358 OFFCURVE",
"267 295 OFFCURVE",
"267 228 CURVE SMOOTH",
"267 175 OFFCURVE",
"280 132 OFFCURVE",
"306 101 CURVE SMOOTH",
"333 70 OFFCURVE",
"368 54 OFFCURVE",
"412 54 CURVE SMOOTH",
"441 54 OFFCURVE",
"471 65 OFFCURVE",
"501 86 CURVE SMOOTH",
"531 108 OFFCURVE",
"552 133 OFFCURVE",
"564 162 CURVE",
"565 162 LINE",
"565 127 OFFCURVE",
"571 101 OFFCURVE",
"583 82 CURVE SMOOTH",
"595 63 OFFCURVE",
"622 54 OFFCURVE",
"664 54 CURVE SMOOTH",
"739 54 OFFCURVE",
"799 80 OFFCURVE",
"845 130 CURVE SMOOTH",
"891 181 OFFCURVE",
"914 254 OFFCURVE",
"914 350 CURVE SMOOTH",
"914 480 OFFCURVE",
"873 574 OFFCURVE",
"791 632 CURVE SMOOTH",
"708 690 OFFCURVE",
"617 719 OFFCURVE",
"518 719 CURVE SMOOTH",
"381 719 OFFCURVE",
"270 675 OFFCURVE",
"186 587 CURVE SMOOTH",
"101 499 OFFCURVE",
"59 393 OFFCURVE",
"59 269 CURVE SMOOTH"
);
},
{
closed = 1;
nodes = (
"350 280 OFFCURVE",
"365 334 OFFCURVE",
"394 381 CURVE SMOOTH",
"423 428 OFFCURVE",
"459 451 OFFCURVE",
"503 451 CURVE SMOOTH",
"529 451 OFFCURVE",
"549 441 OFFCURVE",
"562 420 CURVE SMOOTH",
"575 399 OFFCURVE",
"582 377 OFFCURVE",
"582 355 CURVE SMOOTH",
"582 329 OFFCURVE",
"580 305 OFFCURVE",
"575 284 CURVE SMOOTH",
"569 263 OFFCURVE",
"553 229 OFFCURVE",
"524 182 CURVE SMOOTH",
"496 136 OFFCURVE",
"465 113 OFFCURVE",
"432 113 CURVE SMOOTH",
"406 113 OFFCURVE",
"386 120 OFFCURVE",
"372 135 CURVE SMOOTH",
"357 150 OFFCURVE",
"350 178 OFFCURVE",
"350 218 CURVE SMOOTH"
);
}
);
width = 973;
},
{
layerId = "60861F18-288B-4955-898F-0966625DD71B";
paths = (
{
closed = 1;
nodes = (
"55 146 OFFCURVE",
"98 39 OFFCURVE",
"185 -46 CURVE SMOOTH",
"272 -132 OFFCURVE",
"381 -175 OFFCURVE",
"513 -175 CURVE SMOOTH",
"558 -175 OFFCURVE",
"608 -169 OFFCURVE",
"666 -159 CURVE SMOOTH",
"723 -149 OFFCURVE",
"775 -129 OFFCURVE",
"824 -101 CURVE SMOOTH",
"838 -92 OFFCURVE",
"840 -82 OFFCURVE",
"832 -68 CURVE SMOOTH",
"801 -23 LINE",
"797 -16 OFFCURVE",
"787 -16 OFFCURVE",
"772 -24 CURVE SMOOTH",
"726 -50 OFFCURVE",
"684 -67 OFFCURVE",
"646 -75 CURVE SMOOTH",
"610 -82 OFFCURVE",
"567 -86 OFFCURVE",
"518 -86 CURVE SMOOTH",
"409 -86 OFFCURVE",
"320 -52 OFFCURVE",
"250 17 CURVE SMOOTH",
"181 85 OFFCURVE",
"146 172 OFFCURVE",
"146 278 CURVE SMOOTH",
"146 383 OFFCURVE",
"182 470 OFFCURVE",
"251 540 CURVE SMOOTH",
"322 609 OFFCURVE",
"411 644 OFFCURVE",
"519 644 CURVE SMOOTH",
"628 644 OFFCURVE",
"713 615 OFFCURVE",
"774 559 CURVE SMOOTH",
"835 503 OFFCURVE",
"866 424 OFFCURVE",
"866 323 CURVE SMOOTH",
"866 263 OFFCURVE",
"852 216 OFFCURVE",
"822 185 CURVE SMOOTH",
"793 153 OFFCURVE",
"755 137 OFFCURVE",
"708 137 CURVE SMOOTH",
"676 137 OFFCURVE",
"673 157 OFFCURVE",
"684 206 CURVE SMOOTH",
"743 466 LINE SMOOTH",
"747 483 OFFCURVE",
"740 491 OFFCURVE",
"724 491 CURVE SMOOTH",
"656 491 LINE SMOOTH",
"640 491 OFFCURVE",
"630 483 OFFCURVE",
"627 468 CURVE SMOOTH",
"620 438 LINE",
"618 438 LINE",
"602 485 OFFCURVE",
"570 509 OFFCURVE",
"525 509 CURVE SMOOTH",
"457 509 OFFCURVE",
"398 482 OFFCURVE",
"349 429 CURVE SMOOTH",
"300 375 OFFCURVE",
"275 312 OFFCURVE",
"275 238 CURVE SMOOTH",
"275 169 OFFCURVE",
"291 121 OFFCURVE",
"322 92 CURVE SMOOTH",
"353 63 OFFCURVE",
"388 49 OFFCURVE",
"426 49 CURVE SMOOTH",
"464 49 OFFCURVE",
"495 57 OFFCURVE",
"517 72 CURVE SMOOTH",
"539 87 OFFCURVE",
"560 107 OFFCURVE",
"580 132 CURVE",
"581 132 LINE",
"588 99 OFFCURVE",
"603 76 OFFCURVE",
"623 65 CURVE SMOOTH",
"643 54 OFFCURVE",
"669 49 OFFCURVE",
"703 49 CURVE SMOOTH",
"779 49 OFFCURVE",
"841 74 OFFCURVE",
"888 124 CURVE SMOOTH",
"935 173 OFFCURVE",
"958 246 OFFCURVE",
"958 342 CURVE SMOOTH",
"958 464 OFFCURVE",
"917 560 OFFCURVE",
"833 629 CURVE SMOOTH",
"750 698 OFFCURVE",
"646 732 OFFCURVE",
"519 732 CURVE SMOOTH",
"381 732 OFFCURVE",
"269 689 OFFCURVE",
"183 602 CURVE SMOOTH",
"98 514 OFFCURVE",
"55 406 OFFCURVE",
"55 275 CURVE SMOOTH"
);
},
{
closed = 1;
nodes = (
"394 282 OFFCURVE",
"408 335 OFFCURVE",
"438 370 CURVE SMOOTH",
"467 404 OFFCURVE",
"497 421 OFFCURVE",
"527 421 CURVE SMOOTH",
"544 421 OFFCURVE",
"559 414 OFFCURVE",
"571 398 CURVE SMOOTH",
"583 383 OFFCURVE",
"588 365 OFFCURVE",
"588 344 CURVE SMOOTH",
"588 326 OFFCURVE",
"587 306 OFFCURVE",
"584 284 CURVE SMOOTH",
"579 249 OFFCURVE",
"563 215 OFFCURVE",
"537 184 CURVE SMOOTH",
"510 152 OFFCURVE",
"481 137 OFFCURVE",
"451 137 CURVE SMOOTH",
"416 137 OFFCURVE",
"394 168 OFFCURVE",
"394 211 CURVE SMOOTH"
);
}
);
width = 1013;
}
);
unicode = 0040;
},
{
glyphname = A;
lastChange = "2016-09-03 11:06:02 +0000";
layers = (
{
anchors = (
{
name = mark0;
position = "{552, 0}";
},
{
name = mark1;
position = "{273, 0}";
},
{
name = mark2;
position = "{424, 715}";
}
);
layerId = UUID0;
paths = (
{
closed = 1;
nodes = (
"51 0 LINE",
"68 0 OFFCURVE",
"82 8 OFFCURVE",
"91 24 CURVE SMOOTH",
"187 186 LINE",
"487 186 LINE",
"515 24 LINE",
"517 8 OFFCURVE",
"527 0 OFFCURVE",
"544 0 CURVE SMOOTH",
"589 0 LINE SMOOTH",
"606 0 OFFCURVE",
"613 11 OFFCURVE",
"609 32 CURVE",
"499 670 LINE SMOOTH",
"496 690 OFFCURVE",
"487 700 OFFCURVE",
"474 700 CURVE SMOOTH",
"405 700 LINE SMOOTH",
"391 700 OFFCURVE",
"378 690 OFFCURVE",
"366 670 CURVE SMOOTH",
"-10 32 LINE SMOOTH",
"-22 11 OFFCURVE",
"-21 0 OFFCURVE",
"-4 0 CURVE SMOOTH"
);
},
{
closed = 1;
nodes = (
"349 461 LINE",
"386 525 OFFCURVE",
"411 569 OFFCURVE",
"422 616 CURVE",
"424 616 LINE",
"424 592 OFFCURVE",
"426 565 OFFCURVE",
"428 538 CURVE SMOOTH",
"431 510 OFFCURVE",
"434 484 OFFCURVE",
"438 461 CURVE SMOOTH",
"473 266 LINE",
"234 266 LINE"
);
}
);
width = 664;
},
{
anchors = (
{
name = mark0;
position = "{550, 0}";
},
{
name = mark1;
position = "{281, 0}";
},
{
name = mark2;
position = "{435, 717}";
}
);
layerId = "60861F18-288B-4955-898F-0966625DD71B";
paths = (
{
closed = 1;
nodes = (
"73 0 LINE SMOOTH",
"94 0 OFFCURVE",
"112 11 OFFCURVE",
"125 34 CURVE SMOOTH",
"203 165 LINE",
"451 165 LINE",
"473 34 LINE",
"476 11 OFFCURVE",
"489 0 OFFCURVE",
"510 0 CURVE SMOOTH",
"578 0 LINE SMOOTH",
"602 0 OFFCURVE",
"611 11 OFFCURVE",
"608 32 CURVE SMOOTH",
"502 661 LINE SMOOTH",
"498 687 OFFCURVE",
"485 700 OFFCURVE",
"465 700 CURVE SMOOTH",
"396 700 LINE SMOOTH",
"376 700 OFFCURVE",
"358 687 OFFCURVE",
"342 661 CURVE SMOOTH",
"-31 32 LINE SMOOTH",
"-43 11 OFFCURVE",
"-38 0 OFFCURVE",
"-15 0 CURVE SMOOTH"
);
},
{
closed = 1;
nodes = (
"367 441 LINE SMOOTH",
"378 460 OFFCURVE",
"385 474 OFFCURVE",
"388 482 CURVE SMOOTH",
"392 490 OFFCURVE",
"396 502 OFFCURVE",
"401 518 CURVE",
"403 518 LINE",
"401 502 OFFCURVE",
"400 489 OFFCURVE",
"400 479 CURVE SMOOTH",
"400 469 OFFCURVE",
"401 457 OFFCURVE",
"404 441 CURVE SMOOTH",
"431 286 LINE",
"274 286 LINE"
);
}
);
width = 681;
}
);
unicode = 0041;
},
{
glyphname = B;
lastChange = "2016-09-03 11:06:02 +0000";
layers = (
{
anchors = (
{
name = mark0;
position = "{0, 0}";
},
{
name = mark1;
position = "{265, 0}";
},
{
name = mark2;
position = "{430, 715}";
}
);
layerId = UUID0;
paths = (
{
closed = 1;
nodes = (
"285 0 LINE",
"397 0 OFFCURVE",
"478 21 OFFCURVE",
"527 64 CURVE SMOOTH",
"576 107 OFFCURVE",
"601 156 OFFCURVE",
"601 210 CURVE SMOOTH",
"601 255 OFFCURVE",
"587 290 OFFCURVE",
"561 315 CURVE SMOOTH",
"535 341 OFFCURVE",
"505 358 OFFCURVE",
"472 365 CURVE",
"472 366 LINE",
"518 376 OFFCURVE",
"557 394 OFFCURVE",
"587 421 CURVE SMOOTH",
"619 448 OFFCURVE",
"634 484 OFFCURVE",
"634 529 CURVE SMOOTH",
"634 578 OFFCURVE",
"617 618 OFFCURVE",
"583 651 CURVE SMOOTH",
"548 684 OFFCURVE",
"486 700 OFFCURVE",
"397 700 CURVE SMOOTH",
"217 700 LINE SMOOTH",
"201 700 OFFCURVE",
"190 691 OFFCURVE",
"186 673 CURVE SMOOTH",
"37 27 LINE SMOOTH",
"33 9 OFFCURVE",
"39 0 OFFCURVE",
"55 0 CURVE SMOOTH"
);
},
{
closed = 1;
nodes = (
"199 324 LINE",
"314 324 LINE SMOOTH",
"372 324 OFFCURVE",
"417 316 OFFCURVE",
"450 299 CURVE SMOOTH",
"484 282 OFFCURVE",
"500 254 OFFCURVE",
"500 214 CURVE SMOOTH",
"500 128 OFFCURVE",
"424 80 OFFCURVE",
"288 80 CURVE SMOOTH",
"143 80 LINE"
);
},
{
closed = 1;
nodes = (
"268 620 LINE",
"380 620 LINE SMOOTH",
"438 620 OFFCURVE",
"479 613 OFFCURVE",
"503 598 CURVE SMOOTH",
"527 583 OFFCURVE",
"539 559 OFFCURVE",
"539 525 CURVE SMOOTH",
"539 488 OFFCURVE",
"519 457 OFFCURVE",
"478 432 CURVE SMOOTH",
"438 407 OFFCURVE",
"395 395 OFFCURVE",
"348 395 CURVE SMOOTH",
"216 395 LINE"
);
}
);
width = 653;
},
{
anchors = (
{
name = mark0;
position = "{0, 0}";
},
{
name = mark1;
position = "{271, 0}";
},
{
name = mark2;
position = "{437, 717}";
}
);
layerId = "60861F18-288B-4955-898F-0966625DD71B";
paths = (
{
closed = 1;
nodes = (
"259 0 LINE",
"374 0 OFFCURVE",
"461 20 OFFCURVE",
"521 60 CURVE SMOOTH",
"582 99 OFFCURVE",
"611 148 OFFCURVE",
"611 207 CURVE SMOOTH",
"611 258 OFFCURVE",
"596 296 OFFCURVE",
"565 321 CURVE SMOOTH",
"535 347 OFFCURVE",
"500 361 OFFCURVE",
"463 365 CURVE",
"463 366 LINE",
"502 370 OFFCURVE",
"542 384 OFFCURVE",
"583 410 CURVE SMOOTH",
"623 436 OFFCURVE",
"644 475 OFFCURVE",
"644 525 CURVE SMOOTH",
"644 578 OFFCURVE",
"623 620 OFFCURVE",
"583 652 CURVE SMOOTH",
"542 684 OFFCURVE",
"473 700 OFFCURVE",
"376 700 CURVE SMOOTH",
"220 700 LINE SMOOTH",
"194 700 OFFCURVE",
"178 688 OFFCURVE",
"173 664 CURVE SMOOTH",
"28 37 LINE SMOOTH",
"22 12 OFFCURVE",
"33 0 OFFCURVE",
"59 0 CURVE SMOOTH"
);
},
{
closed = 1;
nodes = (
"232 302 LINE",
"293 302 LINE SMOOTH",
"354 302 OFFCURVE",
"397 296 OFFCURVE",
"422 284 CURVE SMOOTH",
"447 271 OFFCURVE",
"459 250 OFFCURVE",
"459 221 CURVE SMOOTH",
"459 183 OFFCURVE",
"446 157 OFFCURVE",
"421 142 CURVE SMOOTH",
"396 126 OFFCURVE",
"345 119 OFFCURVE",
"271 119 CURVE SMOOTH",
"189 119 LINE"
);
},
{
closed = 1;
nodes = (
"296 581 LINE",
"351 581 LINE SMOOTH",
"407 581 OFFCURVE",
"446 576 OFFCURVE",
"467 567 CURVE SMOOTH",
"488 558 OFFCURVE",
"499 541 OFFCURVE",
"499 516 CURVE SMOOTH",
"499 488 OFFCURVE",
"484 465 OFFCURVE",
"455 446 CURVE SMOOTH",
"425 427 OFFCURVE",
"384 417 OFFCURVE",
"332 417 CURVE SMOOTH",
"258 417 LINE"
);
}
);
width = 673;
}
);
unicode = 0042;
},
{
glyphname = C;
lastChange = "2016-09-03 11:06:02 +0000";
layers = (
{
anchors = (
{
name = mark0;
position = "{0, 0}";
},
{
name = mark1;
position = "{350, 0}";
},
{
name = mark2;
position = "{443, 715}";
}
);
layerId = UUID0;
paths = (
{
closed = 1;
nodes = (
"54 197 OFFCURVE",
"78 125 OFFCURVE",
"126 69 CURVE SMOOTH",
"175 13 OFFCURVE",
"249 -15 OFFCURVE",
"347 -15 CURVE SMOOTH",
"417 -15 OFFCURVE",
"475 -2 OFFCURVE",
"518 22 CURVE SMOOTH",
"562 47 OFFCURVE",
"596 79 OFFCURVE",
"622 116 CURVE SMOOTH",
"635 135 OFFCURVE",
"637 148 OFFCURVE",
"626 155 CURVE SMOOTH",
"582 184 LINE SMOOTH",
"570 191 OFFCURVE",
"558 186 OFFCURVE",
"544 167 CURVE SMOOTH",
"527 143 OFFCURVE",
"503 120 OFFCURVE",
"472 96 CURVE SMOOTH",
"441 73 OFFCURVE",
"404 62 OFFCURVE",
"360 62 CURVE SMOOTH",
"285 62 OFFCURVE",
"232 82 OFFCURVE",
"201 122 CURVE SMOOTH",
"169 163 OFFCURVE",
"154 213 OFFCURVE",
"154 272 CURVE SMOOTH",
"154 397 OFFCURVE",
"180 490 OFFCURVE",
"233 549 CURVE SMOOTH",
"287 609 OFFCURVE",
"354 639 OFFCURVE",
"435 639 CURVE SMOOTH",
"479 639 OFFCURVE",
"514 629 OFFCURVE",
"540 609 CURVE SMOOTH",
"565 589 OFFCURVE",
"583 570 OFFCURVE",
"593 553 CURVE SMOOTH",
"601 539 OFFCURVE",
"609 534 OFFCURVE",
"618 539 CURVE SMOOTH",
"656 562 LINE SMOOTH",
"671 570 OFFCURVE",
"675 583 OFFCURVE",
"667 601 CURVE SMOOTH",
"637 669 OFFCURVE",
"563 715 OFFCURVE",
"443 715 CURVE SMOOTH",
"321 715 OFFCURVE",
"225 675 OFFCURVE",
"156 595 CURVE SMOOTH",
"88 516 OFFCURVE",
"54 412 OFFCURVE",
"54 283 CURVE SMOOTH"
);
}
);
width = 680;
},
{
anchors = (
{
name = mark0;
position = "{0, 0}";
},
{
name = mark1;
position = "{363, 0}";
},
{
name = mark2;
position = "{436, 717}";
}
);
layerId = "60861F18-288B-4955-898F-0966625DD71B";
paths = (
{
closed = 1;
nodes = (
"49 185 OFFCURVE",
"76 108 OFFCURVE",
"131 58 CURVE SMOOTH",
"186 8 OFFCURVE",
"262 -17 OFFCURVE",
"359 -17 CURVE SMOOTH",
"425 -17 OFFCURVE",
"480 -5 OFFCURVE",
"526 19 CURVE SMOOTH",
"572 42 OFFCURVE",
"607 72 OFFCURVE",
"632 108 CURVE SMOOTH",
"646 129 OFFCURVE",
"644 145 OFFCURVE",
"624 156 CURVE SMOOTH",
"562 190 LINE SMOOTH",
"546 198 OFFCURVE",
"530 191 OFFCURVE",
"513 167 CURVE SMOOTH",
"486 130 OFFCURVE",
"440 99 OFFCURVE",
"370 99 CURVE SMOOTH",
"308 99 OFFCURVE",
"265 115 OFFCURVE",
"239 146 CURVE SMOOTH",
"214 179 OFFCURVE",
"201 219 OFFCURVE",
"201 269 CURVE SMOOTH",
"201 366 OFFCURVE",
"221 445 OFFCURVE",
"262 508 CURVE SMOOTH",
"302 570 OFFCURVE",
"356 602 OFFCURVE",
"425 602 CURVE SMOOTH",
"449 602 OFFCURVE",
"473 596 OFFCURVE",
"497 585 CURVE SMOOTH",
"521 575 OFFCURVE",
"542 559 OFFCURVE",
"558 537 CURVE SMOOTH",
"574 515 OFFCURVE",
"590 509 OFFCURVE",
"605 520 CURVE SMOOTH",
"666 560 LINE SMOOTH",
"684 572 OFFCURVE",
"687 589 OFFCURVE",
"674 611 CURVE SMOOTH",
"656 641 OFFCURVE",
"626 666 OFFCURVE",
"585 686 CURVE SMOOTH",
"544 707 OFFCURVE",
"494 717 OFFCURVE",
"436 717 CURVE SMOOTH",
"309 717 OFFCURVE",
"213 673 OFFCURVE",
"147 587 CURVE SMOOTH",
"82 500 OFFCURVE",
"49 400 OFFCURVE",
"49 287 CURVE SMOOTH"
);
}
);
width = 686;
}
);
unicode = 0043;
},
{
glyphname = D;
lastChange = "2016-09-03 11:06:02 +0000";
layers = (
{
anchors = (
{
name = mark0;
position = "{0, 0}";
},
{
name = mark1;
position = "{287, 0}";
},
{
name = mark2;
position = "{452, 715}";
}
);
layerId = UUID0;
paths = (
{
closed = 1;
nodes = (
"260 0 LINE",
"405 0 OFFCURVE",
"511 42 OFFCURVE",
"580 124 CURVE SMOOTH",
"648 207 OFFCURVE",
"682 303 OFFCURVE",
"682 414 CURVE SMOOTH",
"682 491 OFFCURVE",
"660 558 OFFCURVE",
"615 615 CURVE SMOOTH",
"570 672 OFFCURVE",
"489 700 OFFCURVE",
"373 700 CURVE SMOOTH",
"217 700 LINE SMOOTH",
"201 700 OFFCURVE",
"190 691 OFFCURVE",
"186 673 CURVE SMOOTH",
"37 27 LINE SMOOTH",
"33 9 OFFCURVE",
"39 0 OFFCURVE",
"55 0 CURVE SMOOTH"
);
},
{
closed = 1;
nodes = (
"268 621 LINE",
"350 621 LINE SMOOTH",
"452 621 OFFCURVE",
"516 602 OFFCURVE",
"542 563 CURVE SMOOTH",
"569 523 OFFCURVE",
"582 476 OFFCURVE",
"582 420 CURVE SMOOTH",
"582 332 OFFCURVE",
"558 252 OFFCURVE",
"509 184 CURVE SMOOTH",
"460 115 OFFCURVE",
"382 80 OFFCURVE",
"274 80 CURVE SMOOTH",
"143 80 LINE"
);
}
);
width = 687;
},
{
anchors = (
{
name = mark0;
position = "{0, 0}";
},
{
name = mark1;
position = "{291, 0}";
},
{
name = mark2;
position = "{457, 717}";
}
);
layerId = "60861F18-288B-4955-898F-0966625DD71B";
paths = (
{
closed = 1;
nodes = (
"239 0 LINE",
"391 0 OFFCURVE",
"504 38 OFFCURVE",
"578 115 CURVE SMOOTH",
"651 191 OFFCURVE",
"688 289 OFFCURVE",
"688 406 CURVE SMOOTH",
"688 495 OFFCURVE",
"663 566 OFFCURVE",
"612 620 CURVE SMOOTH",
"562 673 OFFCURVE",
"478 700 OFFCURVE",
"361 700 CURVE SMOOTH",
"215 700 LINE SMOOTH",
"192 700 OFFCURVE",
"178 688 OFFCURVE",
"173 664 CURVE SMOOTH",
"28 37 LINE SMOOTH",
"22 12 OFFCURVE",
"31 0 OFFCURVE",
"54 0 CURVE SMOOTH"
);
},
{
closed = 1;
nodes = (
"296 580 LINE",
"334 580 LINE SMOOTH",
"421 580 OFFCURVE",
"476 565 OFFCURVE",
"500 535 CURVE SMOOTH",
"524 505 OFFCURVE",
"536 466 OFFCURVE",
"536 416 CURVE SMOOTH",
"536 324 OFFCURVE",
"514 251 OFFCURVE",
"470 199 CURVE SMOOTH",
"426 147 OFFCURVE",
"355 121 OFFCURVE",
"257 121 CURVE SMOOTH",
"190 121 LINE"
);
}
);
width = 685;
}
);
unicode = 0044;
},
{
glyphname = E;
lastChange = "2016-09-03 11:06:02 +0000";
layers = (
{
anchors = (
{
name = mark0;
position = "{271, 0}";
},
{
name = mark1;
position = "{271, 0}";
},
{
name = mark2;
position = "{436, 715}";
}
);
layerId = UUID0;
paths = (
{
closed = 1;
nodes = (
"497 0 LINE SMOOTH",
"515 0 OFFCURVE",
"525 7 OFFCURVE",
"529 22 CURVE SMOOTH",
"537 58 LINE SMOOTH",
"541 73 OFFCURVE",
"534 80 OFFCURVE",
"516 80 CURVE SMOOTH",
"143 80 LINE",
"199 323 LINE",
"528 323 LINE SMOOTH",
"546 323 OFFCURVE",
"556 331 OFFCURVE",
"560 345 CURVE SMOOTH",
"568 381 LINE SMOOTH",
"571 396 OFFCURVE",
"564 403 OFFCURVE",
"546 403 CURVE SMOOTH",
"218 403 LINE",
"268 620 LINE",
"625 620 LINE SMOOTH",
"644 620 OFFCURVE",
"654 627 OFFCURVE",
"658 642 CURVE SMOOTH",
"666 678 LINE SMOOTH",
"669 693 OFFCURVE",
"662 700 OFFCURVE",
"644 700 CURVE SMOOTH",
"217 700 LINE SMOOTH",
"201 700 OFFCURVE",
"190 691 OFFCURVE",
"186 673 CURVE SMOOTH",
"37 27 LINE SMOOTH",
"33 9 OFFCURVE",
"39 0 OFFCURVE",
"55 0 CURVE SMOOTH"
);
}
);
width = 620;
},
{
anchors = (
{
name = mark0;
position = "{272, 0}";
},
{
name = mark1;
position = "{272, 0}";
},
{
name = mark2;
position = "{438, 717}";
}
);
layerId = "60861F18-288B-4955-898F-0966625DD71B";
paths = (
{
closed = 1;
nodes = (
"488 0 LINE SMOOTH",
"513 0 OFFCURVE",
"527 11 OFFCURVE",
"532 32 CURVE SMOOTH",
"545 89 LINE SMOOTH",
"550 110 OFFCURVE",
"541 121 OFFCURVE",
"516 121 CURVE SMOOTH",
"190 121 LINE",
"232 303 LINE",
"517 303 LINE SMOOTH",
"541 303 OFFCURVE",
"556 313 OFFCURVE",
"561 334 CURVE SMOOTH",
"574 392 LINE SMOOTH",
"579 413 OFFCURVE",
"569 424 OFFCURVE",
"544 424 CURVE SMOOTH",
"260 424 LINE",
"296 579 LINE",
"606 579 LINE SMOOTH",
"631 579 OFFCURVE",
"646 590 OFFCURVE",
"650 611 CURVE SMOOTH",
"664 668 LINE SMOOTH",
"668 689 OFFCURVE",
"659 700 OFFCURVE",
"634 700 CURVE SMOOTH",
"215 700 LINE SMOOTH",
"192 700 OFFCURVE",
"178 688 OFFCURVE",
"173 664 CURVE SMOOTH",
"28 37 LINE SMOOTH",
"22 12 OFFCURVE",
"31 0 OFFCURVE",
"54 0 CURVE SMOOTH"
);
}
);
width = 625;
}
);
unicode = 0045;
},
{
glyphname = F;
lastChange = "2016-09-03 11:06:02 +0000";
layers = (
{
anchors = (
{
name = mark0;
position = "{0, 0}";
},
{
name = mark1;
position = "{249, 0}";
},
{
name = mark2;
position = "{414, 715}";
}
);
layerId = UUID0;
paths = (
{
closed = 1;
nodes = (
"100 0 LINE SMOOTH",
"116 0 OFFCURVE",
"126 9 OFFCURVE",
"131 27 CURVE SMOOTH",
"196 309 LINE",
"482 309 LINE SMOOTH",
"500 309 OFFCURVE",
"511 316 OFFCURVE",
"514 331 CURVE SMOOTH",
"522 367 LINE SMOOTH",
"526 381 OFFCURVE",
"519 389 OFFCURVE",
"501 389 CURVE SMOOTH",
"214 389 LINE",
"268 620 LINE",
"596 620 LINE SMOOTH",
"614 620 OFFCURVE",
"625 627 OFFCURVE",
"628 642 CURVE SMOOTH",
"637 678 LINE SMOOTH",
"640 693 OFFCURVE",
"633 700 OFFCURVE",
"615 700 CURVE SMOOTH",
"217 700 LINE SMOOTH",
"201 700 OFFCURVE",
"190 691 OFFCURVE",
"186 673 CURVE SMOOTH",
"37 27 LINE SMOOTH",
"33 9 OFFCURVE",
"39 0 OFFCURVE",
"55 0 CURVE SMOOTH"
);
}
);
width = 569;
},
{
anchors = (
{
name = mark0;
position = "{0, 0}";
},
{
name = mark1;
position = "{248, 0}";
},
{
name = mark2;
position = "{414, 717}";
}
);
layerId = "60861F18-288B-4955-898F-0966625DD71B";
paths = (
{
closed = 1;
nodes = (
"128 0 LINE SMOOTH",
"151 0 OFFCURVE",
"165 12 OFFCURVE",
"170 37 CURVE SMOOTH",
"229 288 LINE",
"466 288 LINE SMOOTH",
"491 288 OFFCURVE",
"505 299 OFFCURVE",
"510 320 CURVE SMOOTH",
"523 377 LINE SMOOTH",
"528 398 OFFCURVE",
"519 409 OFFCURVE",
"494 409 CURVE SMOOTH",
"256 409 LINE",
"296 579 LINE",
"574 579 LINE SMOOTH",
"598 579 OFFCURVE",
"613 590 OFFCURVE",
"618 611 CURVE SMOOTH",
"631 668 LINE SMOOTH",
"636 689 OFFCURVE",
"626 700 OFFCURVE",
"602 700 CURVE SMOOTH",
"215 700 LINE SMOOTH",
"192 700 OFFCURVE",
"178 688 OFFCURVE",
"173 664 CURVE SMOOTH",
"28 37 LINE SMOOTH",
"22 12 OFFCURVE",
"31 0 OFFCURVE",
"54 0 CURVE SMOOTH"
);
}
);
width = 574;
}
);
unicode = 0046;
},
{
glyphname = G;
lastChange = "2016-09-03 11:06:02 +0000";
layers = (
{
anchors = (
{
name = mark0;
position = "{0, 0}";
},
{
name = mark1;
position = "{350, 0}";
},
{
name = mark2;
position = "{447, 715}";
}
);
layerId = UUID0;
paths = (
{
closed = 1;
nodes = (
"54 197 OFFCURVE",
"78 125 OFFCURVE",
"126 69 CURVE SMOOTH",
"175 13 OFFCURVE",
"249 -15 OFFCURVE",
"347 -15 CURVE SMOOTH",
"411 -15 OFFCURVE",
"464 -8 OFFCURVE",
"506 5 CURVE SMOOTH",
"547 18 OFFCURVE",
"591 42 OFFCURVE",
"638 77 CURVE",
"691 307 LINE SMOOTH",
"694 322 OFFCURVE",
"688 329 OFFCURVE",
"669 329 CURVE SMOOTH",
"458 329 LINE SMOOTH",
"439 329 OFFCURVE",
"429 322 OFFCURVE",
"425 307 CURVE SMOOTH",
"417 271 LINE SMOOTH",
"414 256 OFFCURVE",
"421 249 OFFCURVE",
"439 249 CURVE SMOOTH",
"584 249 LINE",
"556 128 LINE",
"539 110 OFFCURVE",
"513 94 OFFCURVE",
"477 81 CURVE SMOOTH",
"441 68 OFFCURVE",
"402 62 OFFCURVE",
"360 62 CURVE SMOOTH",
"285 62 OFFCURVE",
"232 82 OFFCURVE",
"201 122 CURVE SMOOTH",
"169 163 OFFCURVE",
"154 213 OFFCURVE",
"154 272 CURVE SMOOTH",
"154 397 OFFCURVE",
"180 490 OFFCURVE",
"233 549 CURVE SMOOTH",
"287 609 OFFCURVE",
"355 639 OFFCURVE",
"439 639 CURVE SMOOTH",
"485 639 OFFCURVE",
"522 628 OFFCURVE",
"549 608 CURVE SMOOTH",
"577 588 OFFCURVE",
"594 572 OFFCURVE",
"603 558 CURVE SMOOTH",
"611 543 OFFCURVE",
"619 539 OFFCURVE",
"628 545 CURVE SMOOTH",
"666 570 LINE SMOOTH",
"680 580 OFFCURVE",
"683 593 OFFCURVE",
"675 609 CURVE SMOOTH",
"661 637 OFFCURVE",
"635 661 OFFCURVE",
"598 683 CURVE SMOOTH",
"561 704 OFFCURVE",
"510 715 OFFCURVE",
"447 715 CURVE SMOOTH",
"322 715 OFFCURVE",
"225 675 OFFCURVE",
"156 595 CURVE SMOOTH",
"88 516 OFFCURVE",
"54 412 OFFCURVE",
"54 283 CURVE SMOOTH"
);
}
);
width = 718;
},
{
anchors = (
{
name = mark0;
position = "{0, 0}";
},
{
name = mark1;
position = "{368, 0}";
},
{
name = mark2;
position = "{440, 717}";
}
);
layerId = "60861F18-288B-4955-898F-0966625DD71B";
paths = (
{
closed = 1;
nodes = (
"49 185 OFFCURVE",
"77 108 OFFCURVE",
"133 58 CURVE",
"190 8 OFFCURVE",
"267 -17 OFFCURVE",
"364 -17 CURVE SMOOTH",
"416 -17 OFFCURVE",
"466 -8 OFFCURVE",
"515 8 CURVE SMOOTH",
"564 24 OFFCURVE",
"609 44 OFFCURVE",
"649 67 CURVE",
"708 322 LINE SMOOTH",
"713 343 OFFCURVE",
"703 354 OFFCURVE",
"679 354 CURVE SMOOTH",
"467 354 LINE SMOOTH",
"442 354 OFFCURVE",
"428 343 OFFCURVE",
"423 322 CURVE SMOOTH",
"410 264 LINE SMOOTH",
"405 243 OFFCURVE",
"415 232 OFFCURVE",
"439 232 CURVE SMOOTH",
"545 232 LINE",
"526 152 LINE",
"485 121 OFFCURVE",
"435 99 OFFCURVE",
"374 99 CURVE SMOOTH",
"306 99 OFFCURVE",
"261 115 OFFCURVE",
"237 146 CURVE SMOOTH",
"213 179 OFFCURVE",
"201 219 OFFCURVE",
"201 269 CURVE SMOOTH",
"201 375 OFFCURVE",
"221 457 OFFCURVE",
"261 515 CURVE SMOOTH",
"301 573 OFFCURVE",
"357 602 OFFCURVE",
"430 602 CURVE SMOOTH",
"454 602 OFFCURVE",
"479 597 OFFCURVE",
"504 588 CURVE SMOOTH",
"530 579 OFFCURVE",
"552 563 OFFCURVE",
"568 542 CURVE SMOOTH",
"584 520 OFFCURVE",
"600 514 OFFCURVE",
"615 524 CURVE SMOOTH",
"675 565 LINE SMOOTH",
"694 577 OFFCURVE",
"697 594 OFFCURVE",
"684 616 CURVE SMOOTH",
"666 646 OFFCURVE",
"635 670 OFFCURVE",
"592 688 CURVE SMOOTH",
"550 708 OFFCURVE",
"499 717 OFFCURVE",
"440 717 CURVE SMOOTH",
"310 717 OFFCURVE",
"212 675 OFFCURVE",
"146 590 CURVE SMOOTH",
"82 506 OFFCURVE",
"49 405 OFFCURVE",
"49 287 CURVE SMOOTH"
);
}
);
width = 737;
}
);
unicode = 0047;
},
{
glyphname = H;
lastChange = "2016-09-03 11:06:02 +0000";
layers = (
{
anchors = (
{
name = mark0;
position = "{0, 0}";
},
{
name = mark1;
position = "{288, 0}";
},
{
name = mark2;
position = "{453, 715}";
}
);
layerId = UUID0;
paths = (
{
closed = 1;
nodes = (
"100 0 LINE SMOOTH",
"116 0 OFFCURVE",
"126 9 OFFCURVE",
"131 27 CURVE SMOOTH",
"199 324 LINE",
"540 324 LINE",
"472 27 LINE SMOOTH",
"467 9 OFFCURVE",
"474 0 OFFCURVE",
"490 0 CURVE SMOOTH",
"535 0 LINE SMOOTH",
"551 0 OFFCURVE",
"561 9 OFFCURVE",
"565 27 CURVE SMOOTH",
"714 673 LINE SMOOTH",
"719 691 OFFCURVE",
"712 700 OFFCURVE",
"696 700 CURVE SMOOTH",
"651 700 LINE SMOOTH",
"635 700 OFFCURVE",
"625 691 OFFCURVE",
"621 673 CURVE SMOOTH",
"559 404 LINE",
"218 404 LINE",
"280 673 LINE SMOOTH",
"284 691 OFFCURVE",
"278 700 OFFCURVE",
"262 700 CURVE SMOOTH",
"217 700 LINE SMOOTH",
"201 700 OFFCURVE",
"190 691 OFFCURVE",
"186 673 CURVE SMOOTH",
"37 27 LINE SMOOTH",
"33 9 OFFCURVE",
"39 0 OFFCURVE",
"55 0 CURVE SMOOTH"
);
}
);
width = 694;
},
{
anchors = (
{
name = mark0;
position = "{0, 0}";
},
{
name = mark1;
position = "{293, 0}";
},
{
name = mark2;
position = "{458, 717}";
}
);
layerId = "60861F18-288B-4955-898F-0966625DD71B";
paths = (
{
closed = 1;
nodes = (
"128 0 LINE SMOOTH",
"151 0 OFFCURVE",
"165 12 OFFCURVE",
"170 37 CURVE SMOOTH",
"232 304 LINE",
"495 304 LINE",
"433 37 LINE SMOOTH",
"428 12 OFFCURVE",
"436 0 OFFCURVE",
"459 0 CURVE SMOOTH",
"533 0 LINE SMOOTH",
"556 0 OFFCURVE",
"570 12 OFFCURVE",
"576 37 CURVE SMOOTH",
"721 664 LINE SMOOTH",
"726 688 OFFCURVE",
"718 700 OFFCURVE",
"695 700 CURVE SMOOTH",
"621 700 LINE SMOOTH",
"598 700 OFFCURVE",
"583 688 OFFCURVE",
"578 664 CURVE SMOOTH",
"523 425 LINE",
"260 425 LINE",
"315 664 LINE SMOOTH",
"321 688 OFFCURVE",
"313 700 OFFCURVE",
"290 700 CURVE SMOOTH",
"215 700 LINE SMOOTH",
"192 700 OFFCURVE",
"178 688 OFFCURVE",
"173 664 CURVE SMOOTH",
"28 37 LINE SMOOTH",
"22 12 OFFCURVE",
"31 0 OFFCURVE",
"54 0 CURVE SMOOTH"
);
}
);
width = 704;
}
);
unicode = 0048;
},
{
glyphname = I;
lastChange = "2016-09-03 11:06:02 +0000";
layers = (
{
anchors = (
{
name = mark0;
position = "{71, 0}";
},
{
name = mark1;
position = "{71, 0}";
},
{
name = mark2;
position = "{236, 715}";
}
);
layerId = UUID0;
paths = (
{
closed = 1;
nodes = (
"100 0 LINE SMOOTH",
"116 0 OFFCURVE",
"126 9 OFFCURVE",
"131 27 CURVE SMOOTH",
"280 673 LINE SMOOTH",
"284 691 OFFCURVE",
"278 700 OFFCURVE",
"262 700 CURVE SMOOTH",
"217 700 LINE SMOOTH",
"201 700 OFFCURVE",
"190 691 OFFCURVE",
"186 673 CURVE SMOOTH",
"37 27 LINE SMOOTH",
"33 9 OFFCURVE",
"39 0 OFFCURVE",
"55 0 CURVE SMOOTH"
);
}
);
width = 260;
},
{
anchors = (
{
name = mark0;
position = "{91, 0}";
},
{
name = mark1;
position = "{90, 0}";
},
{
name = mark2;
position = "{256, 717}";
}
);
layerId = "60861F18-288B-4955-898F-0966625DD71B";
paths = (
{
closed = 1;
nodes = (
"128 0 LINE SMOOTH",
"151 0 OFFCURVE",
"165 12 OFFCURVE",
"170 37 CURVE SMOOTH",
"315 664 LINE SMOOTH",
"321 688 OFFCURVE",
"313 700 OFFCURVE",
"290 700 CURVE SMOOTH",
"215 700 LINE SMOOTH",
"192 700 OFFCURVE",
"178 688 OFFCURVE",
"173 664 CURVE SMOOTH",
"28 37 LINE SMOOTH",
"22 12 OFFCURVE",
"31 0 OFFCURVE",
"54 0 CURVE SMOOTH"
);
}
);
width = 299;
}
);
unicode = 0049;
},
{
glyphname = J;
lastChange = "2016-09-03 11:06:02 +0000";
layers = (
{
anchors = (
{
name = mark0;
position = "{0, 0}";
},
{
name = mark1;
position = "{112, 0}";
},
{
name = mark2;
position = "{378, 715}";
}
);
layerId = UUID0;
paths = (
{
closed = 1;
nodes = (
"24 -5 OFFCURVE",
"59 -15 OFFCURVE",
"96 -15 CURVE SMOOTH",
"170 -15 OFFCURVE",
"223 6 OFFCURVE",
"252 47 CURVE SMOOTH",
"282 89 OFFCURVE",
"304 139 OFFCURVE",
"317 196 CURVE SMOOTH",
"427 673 LINE SMOOTH",
"431 691 OFFCURVE",
"425 700 OFFCURVE",
"409 700 CURVE SMOOTH",
"364 700 LINE SMOOTH",
"348 700 OFFCURVE",
"337 691 OFFCURVE",
"333 673 CURVE SMOOTH",
"220 185 LINE SMOOTH",
"202 105 OFFCURVE",
"168 62 OFFCURVE",
"105 62 CURVE SMOOTH",
"85 62 OFFCURVE",
"64 70 OFFCURVE",
"41 87 CURVE SMOOTH",
"25 100 OFFCURVE",
"12 98 OFFCURVE",
"4 81 CURVE SMOOTH",
"-14 46 LINE SMOOTH",
"-21 32 OFFCURVE",
"-19 21 OFFCURVE",
"-7 14 CURVE SMOOTH"
);
}
);
width = 402;
},
{
anchors = (
{
name = mark0;
position = "{0, 0}";
},
{
name = mark1;
position = "{146, 0}";
},
{
name = mark2;
position = "{419, 717}";
}
);
layerId = "60861F18-288B-4955-898F-0966625DD71B";
paths = (
{
closed = 1;
nodes = (
"17 -7 OFFCURVE",
"55 -17 OFFCURVE",
"101 -17 CURVE SMOOTH",
"173 -17 OFFCURVE",
"232 1 OFFCURVE",
"278 36 CURVE SMOOTH",
"323 72 OFFCURVE",
"360 149 OFFCURVE",
"388 269 CURVE SMOOTH",
"479 664 LINE SMOOTH",
"484 688 OFFCURVE",
"476 700 OFFCURVE",
"453 700 CURVE SMOOTH",
"379 700 LINE SMOOTH",
"356 700 OFFCURVE",
"342 688 OFFCURVE",
"336 664 CURVE SMOOTH",
"243 259 LINE SMOOTH",
"230 205 OFFCURVE",
"215 164 OFFCURVE",
"196 138 CURVE SMOOTH",
"177 112 OFFCURVE",
"149 99 OFFCURVE",
"111 99 CURVE SMOOTH",
"88 99 OFFCURVE",
"66 105 OFFCURVE",
"45 119 CURVE SMOOTH",
"22 133 OFFCURVE",
"8 131 OFFCURVE",
"1 113 CURVE SMOOTH",
"-23 47 LINE SMOOTH",
"-29 31 OFFCURVE",
"-26 19 OFFCURVE",
"-13 11 CURVE SMOOTH"
);
}
);
width = 462;
}
);
unicode = 004A;
},
{
glyphname = K;
lastChange = "2016-09-03 11:06:02 +0000";
layers = (
{
anchors = (
{
name = mark0;
position = "{0, 0}";
},
{
name = mark1;
position = "{297, 0}";
},
{
name = mark2;
position = "{462, 715}";
}
);
layerId = UUID0;
paths = (
{
closed = 1;
nodes = (
"100 0 LINE SMOOTH",
"116 0 OFFCURVE",
"126 9 OFFCURVE",
"131 27 CURVE SMOOTH",
"178 230 LINE",
"326 353 LINE",
"476 19 LINE SMOOTH",
"482 6 OFFCURVE",
"492 0 OFFCURVE",
"506 0 CURVE SMOOTH",
"558 0 LINE SMOOTH",
"579 0 OFFCURVE",
"584 11 OFFCURVE",
"574 32 CURVE SMOOTH",
"401 415 LINE",
"708 668 LINE SMOOTH",
"734 689 OFFCURVE",
"733 700 OFFCURVE",
"707 700 CURVE SMOOTH",
"637 700 LINE SMOOTH",
"626 700 OFFCURVE",
"613 694 OFFCURVE",
"598 681 CURVE SMOOTH",
"208 358 LINE",
"206 358 LINE",
"211 377 OFFCURVE",
"215 390 OFFCURVE",
"216 397 CURVE SMOOTH",
"280 673 LINE SMOOTH",
"284 691 OFFCURVE",
"278 700 OFFCURVE",
"262 700 CURVE SMOOTH",
"217 700 LINE SMOOTH",
"201 700 OFFCURVE",
"190 691 OFFCURVE",
"186 673 CURVE SMOOTH",
"37 27 LINE SMOOTH",
"33 9 OFFCURVE",
"39 0 OFFCURVE",
"55 0 CURVE SMOOTH"
);
}
);
width = 648;
},
{
anchors = (
{
name = mark0;
position = "{0, 0}";
},
{
name = mark1;
position = "{304, 0}";
},
{
name = mark2;
position = "{469, 717}";
}
);
layerId = "60861F18-288B-4955-898F-0966625DD71B";
paths = (
{
closed = 1;
nodes = (
"128 0 LINE SMOOTH",
"151 0 OFFCURVE",
"165 12 OFFCURVE",
"170 37 CURVE SMOOTH",
"212 216 LINE",
"329 318 LINE",
"446 29 LINE SMOOTH",
"454 10 OFFCURVE",
"466 0 OFFCURVE",
"483 0 CURVE SMOOTH",
"559 0 LINE SMOOTH",
"589 0 OFFCURVE",
"599 14 OFFCURVE",
"587 42 CURVE SMOOTH",
"437 413 LINE",
"716 658 LINE SMOOTH",
"748 686 OFFCURVE",
"745 700 OFFCURVE",
"708 700 CURVE SMOOTH",
"590 700 LINE SMOOTH",
"578 700 OFFCURVE",
"561 690 OFFCURVE",
"539 671 CURVE SMOOTH",
"259 426 LINE",
"255 426 LINE",
"263 446 OFFCURVE",
"270 466 OFFCURVE",
"274 485 CURVE SMOOTH",
"315 664 LINE SMOOTH",
"321 688 OFFCURVE",
"313 700 OFFCURVE",
"290 700 CURVE SMOOTH",
"215 700 LINE SMOOTH",
"192 700 OFFCURVE",
"178 688 OFFCURVE",
"173 664 CURVE SMOOTH",
"28 37 LINE SMOOTH",
"22 12 OFFCURVE",
"31 0 OFFCURVE",
"54 0 CURVE SMOOTH"
);
}
);
width = 665;
}
);
unicode = 004B;
},
{
glyphname = L;
lastChange = "2016-09-03 11:06:02 +0000";
layers = (
{
anchors = (
{
name = mark0;
position = "{0, 0}";
},
{
name = mark1;
position = "{247, 0}";
},
{
name = mark2;
position = "{412, 715}";
}
);
layerId = UUID0;
paths = (
{
closed = 1;
nodes = (
"448 0 LINE SMOOTH",
"466 0 OFFCURVE",
"477 7 OFFCURVE",
"480 22 CURVE SMOOTH",
"488 58 LINE SMOOTH",
"492 73 OFFCURVE",
"485 80 OFFCURVE",
"467 80 CURVE SMOOTH",
"143 80 LINE",
"280 673 LINE SMOOTH",
"284 691 OFFCURVE",
"278 700 OFFCURVE",
"262 700 CURVE SMOOTH",
"217 700 LINE SMOOTH",
"201 700 OFFCURVE",
"190 691 OFFCURVE",
"186 673 CURVE SMOOTH",
"37 27 LINE SMOOTH",
"33 9 OFFCURVE",
"39 0 OFFCURVE",
"55 0 CURVE SMOOTH"
);
}
);
width = 555;
},
{
anchors = (
{
name = mark0;
position = "{0, 0}";
},
{
name = mark1;
position = "{251, 0}";
},
{
name = mark2;
position = "{417, 717}";
}
);
layerId = "60861F18-288B-4955-898F-0966625DD71B";
paths = (
{
closed = 1;
nodes = (
"447 0 LINE SMOOTH",
"471 0 OFFCURVE",
"486 11 OFFCURVE",
"491 32 CURVE SMOOTH",
"504 89 LINE SMOOTH",
"509 110 OFFCURVE",
"499 121 OFFCURVE",
"475 121 CURVE SMOOTH",
"190 121 LINE",
"315 664 LINE SMOOTH",
"321 688 OFFCURVE",
"314 700 OFFCURVE",
"294 700 CURVE SMOOTH",
"215 700 LINE SMOOTH",
"192 700 OFFCURVE",
"178 688 OFFCURVE",
"173 664 CURVE SMOOTH",
"28 37 LINE SMOOTH",
"22 12 OFFCURVE",
"31 0 OFFCURVE",
"54 0 CURVE SMOOTH"
);
}
);
width = 567;
}
);
unicode = 004C;
},
{
glyphname = M;
lastChange = "2016-09-03 11:06:02 +0000";
layers = (
{
anchors = (
{
name = mark0;
position = "{0, 0}";
},
{
name = mark1;
position = "{358, 0}";
},
{
name = mark2;
position = "{523, 715}";
}
);
layerId = UUID0;
paths = (
{
closed = 1;
nodes = (
"100 0 LINE SMOOTH",
"116 0 OFFCURVE",
"126 9 OFFCURVE",
"131 27 CURVE SMOOTH",
"249 539 LINE SMOOTH",
"251 551 OFFCURVE",
"254 564 OFFCURVE",
"257 578 CURVE",
"259 578 LINE",
"313 30 LINE SMOOTH",
"314 10 OFFCURVE",
"323 0 OFFCURVE",
"338 0 CURVE SMOOTH",
"392 0 LINE SMOOTH",
"407 0 OFFCURVE",
"419 10 OFFCURVE",
"431 30 CURVE SMOOTH",
"737 578 LINE",
"739 578 LINE",
"736 567 OFFCURVE",
"733 554 OFFCURVE",
"729 539 CURVE SMOOTH",
"611 27 LINE SMOOTH",
"607 9 OFFCURVE",
"613 0 OFFCURVE",
"629 0 CURVE SMOOTH",
"674 0 LINE SMOOTH",
"690 0 OFFCURVE",
"701 9 OFFCURVE",
"705 27 CURVE SMOOTH",
"854 673 LINE SMOOTH",
"858 691 OFFCURVE",
"852 700 OFFCURVE",
"836 700 CURVE SMOOTH",
"726 700 LINE SMOOTH",
"714 700 OFFCURVE",
"702 690 OFFCURVE",
"691 671 CURVE SMOOTH",
"451 233 LINE SMOOTH",
"421 178 OFFCURVE",
"401 142 OFFCURVE",
"384 101 CURVE",
"381 101 LINE",
"381 140 OFFCURVE",
"379 180 OFFCURVE",
"375 233 CURVE SMOOTH",
"336 671 LINE SMOOTH",
"334 690 OFFCURVE",
"327 700 OFFCURVE",
"315 700 CURVE SMOOTH",
"217 700 LINE SMOOTH",
"201 700 OFFCURVE",
"190 691 OFFCURVE",
"186 673 CURVE SMOOTH",
"37 27 LINE SMOOTH",
"33 9 OFFCURVE",
"39 0 OFFCURVE",
"55 0 CURVE SMOOTH"
);
}
);
width = 834;
},
{
anchors = (
{
name = mark0;
position = "{0, 0}";
},
{
name = mark1;
position = "{387, 0}";
},
{
name = mark2;
position = "{553, 717}";
}
);
layerId = "60861F18-288B-4955-898F-0966625DD71B";
paths = (
{
closed = 1;
nodes = (
"128 0 LINE SMOOTH",
"151 0 OFFCURVE",
"165 12 OFFCURVE",
"170 37 CURVE SMOOTH",
"264 440 LINE SMOOTH",
"268 460 OFFCURVE",
"272 479 OFFCURVE",
"275 499 CURVE",
"278 499 LINE",
"313 40 LINE SMOOTH",
"315 13 OFFCURVE",
"326 0 OFFCURVE",
"346 0 CURVE SMOOTH",
"429 0 LINE SMOOTH",
"449 0 OFFCURVE",
"466 13 OFFCURVE",
"480 40 CURVE SMOOTH",
"728 499 LINE",
"731 499 LINE",
"725 479 OFFCURVE",
"719 459 OFFCURVE",
"715 440 CURVE SMOOTH",
"622 37 LINE SMOOTH",
"616 12 OFFCURVE",
"625 0 OFFCURVE",
"647 0 CURVE SMOOTH",
"722 0 LINE SMOOTH",
"745 0 OFFCURVE",
"759 12 OFFCURVE",
"764 37 CURVE SMOOTH",
"909 664 LINE SMOOTH",
"915 688 OFFCURVE",
"906 700 OFFCURVE",
"883 700 CURVE SMOOTH",
"735 700 LINE SMOOTH",
"716 700 OFFCURVE",
"700 687 OFFCURVE",
"686 661 CURVE SMOOTH",
"454 233 LINE SMOOTH",
"444 214 OFFCURVE",
"436 199 OFFCURVE",
"431 187 CURVE SMOOTH",
"427 175 OFFCURVE",
"421 161 OFFCURVE",
"416 145 CURVE",
"413 145 LINE",
"415 161 OFFCURVE",
"416 175 OFFCURVE",
"417 186 CURVE SMOOTH",
"417 197 OFFCURVE",
"417 213 OFFCURVE",
"415 233 CURVE SMOOTH",
"382 661 LINE SMOOTH",
"380 687 OFFCURVE",
"369 700 OFFCURVE",
"350 700 CURVE SMOOTH",
"215 700 LINE SMOOTH",
"192 700 OFFCURVE",
"178 688 OFFCURVE",
"173 664 CURVE SMOOTH",
"28 37 LINE SMOOTH",
"22 12 OFFCURVE",
"31 0 OFFCURVE",
"54 0 CURVE SMOOTH"
);
}
);
width = 893;
}
);
unicode = 004D;
},
{
glyphname = N;
lastChange = "2016-09-03 11:06:02 +0000";
layers = (
{
anchors = (
{
name = mark0;
position = "{0, 0}";
},
{
name = mark1;
position = "{292, 0}";
},
{
name = mark2;
position = "{457, 715}";
}
);
layerId = UUID0;
paths = (
{
closed = 1;
nodes = (
"100 0 LINE SMOOTH",
"116 0 OFFCURVE",
"126 9 OFFCURVE",
"131 27 CURVE SMOOTH",
"248 535 LINE SMOOTH",
"250 546 OFFCURVE",
"253 560 OFFCURVE",
"256 574 CURVE",
"258 574 LINE",
"459 24 LINE SMOOTH",
"465 8 OFFCURVE",
"479 0 OFFCURVE",
"502 0 CURVE SMOOTH",
"542 0 LINE SMOOTH",
"559 0 OFFCURVE",
"569 9 OFFCURVE",
"573 27 CURVE SMOOTH",
"722 673 LINE SMOOTH",
"727 691 OFFCURVE",
"720 700 OFFCURVE",
"704 700 CURVE SMOOTH",
"659 700 LINE SMOOTH",
"643 700 OFFCURVE",
"633 691 OFFCURVE",
"628 673 CURVE SMOOTH",
"519 197 LINE SMOOTH",
"517 186 OFFCURVE",
"514 173 OFFCURVE",
"511 158 CURVE",
"509 158 LINE",
"319 676 LINE SMOOTH",
"313 692 OFFCURVE",
"299 700 OFFCURVE",
"276 700 CURVE SMOOTH",
"217 700 LINE SMOOTH",
"201 700 OFFCURVE",
"190 691 OFFCURVE",
"186 673 CURVE SMOOTH",
"37 27 LINE SMOOTH",
"33 9 OFFCURVE",
"39 0 OFFCURVE",
"55 0 CURVE SMOOTH"
);
}
);
width = 702;
},
{
anchors = (
{
name = mark0;
position = "{0, 0}";
},
{
name = mark1;
position = "{300, 0}";
},
{
name = mark2;
position = "{466, 717}";
}
);
layerId = "60861F18-288B-4955-898F-0966625DD71B";
paths = (
{
closed = 1;
nodes = (
"128 0 LINE SMOOTH",
"151 0 OFFCURVE",
"165 12 OFFCURVE",
"170 37 CURVE SMOOTH",
"253 394 LINE SMOOTH",
"257 413 OFFCURVE",
"261 433 OFFCURVE",
"264 452 CURVE",
"268 452 LINE",
"431 34 LINE SMOOTH",
"440 11 OFFCURVE",
"459 0 OFFCURVE",
"487 0 CURVE SMOOTH",
"548 0 LINE SMOOTH",
"571 0 OFFCURVE",
"585 12 OFFCURVE",
"590 37 CURVE SMOOTH",
"735 664 LINE SMOOTH",
"741 688 OFFCURVE",
"732 700 OFFCURVE",
"709 700 CURVE SMOOTH",
"635 700 LINE SMOOTH",
"612 700 OFFCURVE",
"598 688 OFFCURVE",
"593 664 CURVE SMOOTH",
"512 314 LINE SMOOTH",
"508 295 OFFCURVE",
"504 275 OFFCURVE",
"501 256 CURVE",
"498 256 LINE",
"337 666 LINE SMOOTH",
"328 689 OFFCURVE",
"309 700 OFFCURVE",
"281 700 CURVE SMOOTH",
"215 700 LINE SMOOTH",
"192 700 OFFCURVE",
"178 688 OFFCURVE",
"173 664 CURVE SMOOTH",
"28 37 LINE SMOOTH",
"22 12 OFFCURVE",
"31 0 OFFCURVE",
"54 0 CURVE SMOOTH"
);
}
);
width = 719;
}
);
unicode = 004E;
},
{
glyphname = O;
lastChange = "2016-09-03 11:06:02 +0000";
layers = (
{
anchors = (
{
name = mark0;
position = "{358, 0}";
},
{
name = mark1;
position = "{358, 0}";
},
{
name = mark2;
position = "{429, 715}";
}
);
layerId = UUID0;
paths = (
{
closed = 1;
nodes = (
"54 190 OFFCURVE",
"79 118 OFFCURVE",
"130 64 CURVE SMOOTH",
"181 12 OFFCURVE",
"256 -15 OFFCURVE",
"355 -15 CURVE SMOOTH",
"466 -15 OFFCURVE",
"556 25 OFFCURVE",
"625 104 CURVE SMOOTH",
"695 182 OFFCURVE",
"730 287 OFFCURVE",
"730 417 CURVE SMOOTH",
"730 510 OFFCURVE",
"705 583 OFFCURVE",
"654 635 CURVE SMOOTH",
"603 688 OFFCURVE",
"528 715 OFFCURVE",
"429 715 CURVE SMOOTH",
"318 715 OFFCURVE",
"228 675 OFFCURVE",
"158 597 CURVE SMOOTH",
"88 518 OFFCURVE",
"54 414 OFFCURVE",
"54 283 CURVE SMOOTH"
);
},
{
closed = 1;
nodes = (
"154 397 OFFCURVE",
"181 489 OFFCURVE",
"235 549 CURVE SMOOTH",
"289 609 OFFCURVE",
"352 639 OFFCURVE",
"423 639 CURVE SMOOTH",
"560 639 OFFCURVE",
"630 562 OFFCURVE",
"630 429 CURVE SMOOTH",
"630 303 OFFCURVE",
"603 211 OFFCURVE",
"549 151 CURVE SMOOTH",
"495 91 OFFCURVE",
"432 62 OFFCURVE",
"360 62 CURVE SMOOTH",
"224 62 OFFCURVE",
"154 138 OFFCURVE",
"154 271 CURVE SMOOTH"
);
}
);
width = 739;
},
{
anchors = (
{
name = mark0;
position = "{366, 0}";
},
{
name = mark1;
position = "{366, 0}";
},
{
name = mark2;
position = "{430, 717}";
}
);
layerId = "60861F18-288B-4955-898F-0966625DD71B";
paths = (
{
closed = 1;
nodes = (
"51 186 OFFCURVE",
"78 110 OFFCURVE",
"133 59 CURVE SMOOTH",
"188 9 OFFCURVE",
"265 -17 OFFCURVE",
"362 -17 CURVE SMOOTH",
"476 -17 OFFCURVE",
"568 25 OFFCURVE",
"637 108 CURVE SMOOTH",
"707 191 OFFCURVE",
"741 293 OFFCURVE",
"741 414 CURVE SMOOTH",
"741 515 OFFCURVE",
"714 590 OFFCURVE",
"659 641 CURVE SMOOTH",
"604 691 OFFCURVE",
"527 717 OFFCURVE",
"430 717 CURVE SMOOTH",
"316 717 OFFCURVE",
"224 675 OFFCURVE",
"155 592 CURVE SMOOTH",
"85 509 OFFCURVE",
"51 407 OFFCURVE",
"51 287 CURVE SMOOTH"
);
},
{
closed = 1;
nodes = (
"203 367 OFFCURVE",
"224 448 OFFCURVE",
"264 509 CURVE SMOOTH",
"305 571 OFFCURVE",
"358 602 OFFCURVE",
"423 602 CURVE SMOOTH",
"534 602 OFFCURVE",
"589 538 OFFCURVE",
"589 434 CURVE SMOOTH",
"589 333 OFFCURVE",
"568 252 OFFCURVE",
"528 190 CURVE SMOOTH",
"487 129 OFFCURVE",
"434 99 OFFCURVE",
"369 99 CURVE SMOOTH",
"258 99 OFFCURVE",
"203 162 OFFCURVE",
"203 266 CURVE SMOOTH"
);
}
);
width = 748;
}
);
unicode = 004F;
},
{
glyphname = P;
lastChange = "2016-09-03 11:06:02 +0000";
layers = (
{
anchors = (
{
name = mark0;
position = "{0, 0}";
},
{
name = mark1;
position = "{256, 0}";
},
{
name = mark2;
position = "{421, 715}";
}
);
layerId = UUID0;
paths = (
{
closed = 1;
nodes = (
"100 0 LINE",
"116 0 OFFCURVE",
"126 9 OFFCURVE",
"131 27 CURVE SMOOTH",
"189 281 LINE",
"335 281 LINE SMOOTH",
"450 281 OFFCURVE",
"531 305 OFFCURVE",
"579 352 CURVE SMOOTH",
"626 398 OFFCURVE",
"650 451 OFFCURVE",
"650 510 CURVE SMOOTH",
"650 568 OFFCURVE",
"630 615 OFFCURVE",
"590 649 CURVE SMOOTH",
"551 683 OFFCURVE",
"493 700 OFFCURVE",
"417 700 CURVE SMOOTH",
"217 700 LINE SMOOTH",
"201 700 OFFCURVE",
"190 691 OFFCURVE",
"186 673 CURVE SMOOTH",
"37 27 LINE SMOOTH",
"33 9 OFFCURVE",
"39 0 OFFCURVE",
"55 0 CURVE SMOOTH"
);
},
{
closed = 1;
nodes = (
"268 620 LINE",
"400 620 LINE SMOOTH",
"454 620 OFFCURVE",
"494 611 OFFCURVE",
"518 593 CURVE SMOOTH",
"542 576 OFFCURVE",
"555 545 OFFCURVE",
"555 500 CURVE SMOOTH",
"555 459 OFFCURVE",
"539 425 OFFCURVE",
"508 399 CURVE SMOOTH",
"477 374 OFFCURVE",
"427 361 OFFCURVE",
"360 361 CURVE SMOOTH",
"208 361 LINE"
);
}
);
width = 634;
},
{
anchors = (
{
name = mark0;
position = "{0, 0}";
},
{
name = mark1;
position = "{261, 0}";
},
{
name = mark2;
position = "{426, 717}";
}
);
layerId = "60861F18-288B-4955-898F-0966625DD71B";
paths = (
{
closed = 1;
nodes = (
"128 0 LINE",
"151 0 OFFCURVE",
"165 12 OFFCURVE",
"170 37 CURVE SMOOTH",
"223 262 LINE",
"307 262 LINE SMOOTH",
"424 262 OFFCURVE",
"512 285 OFFCURVE",
"570 331 CURVE SMOOTH",
"629 377 OFFCURVE",
"658 438 OFFCURVE",
"658 511 CURVE SMOOTH",
"658 642 OFFCURVE",
"571 700 OFFCURVE",
"388 700 CURVE SMOOTH",
"215 700 LINE SMOOTH",
"192 700 OFFCURVE",
"178 688 OFFCURVE",
"173 664 CURVE SMOOTH",
"28 37 LINE SMOOTH",
"22 12 OFFCURVE",
"31 0 OFFCURVE",
"54 0 CURVE SMOOTH"
);
},
{
closed = 1;
nodes = (
"296 581 LINE",
"360 581 LINE SMOOTH",
"418 581 OFFCURVE",
"458 575 OFFCURVE",
"480 562 CURVE SMOOTH",
"502 550 OFFCURVE",
"514 527 OFFCURVE",
"514 494 CURVE SMOOTH",
"514 461 OFFCURVE",
"500 435 OFFCURVE",
"475 413 CURVE SMOOTH",
"449 392 OFFCURVE",
"401 381 OFFCURVE",
"333 381 CURVE SMOOTH",
"250 381 LINE"
);
}
);
width = 648;
}
);
unicode = 0050;
},
{
glyphname = Q;
lastChange = "2016-09-03 11:06:02 +0000";
layers = (
{
anchors = (
{
name = mark0;
position = "{0, 0}";
},
{
name = mark1;
position = "{266, -195}";
},
{
name = mark2;
position = "{429, 715}";
}
);
layerId = UUID0;
paths = (
{
closed = 1;
nodes = (
"54 190 OFFCURVE",
"79 118 OFFCURVE",
"130 64 CURVE SMOOTH",
"172 21 OFFCURVE",
"230 -5 OFFCURVE",
"305 -12 CURVE",
"305 -72 OFFCURVE",
"319 -115 OFFCURVE",
"348 -143 CURVE SMOOTH",
"376 -170 OFFCURVE",
"423 -184 OFFCURVE",
"490 -184 CURVE SMOOTH",
"507 -184 OFFCURVE",
"536 -181 OFFCURVE",
"576 -174 CURVE SMOOTH",
"586 -173 OFFCURVE",
"590 -168 OFFCURVE",
"589 -161 CURVE SMOOTH",
"583 -117 LINE SMOOTH",
"583 -109 OFFCURVE",
"576 -107 OFFCURVE",
"563 -109 CURVE SMOOTH",
"542 -114 OFFCURVE",
"522 -116 OFFCURVE",
"506 -116 CURVE SMOOTH",
"468 -116 OFFCURVE",
"441 -108 OFFCURVE",
"424 -94 CURVE SMOOTH",
"408 -80 OFFCURVE",
"399 -53 OFFCURVE",
"399 -13 CURVE",
"490 -3 OFFCURVE",
"565 36 OFFCURVE",
"625 104 CURVE SMOOTH",
"695 182 OFFCURVE",
"730 287 OFFCURVE",
"730 417 CURVE SMOOTH",
"730 510 OFFCURVE",
"705 583 OFFCURVE",
"654 635 CURVE SMOOTH",
"603 688 OFFCURVE",
"528 715 OFFCURVE",
"429 715 CURVE SMOOTH",
"318 715 OFFCURVE",
"228 675 OFFCURVE",
"158 597 CURVE SMOOTH",
"88 518 OFFCURVE",
"54 414 OFFCURVE",
"54 283 CURVE SMOOTH"
);
},
{
closed = 1;
nodes = (
"154 397 OFFCURVE",
"181 489 OFFCURVE",
"235 549 CURVE SMOOTH",
"289 609 OFFCURVE",
"352 639 OFFCURVE",
"423 639 CURVE SMOOTH",
"560 639 OFFCURVE",
"630 562 OFFCURVE",
"630 429 CURVE SMOOTH",
"630 303 OFFCURVE",
"603 211 OFFCURVE",
"549 151 CURVE SMOOTH",
"495 91 OFFCURVE",
"432 62 OFFCURVE",
"360 62 CURVE SMOOTH",
"224 62 OFFCURVE",
"154 138 OFFCURVE",
"154 271 CURVE SMOOTH"
);
}
);
width = 739;
},
{
anchors = (
{
name = mark0;
position = "{0, 0}";
},
{
name = mark1;
position = "{270, -195}";
},
{
name = mark2;
position = "{430, 717}";
}
);
layerId = "60861F18-288B-4955-898F-0966625DD71B";
paths = (
{
closed = 1;
nodes = (
"51 186 OFFCURVE",
"78 110 OFFCURVE",
"133 60 CURVE SMOOTH",
"174 22 OFFCURVE",
"228 -2 OFFCURVE",
"292 -12 CURVE",
"295 -70 OFFCURVE",
"311 -116 OFFCURVE",
"341 -149 CURVE SMOOTH",
"371 -182 OFFCURVE",
"421 -199 OFFCURVE",
"492 -199 CURVE SMOOTH",
"530 -199 OFFCURVE",
"566 -193 OFFCURVE",
"600 -182 CURVE SMOOTH",
"615 -177 OFFCURVE",
"621 -169 OFFCURVE",
"617 -158 CURVE SMOOTH",
"601 -101 LINE SMOOTH",
"598 -89 OFFCURVE",
"588 -85 OFFCURVE",
"573 -90 CURVE SMOOTH",
"555 -96 OFFCURVE",
"538 -99 OFFCURVE",
"522 -99 CURVE SMOOTH",
"487 -99 OFFCURVE",
"464 -91 OFFCURVE",
"454 -76 CURVE SMOOTH",
"444 -62 OFFCURVE",
"438 -40 OFFCURVE",
"436 -10 CURVE",
"516 4 OFFCURVE",
"583 44 OFFCURVE",
"637 108 CURVE SMOOTH",
"707 192 OFFCURVE",
"741 293 OFFCURVE",
"741 414 CURVE SMOOTH",
"741 515 OFFCURVE",
"714 590 OFFCURVE",
"659 641 CURVE SMOOTH",
"604 691 OFFCURVE",
"527 717 OFFCURVE",
"430 717 CURVE SMOOTH",
"316 717 OFFCURVE",
"224 675 OFFCURVE",
"155 592 CURVE SMOOTH",
"85 509 OFFCURVE",
"51 407 OFFCURVE",
"51 287 CURVE SMOOTH"
);
},
{
closed = 1;
nodes = (
"203 367 OFFCURVE",
"224 448 OFFCURVE",
"264 509 CURVE SMOOTH",
"305 571 OFFCURVE",
"358 602 OFFCURVE",
"423 602 CURVE SMOOTH",
"534 602 OFFCURVE",
"589 538 OFFCURVE",
"589 434 CURVE SMOOTH",
"589 333 OFFCURVE",
"568 252 OFFCURVE",
"528 190 CURVE SMOOTH",
"487 129 OFFCURVE",
"434 99 OFFCURVE",
"369 99 CURVE SMOOTH",
"258 99 OFFCURVE",
"203 162 OFFCURVE",
"203 266 CURVE SMOOTH"
);
}
);
width = 748;
}
);
unicode = 0051;
},
{
glyphname = R;
lastChange = "2016-09-03 11:06:02 +0000";
layers = (
{
anchors = (
{
name = mark0;
position = "{0, 0}";
},
{
name = mark1;
position = "{256, 0}";
},
{
name = mark2;
position = "{421, 715}";
}
);
layerId = UUID0;
paths = (
{
closed = 1;
nodes = (
"100 0 LINE",
"116 0 OFFCURVE",
"126 9 OFFCURVE",
"131 27 CURVE SMOOTH",
"194 303 LINE",
"279 303 LINE SMOOTH",
"324 303 OFFCURVE",
"358 291 OFFCURVE",
"381 266 CURVE",
"404 242 OFFCURVE",
"420 217 OFFCURVE",
"428 193 CURVE SMOOTH",
"484 19 LINE SMOOTH",
"489 6 OFFCURVE",
"499 0 OFFCURVE",
"514 0 CURVE SMOOTH",
"560 0 LINE SMOOTH",
"578 0 OFFCURVE",
"583 11 OFFCURVE",
"576 32 CURVE SMOOTH",
"512 211 LINE SMOOTH",
"504 231 OFFCURVE",
"497 248 OFFCURVE",
"489 262 CURVE SMOOTH",
"481 276 OFFCURVE",
"464 295 OFFCURVE",
"436 320 CURVE",
"437 321 LINE",
"500 326 OFFCURVE",
"555 346 OFFCURVE",
"599 382 CURVE SMOOTH",
"644 417 OFFCURVE",
"667 462 OFFCURVE",
"667 516 CURVE SMOOTH",
"667 568 OFFCURVE",
"649 612 OFFCURVE",
"614 647 CURVE SMOOTH",
"579 683 OFFCURVE",
"520 700 OFFCURVE",
"438 700 CURVE SMOOTH",
"217 700 LINE SMOOTH",
"201 700 OFFCURVE",
"190 691 OFFCURVE",
"186 673 CURVE SMOOTH",
"37 27 LINE SMOOTH",
"33 9 OFFCURVE",
"39 0 OFFCURVE",
"55 0 CURVE SMOOTH"
);
},
{
closed = 1;
nodes = (
"268 620 LINE",
"413 620 LINE SMOOTH",
"460 620 OFFCURVE",
"499 613 OFFCURVE",
"527 599 CURVE SMOOTH",
"557 584 OFFCURVE",
"571 554 OFFCURVE",
"571 507 CURVE SMOOTH",
"571 465 OFFCURVE",
"551 434 OFFCURVE",
"511 414 CURVE SMOOTH",
"472 394 OFFCURVE",
"422 383 OFFCURVE",
"364 383 CURVE SMOOTH",
"213 383 LINE"
);
}
);
width = 676;
},
{
anchors = (
{
name = mark0;
position = "{0, 0}";
},
{
name = mark1;
position = "{261, 0}";
},
{
name = mark2;
position = "{426, 717}";
}
);
layerId = "60861F18-288B-4955-898F-0966625DD71B";
paths = (
{
closed = 1;
nodes = (
"128 0 LINE",
"151 0 OFFCURVE",
"165 12 OFFCURVE",
"170 37 CURVE SMOOTH",
"228 283 LINE",
"273 283 LINE SMOOTH",
"302 283 OFFCURVE",
"327 274 OFFCURVE",
"348 257 CURVE SMOOTH",
"370 240 OFFCURVE",
"385 218 OFFCURVE",
"394 193 CURVE SMOOTH",
"452 29 LINE SMOOTH",
"458 10 OFFCURVE",
"471 0 OFFCURVE",
"489 0 CURVE SMOOTH",
"563 0 LINE SMOOTH",
"593 0 OFFCURVE",
"603 14 OFFCURVE",
"592 42 CURVE SMOOTH",
"526 211 LINE SMOOTH",
"520 229 OFFCURVE",
"510 248 OFFCURVE",
"499 268 CURVE SMOOTH",
"488 289 OFFCURVE",
"469 304 OFFCURVE",
"443 315 CURVE",
"443 316 LINE",
"521 326 OFFCURVE",
"581 351 OFFCURVE",
"623 389 CURVE SMOOTH",
"666 428 OFFCURVE",
"687 474 OFFCURVE",
"687 526 CURVE SMOOTH",
"687 581 OFFCURVE",
"666 623 OFFCURVE",
"625 654 CURVE SMOOTH",
"583 685 OFFCURVE",
"514 700 OFFCURVE",
"416 700 CURVE SMOOTH",
"215 700 LINE SMOOTH",
"192 700 OFFCURVE",
"178 688 OFFCURVE",
"173 664 CURVE SMOOTH",
"28 37 LINE SMOOTH",
"22 12 OFFCURVE",
"31 0 OFFCURVE",
"54 0 CURVE SMOOTH"
);
},
{
closed = 1;
nodes = (
"296 581 LINE",
"388 581 LINE SMOOTH",
"438 581 OFFCURVE",
"477 577 OFFCURVE",
"505 568 CURVE",
"533 560 OFFCURVE",
"547 541 OFFCURVE",
"547 512 CURVE SMOOTH",
"547 477 OFFCURVE",
"527 449 OFFCURVE",
"487 431 CURVE SMOOTH",
"448 413 OFFCURVE",
"404 404 OFFCURVE",
"357 404 CURVE SMOOTH",
"255 404 LINE"
);
}
);
width = 697;
}
);
unicode = 0052;
},
{
glyphname = S;
lastChange = "2016-09-03 11:06:02 +0000";
layers = (
{
anchors = (
{
name = mark0;
position = "{0, 0}";
},
{
name = mark1;
position = "{260, 0}";
},
{
name = mark2;
position = "{375, 715}";
}
);
layerId = UUID0;
paths = (
{
closed = 1;
nodes = (
"97 14 OFFCURVE",
"165 -15 OFFCURVE",
"271 -15 CURVE SMOOTH",
"333 -15 OFFCURVE",
"382 -6 OFFCURVE",
"418 11 CURVE SMOOTH",
"455 28 OFFCURVE",
"485 52 OFFCURVE",
"510 83 CURVE SMOOTH",
"535 113 OFFCURVE",
"547 152 OFFCURVE",
"547 198 CURVE SMOOTH",
"547 221 OFFCURVE",
"542 245 OFFCURVE",
"533 270 CURVE SMOOTH",
"523 295 OFFCURVE",
"508 316 OFFCURVE",
"486 333 CURVE SMOOTH",
"464 349 OFFCURVE",
"440 363 OFFCURVE",
"415 373 CURVE SMOOTH",
"382 386 OFFCURVE",
"339 398 OFFCURVE",
"302 416 CURVE SMOOTH",
"278 428 OFFCURVE",
"254 448 OFFCURVE",
"246 474 CURVE SMOOTH",
"242 487 OFFCURVE",
"240 501 OFFCURVE",
"240 515 CURVE SMOOTH",
"240 542 OFFCURVE",
"249 565 OFFCURVE",
"266 584 CURVE SMOOTH",
"283 604 OFFCURVE",
"302 616 OFFCURVE",
"323 623 CURVE SMOOTH",
"345 629 OFFCURVE",
"365 632 OFFCURVE",
"383 632 CURVE SMOOTH",
"412 632 OFFCURVE",
"440 626 OFFCURVE",
"467 615 CURVE SMOOTH",
"494 604 OFFCURVE",
"513 593 OFFCURVE",
"524 583 CURVE SMOOTH",
"540 571 OFFCURVE",
"551 569 OFFCURVE",
"558 579 CURVE SMOOTH",
"586 616 LINE SMOOTH",
"597 629 OFFCURVE",
"594 643 OFFCURVE",
"578 655 CURVE SMOOTH",
"554 673 OFFCURVE",
"527 688 OFFCURVE",
"498 699 CURVE SMOOTH",
"469 709 OFFCURVE",
"433 715 OFFCURVE",
"389 715 CURVE SMOOTH",
"358 715 OFFCURVE",
"325 709 OFFCURVE",
"289 699 CURVE SMOOTH",
"252 689 OFFCURVE",
"220 666 OFFCURVE",
"190 630 CURVE SMOOTH",
"161 595 OFFCURVE",
"146 554 OFFCURVE",
"146 508 CURVE SMOOTH",
"146 431 OFFCURVE",
"188 371 OFFCURVE",
"249 341 CURVE SMOOTH",
"298 316 OFFCURVE",
"338 306 OFFCURVE",
"374 292 CURVE SMOOTH",
"405 279 OFFCURVE",
"434 255 OFFCURVE",
"441 226 CURVE SMOOTH",
"446 210 OFFCURVE",
"448 196 OFFCURVE",
"448 182 CURVE SMOOTH",
"448 156 OFFCURVE",
"439 134 OFFCURVE",
"421 116 CURVE SMOOTH",
"404 98 OFFCURVE",
"384 84 OFFCURVE",
"362 75 CURVE SMOOTH",
"339 66 OFFCURVE",
"312 62 OFFCURVE",
"279 62 CURVE SMOOTH",
"241 62 OFFCURVE",
"209 67 OFFCURVE",
"185 78 CURVE SMOOTH",
"160 89 OFFCURVE",
"137 104 OFFCURVE",
"116 125 CURVE SMOOTH",
"98 141 OFFCURVE",
"84 143 OFFCURVE",
"74 131 CURVE SMOOTH",
"46 97 LINE SMOOTH",
"36 84 OFFCURVE",
"40 71 OFFCURVE",
"56 55 CURVE SMOOTH"
);
}
);
width = 594;
},
{
anchors = (
{
name = mark0;
position = "{0, 0}";
},
{
name = mark1;
position = "{277, 0}";
},
{
name = mark2;
position = "{390, 717}";
}
);
layerId = "60861F18-288B-4955-898F-0966625DD71B";
paths = (
{
closed = 1;
nodes = (
"71 29 OFFCURVE",
"103 11 OFFCURVE",
"136 0 CURVE SMOOTH",
"169 -11 OFFCURVE",
"215 -17 OFFCURVE",
"273 -17 CURVE SMOOTH",
"345 -17 OFFCURVE",
"402 -5 OFFCURVE",
"446 17 CURVE SMOOTH",
"489 39 OFFCURVE",
"521 65 OFFCURVE",
"542 96 CURVE SMOOTH",
"564 127 OFFCURVE",
"575 163 OFFCURVE",
"575 203 CURVE",
"576 292 OFFCURVE",
"533 356 OFFCURVE",
"456 386 CURVE",
"438 394 OFFCURVE",
"416 401 OFFCURVE",
"389 409 CURVE SMOOTH",
"362 417 OFFCURVE",
"338 426 OFFCURVE",
"317 436 CURVE SMOOTH",
"274 457 OFFCURVE",
"259 487 OFFCURVE",
"259 521 CURVE SMOOTH",
"259 550 OFFCURVE",
"280 581 OFFCURVE",
"312 593 CURVE SMOOTH",
"328 599 OFFCURVE",
"350 602 OFFCURVE",
"377 602 CURVE SMOOTH",
"433 602 OFFCURVE",
"480 584 OFFCURVE",
"513 557 CURVE SMOOTH",
"535 540 OFFCURVE",
"553 540 OFFCURVE",
"567 556 CURVE SMOOTH",
"610 604 LINE SMOOTH",
"622 618 OFFCURVE",
"619 634 OFFCURVE",
"600 653 CURVE SMOOTH",
"581 671 OFFCURVE",
"552 687 OFFCURVE",
"514 699 CURVE SMOOTH",
"476 711 OFFCURVE",
"435 717 OFFCURVE",
"390 717 CURVE SMOOTH",
"346 717 OFFCURVE",
"304 710 OFFCURVE",
"262 698 CURVE SMOOTH",
"221 686 OFFCURVE",
"187 661 OFFCURVE",
"159 624 CURVE SMOOTH",
"131 586 OFFCURVE",
"117 547 OFFCURVE",
"117 505 CURVE SMOOTH",
"117 468 OFFCURVE",
"124 437 OFFCURVE",
"136 412 CURVE SMOOTH",
"149 387 OFFCURVE",
"162 370 OFFCURVE",
"176 359 CURVE SMOOTH",
"190 349 OFFCURVE",
"208 338 OFFCURVE",
"229 328 CURVE SMOOTH",
"254 316 OFFCURVE",
"276 306 OFFCURVE",
"294 298 CURVE SMOOTH",
"313 291 OFFCURVE",
"332 284 OFFCURVE",
"352 277 CURVE SMOOTH",
"382 266 OFFCURVE",
"407 255 OFFCURVE",
"420 231 CURVE SMOOTH",
"427 219 OFFCURVE",
"430 207 OFFCURVE",
"430 194 CURVE SMOOTH",
"430 142 OFFCURVE",
"392 99 OFFCURVE",
"291 99 CURVE SMOOTH",
"257 99 OFFCURVE",
"227 104 OFFCURVE",
"198 116 CURVE SMOOTH",
"169 127 OFFCURVE",
"146 140 OFFCURVE",
"128 153 CURVE SMOOTH",
"105 171 OFFCURVE",
"87 172 OFFCURVE",
"74 156 CURVE SMOOTH",
"31 104 LINE SMOOTH",
"19 88 OFFCURVE",
"22 72 OFFCURVE",
"41 56 CURVE SMOOTH"
);
}
);
width = 634;
}
);
unicode = 0053;
},
{
glyphname = T;
lastChange = "2016-09-03 11:06:02 +0000";
layers = (
{
anchors = (
{
name = mark0;
position = "{0, 0}";
},
{
name = mark1;
position = "{244, 0}";
},
{
name = mark2;
position = "{409, 715}";
}
);
layerId = UUID0;
paths = (
{
closed = 1;
nodes = (
"345 616 LINE",
"209 27 LINE SMOOTH",
"205 9 OFFCURVE",
"211 0 OFFCURVE",
"227 0 CURVE SMOOTH",
"272 0 LINE SMOOTH",
"288 0 OFFCURVE",
"298 9 OFFCURVE",
"303 27 CURVE SMOOTH",
"438 616 LINE",
"650 616 LINE SMOOTH",
"668 616 OFFCURVE",
"679 624 OFFCURVE",
"682 638 CURVE SMOOTH",
"691 678 LINE SMOOTH",
"695 693 OFFCURVE",
"688 700 OFFCURVE",
"669 700 CURVE SMOOTH",
"153 700 LINE SMOOTH",
"135 700 OFFCURVE",
"125 693 OFFCURVE",
"121 678 CURVE SMOOTH",
"112 638 LINE SMOOTH",
"108 624 OFFCURVE",
"115 616 OFFCURVE",
"133 616 CURVE SMOOTH"
);
}
);
width = 605;
},
{
anchors = (
{
name = mark0;
position = "{0, 0}";
},
{
name = mark1;
position = "{245, 0}";
},
{
name = mark2;
position = "{411, 717}";
}
);
layerId = "60861F18-288B-4955-898F-0966625DD71B";
paths = (
{
closed = 1;
nodes = (
"307 575 LINE",
"181 27 LINE SMOOTH",
"176 9 OFFCURVE",
"183 0 OFFCURVE",
"199 0 CURVE SMOOTH",
"292 0 LINE SMOOTH",
"309 0 OFFCURVE",
"319 9 OFFCURVE",
"323 27 CURVE SMOOTH",
"450 575 LINE",
"629 575 LINE SMOOTH",
"654 575 OFFCURVE",
"668 586 OFFCURVE",
"673 607 CURVE SMOOTH",
"688 668 LINE SMOOTH",
"692 689 OFFCURVE",
"683 700 OFFCURVE",
"658 700 CURVE SMOOTH",
"156 700 LINE SMOOTH",
"132 700 OFFCURVE",
"117 689 OFFCURVE",
"112 668 CURVE SMOOTH",
"98 607 LINE SMOOTH",
"93 586 OFFCURVE",
"103 575 OFFCURVE",
"127 575 CURVE SMOOTH"
);
}
);
width = 608;
}
);
unicode = 0054;
},
{
glyphname = U;
lastChange = "2016-09-03 11:06:02 +0000";
layers = (
{
anchors = (
{
name = mark0;
position = "{284, 0}";
},
{
name = mark1;
position = "{284, 0}";
},
{
name = mark2;
position = "{448, 715}";
}
);
layerId = UUID0;
paths = (
{
closed = 1;
nodes = (
"122 267 LINE",
"98 164 OFFCURVE",
"108 91 OFFCURVE",
"152 49 CURVE SMOOTH",
"197 6 OFFCURVE",
"251 -15 OFFCURVE",
"316 -15 CURVE SMOOTH",
"403 -15 OFFCURVE",
"474 6 OFFCURVE",
"526 49 CURVE SMOOTH",
"578 91 OFFCURVE",
"616 164 OFFCURVE",
"640 267 CURVE SMOOTH",
"734 673 LINE SMOOTH",
"738 691 OFFCURVE",
"732 700 OFFCURVE",
"716 700 CURVE SMOOTH",
"671 700 LINE SMOOTH",
"655 700 OFFCURVE",
"645 691 OFFCURVE",
"640 673 CURVE SMOOTH",
"550 282 LINE SMOOTH",
"529 190 OFFCURVE",
"500 131 OFFCURVE",
"461 103 CURVE SMOOTH",
"424 75 OFFCURVE",
"381 62 OFFCURVE",
"333 62 CURVE SMOOTH",
"274 62 OFFCURVE",
"235 75 OFFCURVE",
"216 103 CURVE SMOOTH",
"197 131 OFFCURVE",
"198 190 OFFCURVE",
"219 282 CURVE SMOOTH",
"309 673 LINE SMOOTH",
"313 691 OFFCURVE",
"307 700 OFFCURVE",
"291 700 CURVE SMOOTH",
"246 700 LINE SMOOTH",
"230 700 OFFCURVE",
"220 691 OFFCURVE",
"215 673 CURVE SMOOTH",
"122 267 LINE"
);
}
);
width = 685;
},
{
anchors = (
{
name = mark0;
position = "{300, 0}";
},
{
name = mark1;
position = "{300, 0}";
},
{
name = mark2;
position = "{454, 717}";
}
);
layerId = "60861F18-288B-4955-898F-0966625DD71B";
paths = (
{
closed = 1;
nodes = (
"87 292 LINE",
"62 183 OFFCURVE",
"71 104 OFFCURVE",
"114 56 CURVE SMOOTH",
"157 7 OFFCURVE",
"218 -17 OFFCURVE",
"296 -17 CURVE SMOOTH",
"388 -17 OFFCURVE",
"458 5 OFFCURVE",
"509 48 CURVE SMOOTH",
"559 92 OFFCURVE",
"598 173 OFFCURVE",
"625 292 CURVE SMOOTH",
"713 673 LINE SMOOTH",
"717 691 OFFCURVE",
"708 700 OFFCURVE",
"685 700 CURVE SMOOTH",
"611 700 LINE SMOOTH",
"588 700 OFFCURVE",
"575 691 OFFCURVE",
"570 673 CURVE SMOOTH",
"483 296 LINE SMOOTH",
"465 218 OFFCURVE",
"440 166 OFFCURVE",
"408 139 CURVE SMOOTH",
"376 112 OFFCURVE",
"344 99 OFFCURVE",
"311 99 CURVE SMOOTH",
"273 99 OFFCURVE",
"245 110 OFFCURVE",
"227 132 CURVE SMOOTH",
"209 154 OFFCURVE",
"210 209 OFFCURVE",
"230 296 CURVE SMOOTH",
"317 673 LINE SMOOTH",
"322 691 OFFCURVE",
"313 700 OFFCURVE",
"290 700 CURVE SMOOTH",
"215 700 LINE SMOOTH",
"192 700 OFFCURVE",
"179 691 OFFCURVE",
"175 673 CURVE SMOOTH",
"87 292 LINE"
);
}
);
width = 694;
}
);
unicode = 0055;
},
{
glyphname = V;
lastChange = "2016-09-03 11:06:02 +0000";
layers = (
{
anchors = (
{
name = mark0;
position = "{0, 0}";
},
{
name = mark1;
position = "{268, 0}";
},
{
name = mark2;
position = "{433, 715}";
}
);
layerId = UUID0;
paths = (
{
closed = 1;
nodes = (
"213 30 LINE SMOOTH",
"216 10 OFFCURVE",
"224 0 OFFCURVE",
"238 0 CURVE SMOOTH",
"307 0 LINE SMOOTH",
"321 0 OFFCURVE",
"333 10 OFFCURVE",
"346 30 CURVE SMOOTH",
"731 668 LINE SMOOTH",
"744 689 OFFCURVE",
"742 700 OFFCURVE",
"725 700 CURVE SMOOTH",
"669 700 LINE SMOOTH",
"652 700 OFFCURVE",
"638 692 OFFCURVE",
"629 676 CURVE SMOOTH",
"369 239 LINE SMOOTH",
"359 222 OFFCURVE",
"345 197 OFFCURVE",
"327 165 CURVE SMOOTH",
"309 132 OFFCURVE",
"295 105 OFFCURVE",
"287 84 CURVE",
"285 84 LINE",
"285 104 OFFCURVE",
"284 131 OFFCURVE",
"282 163 CURVE SMOOTH",
"279 194 OFFCURVE",
"277 220 OFFCURVE",
"274 239 CURVE SMOOTH",
"217 676 LINE SMOOTH",
"215 692 OFFCURVE",
"205 700 OFFCURVE",
"187 700 CURVE SMOOTH",
"143 700 LINE SMOOTH",
"126 700 OFFCURVE",
"120 689 OFFCURVE",
"123 668 CURVE SMOOTH"
);
}
);
width = 653;
},
{
anchors = (
{
name = mark0;
position = "{0, 0}";
},
{
name = mark1;
position = "{276, 0}";
},
{
name = mark2;
position = "{441, 717}";
}
);
layerId = "60861F18-288B-4955-898F-0966625DD71B";
paths = (
{
closed = 1;
nodes = (
"205 40 LINE",
"208 13 OFFCURVE",
"221 0 OFFCURVE",
"242 0 CURVE SMOOTH",
"310 0 LINE SMOOTH",
"331 0 OFFCURVE",
"349 13 OFFCURVE",
"365 40 CURVE SMOOTH",
"744 668 LINE SMOOTH",
"757 689 OFFCURVE",
"751 700 OFFCURVE",
"728 700 CURVE SMOOTH",
"641 700 LINE SMOOTH",
"619 700 OFFCURVE",
"601 689 OFFCURVE",
"588 667 CURVE SMOOTH",
"344 259 LINE SMOOTH",
"333 240 OFFCURVE",
"326 227 OFFCURVE",
"322 218 CURVE SMOOTH",
"319 210 OFFCURVE",
"314 198 OFFCURVE",
"309 182 CURVE",
"307 182 LINE",
"310 198 OFFCURVE",
"311 210 OFFCURVE",
"311 218 CURVE SMOOTH",
"311 226 OFFCURVE",
"310 239 OFFCURVE",
"307 259 CURVE SMOOTH",
"252 667 LINE SMOOTH",
"249 689 OFFCURVE",
"237 700 OFFCURVE",
"215 700 CURVE SMOOTH",
"147 700 LINE SMOOTH",
"124 700 OFFCURVE",
"114 689 OFFCURVE",
"117 668 CURVE SMOOTH"
);
}
);
width = 669;
}
);
unicode = 0056;
},
{
glyphname = W;
lastChange = "2016-09-03 11:06:02 +0000";
layers = (
{
anchors = (
{
name = mark0;
position = "{0, 0}";
},
{
name = mark1;
position = "{402, 0}";
},
{
name = mark2;
position = "{567, 715}";
}
);
layerId = UUID0;
paths = (
{
closed = 1;
nodes = (
"146 38 LINE SMOOTH",
"146 13 OFFCURVE",
"156 0 OFFCURVE",
"173 0 CURVE SMOOTH",
"234 0 LINE SMOOTH",
"250 0 OFFCURVE",
"265 14 OFFCURVE",
"278 41 CURVE SMOOTH",
"499 509 LINE SMOOTH",
"510 532 OFFCURVE",
"518 550 OFFCURVE",
"523 564 CURVE SMOOTH",
"528 578 OFFCURVE",
"534 595 OFFCURVE",
"541 615 CURVE",
"542 615 LINE",
"542 596 OFFCURVE",
"542 580 OFFCURVE",
"541 566 CURVE SMOOTH",
"540 553 OFFCURVE",
"540 534 OFFCURVE",
"541 509 CURVE SMOOTH",
"553 41 LINE SMOOTH",
"554 14 OFFCURVE",
"563 0 OFFCURVE",
"579 0 CURVE SMOOTH",
"640 0 LINE SMOOTH",
"657 0 OFFCURVE",
"672 13 OFFCURVE",
"685 38 CURVE SMOOTH",
"994 671 LINE SMOOTH",
"1003 690 OFFCURVE",
"1001 700 OFFCURVE",
"988 700 CURVE SMOOTH",
"923 700 LINE SMOOTH",
"913 700 OFFCURVE",
"904 693 OFFCURVE",
"897 678 CURVE SMOOTH",
"685 208 LINE SMOOTH",
"678 193 OFFCURVE",
"669 173 OFFCURVE",
"657 149 CURVE SMOOTH",
"646 125 OFFCURVE",
"635 104 OFFCURVE",
"626 84 CURVE",
"624 84 LINE",
"624 131 OFFCURVE",
"625 176 OFFCURVE",
"625 208 CURVE SMOOTH",
"616 674 LINE SMOOTH",
"615 691 OFFCURVE",
"607 700 OFFCURVE",
"590 700 CURVE SMOOTH",
"524 700 LINE SMOOTH",
"508 700 OFFCURVE",
"496 691 OFFCURVE",
"487 674 CURVE SMOOTH",
"273 208 LINE",
"250 157 OFFCURVE",
"234 123 OFFCURVE",
"218 84 CURVE",
"216 84 LINE",
"216 110 OFFCURVE",
"216 133 OFFCURVE",
"217 151 CURVE SMOOTH",
"217 169 OFFCURVE",
"218 188 OFFCURVE",
"217 208 CURVE SMOOTH",
"206 678 LINE SMOOTH",
"206 693 OFFCURVE",
"201 700 OFFCURVE",
"190 700 CURVE SMOOTH",
"138 700 LINE SMOOTH",
"124 700 OFFCURVE",
"118 690 OFFCURVE",
"119 671 CURVE SMOOTH"
);
}
);
width = 922;
},
{
anchors = (
{
name = mark0;
position = "{0, 0}";
},
{
name = mark1;
position = "{435, 0}";
},
{
name = mark2;
position = "{600, 717}";
}
);
layerId = "60861F18-288B-4955-898F-0966625DD71B";
paths = (
{
closed = 1;
nodes = (
"140 47 LINE SMOOTH",
"142 16 OFFCURVE",
"153 0 OFFCURVE",
"175 0 CURVE SMOOTH",
"261 0 LINE SMOOTH",
"279 0 OFFCURVE",
"297 16 OFFCURVE",
"313 47 CURVE SMOOTH",
"525 456 LINE SMOOTH",
"536 478 OFFCURVE",
"543 492 OFFCURVE",
"545 499 CURVE SMOOTH",
"548 506 OFFCURVE",
"553 519 OFFCURVE",
"559 537 CURVE",
"560 537 LINE",
"557 519 OFFCURVE",
"555 506 OFFCURVE",
"555 500 CURVE SMOOTH",
"554 493 OFFCURVE",
"555 479 OFFCURVE",
"556 456 CURVE SMOOTH",
"579 47 LINE SMOOTH",
"580 16 OFFCURVE",
"590 0 OFFCURVE",
"609 0 CURVE SMOOTH",
"695 0 LINE SMOOTH",
"717 0 OFFCURVE",
"735 16 OFFCURVE",
"751 47 CURVE SMOOTH",
"1060 661 LINE SMOOTH",
"1073 687 OFFCURVE",
"1068 700 OFFCURVE",
"1046 700 CURVE SMOOTH",
"948 700 LINE SMOOTH",
"933 700 OFFCURVE",
"920 689 OFFCURVE",
"910 668 CURVE SMOOTH",
"729 284 LINE",
"705 232 LINE SMOOTH",
"698 218 OFFCURVE",
"692 200 OFFCURVE",
"685 177 CURVE",
"683 177 LINE",
"686 200 OFFCURVE",
"688 217 OFFCURVE",
"689 229 CURVE SMOOTH",
"691 240 OFFCURVE",
"690 260 OFFCURVE",
"689 287 CURVE SMOOTH",
"667 664 LINE SMOOTH",
"666 688 OFFCURVE",
"655 700 OFFCURVE",
"634 700 CURVE SMOOTH",
"544 700 LINE SMOOTH",
"524 700 OFFCURVE",
"507 688 OFFCURVE",
"495 664 CURVE SMOOTH",
"299 287 LINE SMOOTH",
"285 260 OFFCURVE",
"276 241 OFFCURVE",
"271 229 CURVE SMOOTH",
"267 217 OFFCURVE",
"262 200 OFFCURVE",
"255 177 CURVE",
"252 177 LINE",
"256 200 OFFCURVE",
"258 216 OFFCURVE",
"258 226 CURVE SMOOTH",
"258 235 OFFCURVE",
"258 254 OFFCURVE",
"258 284 CURVE SMOOTH",
"254 668 LINE",
"253 689 OFFCURVE",
"246 700 OFFCURVE",
"230 700 CURVE SMOOTH",
"147 700 LINE SMOOTH",
"125 700 OFFCURVE",
"115 687 OFFCURVE",
"116 661 CURVE SMOOTH"
);
}
);
width = 987;
}
);
unicode = 0057;
},
{
glyphname = X;
lastChange = "2016-09-03 11:06:02 +0000";
layers = (
{
anchors = (
{
name = mark0;
position = "{0, 0}";
},
{
name = mark1;
position = "{258, 0}";
},
{
name = mark2;
position = "{423, 715}";
}
);
layerId = UUID0;
paths = (
{
closed = 1;
nodes = (
"80 0 LINE SMOOTH",
"95 0 OFFCURVE",
"107 6 OFFCURVE",
"119 19 CURVE SMOOTH",
"361 296 LINE",
"485 19 LINE SMOOTH",
"491 6 OFFCURVE",
"501 0 OFFCURVE",
"515 0 CURVE SMOOTH",
"566 0 LINE SMOOTH",
"588 0 OFFCURVE",
"593 11 OFFCURVE",
"583 32 CURVE SMOOTH",
"423 355 LINE",
"712 668 LINE SMOOTH",
"732 689 OFFCURVE",
"731 700 OFFCURVE",
"710 700 CURVE SMOOTH",
"643 700 LINE SMOOTH",
"628 700 OFFCURVE",
"616 694 OFFCURVE",
"604 681 CURVE SMOOTH",
"382 426 LINE",
"267 681 LINE SMOOTH",
"261 694 OFFCURVE",
"251 700 OFFCURVE",
"237 700 CURVE SMOOTH",
"189 700 LINE SMOOTH",
"168 700 OFFCURVE",
"163 689 OFFCURVE",
"173 668 CURVE SMOOTH",
"319 367 LINE",
"8 32 LINE SMOOTH",
"-12 11 OFFCURVE",
"-12 0 OFFCURVE",
"9 0 CURVE SMOOTH"
);
}
);
width = 634;
},
{
anchors = (
{
name = mark0;
position = "{0, 0}";
},
{
name = mark1;
position = "{282, 0}";
},
{
name = mark2;
position = "{447, 717}";
}
);
layerId = "60861F18-288B-4955-898F-0966625DD71B";
paths = (
{
closed = 1;
nodes = (
"110 0 LINE SMOOTH",
"128 0 OFFCURVE",
"146 10 OFFCURVE",
"161 29 CURVE SMOOTH",
"346 258 LINE",
"444 29 LINE SMOOTH",
"452 10 OFFCURVE",
"464 0 OFFCURVE",
"481 0 CURVE SMOOTH",
"568 0 LINE SMOOTH",
"602 0 OFFCURVE",
"611 14 OFFCURVE",
"597 42 CURVE SMOOTH",
"438 353 LINE",
"721 658 LINE SMOOTH",
"747 686 OFFCURVE",
"744 700 OFFCURVE",
"712 700 CURVE SMOOTH",
"598 700 LINE SMOOTH",
"580 700 OFFCURVE",
"563 690 OFFCURVE",
"547 671 CURVE SMOOTH",
"382 468 LINE",
"296 671 LINE SMOOTH",
"288 690 OFFCURVE",
"276 700 OFFCURVE",
"259 700 CURVE SMOOTH",
"173 700 LINE SMOOTH",
"140 700 OFFCURVE",
"131 686 OFFCURVE",
"145 658 CURVE SMOOTH",
"290 373 LINE",
"-15 42 LINE SMOOTH",
"-41 14 OFFCURVE",
"-38 0 OFFCURVE",
"-6 0 CURVE SMOOTH"
);
}
);
width = 680;
}
);
unicode = 0058;
},
{
glyphname = Y;
lastChange = "2016-09-03 11:06:02 +0000";
layers = (
{
anchors = (
{
name = mark0;
position = "{0, 0}";
},
{
name = mark1;
position = "{259, 0}";
},
{
name = mark2;
position = "{424, 715}";
}
);
layerId = UUID0;
paths = (
{
closed = 1;
nodes = (
"292 288 LINE",
"232 27 LINE SMOOTH",
"228 9 OFFCURVE",
"234 0 OFFCURVE",
"250 0 CURVE SMOOTH",
"295 0 LINE SMOOTH",
"311 0 OFFCURVE",
"321 9 OFFCURVE",
"326 27 CURVE SMOOTH",
"386 288 LINE",
"718 668 LINE SMOOTH",
"737 689 OFFCURVE",
"735 700 OFFCURVE",
"712 700 CURVE SMOOTH",
"651 700 LINE SMOOTH",
"637 700 OFFCURVE",
"624 692 OFFCURVE",
"611 676 CURVE SMOOTH",
"436 463 LINE SMOOTH",
"416 438 OFFCURVE",
"399 418 OFFCURVE",
"386 401 CURVE SMOOTH",
"373 384 OFFCURVE",
"359 366 OFFCURVE",
"346 346 CURVE",
"344 346 LINE",
"339 366 OFFCURVE",
"333 387 OFFCURVE",
"325 409 CURVE",
"318 432 OFFCURVE",
"312 450 OFFCURVE",
"307 463 CURVE SMOOTH",
"231 676 LINE",
"226 692 OFFCURVE",
"215 700 OFFCURVE",
"201 700 CURVE SMOOTH",
"156 700 LINE SMOOTH",
"133 700 OFFCURVE",
"126 689 OFFCURVE",
"135 668 CURVE SMOOTH"
);
}
);
width = 636;
},
{
anchors = (
{
name = mark0;
position = "{0, 0}";
},
{
name = mark1;
position = "{275, 0}";
},
{
name = mark2;
position = "{440, 717}";
}
);
layerId = "60861F18-288B-4955-898F-0966625DD71B";
paths = (
{
closed = 1;
nodes = (
"263 256 LINE",
"210 27 LINE SMOOTH",
"206 9 OFFCURVE",
"215 0 OFFCURVE",
"238 0 CURVE SMOOTH",
"313 0 LINE SMOOTH",
"335 0 OFFCURVE",
"349 9 OFFCURVE",
"353 27 CURVE SMOOTH",
"406 256 LINE",
"736 658 LINE SMOOTH",
"759 686 OFFCURVE",
"755 700 OFFCURVE",
"723 700 CURVE SMOOTH",
"623 700 LINE SMOOTH",
"606 700 OFFCURVE",
"588 689 OFFCURVE",
"570 667 CURVE SMOOTH",
"424 485 LINE SMOOTH",
"409 466 OFFCURVE",
"395 447 OFFCURVE",
"380 428 CURVE SMOOTH",
"366 409 OFFCURVE",
"355 388 OFFCURVE",
"349 365 CURVE",
"347 365 LINE",
"347 391 OFFCURVE",
"344 414 OFFCURVE",
"338 432 CURVE SMOOTH",
"321 485 LINE",
"259 667 LINE SMOOTH",
"251 689 OFFCURVE",
"239 700 OFFCURVE",
"222 700 CURVE SMOOTH",
"151 700 LINE SMOOTH",
"119 700 OFFCURVE",
"108 686 OFFCURVE",
"118 658 CURVE SMOOTH"
);
}
);
width = 668;
}
);
unicode = 0059;
},
{
glyphname = Z;
lastChange = "2016-09-03 11:06:02 +0000";
layers = (
{
anchors = (
{
name = mark0;
position = "{0, 0}";
},
{
name = mark1;
position = "{238, 0}";
},
{
name = mark2;
position = "{403, 715}";
}
);
layerId = UUID0;
paths = (
{
closed = 1;
nodes = (
"481 0 LINE SMOOTH",
"500 0 OFFCURVE",
"510 7 OFFCURVE",
"513 22 CURVE SMOOTH",
"521 58 LINE SMOOTH",
"525 73 OFFCURVE",
"518 80 OFFCURVE",
"500 80 CURVE SMOOTH",
"168 80 LINE SMOOTH",
"151 80 OFFCURVE",
"138 80 OFFCURVE",
"128 79 CURVE",
"129 81 LINE",
"634 633 LINE SMOOTH",
"643 644 OFFCURVE",
"648 653 OFFCURVE",
"651 663 CURVE SMOOTH",
"654 678 LINE SMOOTH",
"658 693 OFFCURVE",
"650 700 OFFCURVE",
"632 700 CURVE SMOOTH",
"182 700 LINE SMOOTH",
"164 700 OFFCURVE",
"154 693 OFFCURVE",
"150 678 CURVE SMOOTH",
"142 642 LINE SMOOTH",
"139 627 OFFCURVE",
"146 620 OFFCURVE",
"164 620 CURVE SMOOTH",
"467 620 LINE SMOOTH",
"480 620 OFFCURVE",
"494 621 OFFCURVE",
"507 621 CURVE",
"506 619 LINE",
"13 89 LINE SMOOTH",
"0 75 OFFCURVE",
"-8 60 OFFCURVE",
"-12 45 CURVE SMOOTH",
"-17 22 LINE SMOOTH",
"-21 7 OFFCURVE",
"-13 0 OFFCURVE",
"5 0 CURVE SMOOTH"
);
}
);
width = 594;
},
{
anchors = (
{
name = mark0;
position = "{0, 0}";
},
{
name = mark1;
position = "{247, 0}";
},
{
name = mark2;
position = "{413, 717}";
}
);
layerId = "60861F18-288B-4955-898F-0966625DD71B";
paths = (
{
closed = 1;
nodes = (
"486 0 LINE SMOOTH",
"511 0 OFFCURVE",
"525 11 OFFCURVE",
"530 32 CURVE SMOOTH",
"543 89 LINE SMOOTH",
"548 110 OFFCURVE",
"539 121 OFFCURVE",
"514 121 CURVE SMOOTH",
"252 121 LINE SMOOTH",
"233 121 OFFCURVE",
"213 120 OFFCURVE",
"193 119 CURVE",
"194 122 LINE",
"627 584 LINE SMOOTH",
"643 601 OFFCURVE",
"652 618 OFFCURVE",
"656 636 CURVE SMOOTH",
"664 668 LINE SMOOTH",
"668 689 OFFCURVE",
"659 700 OFFCURVE",
"634 700 CURVE SMOOTH",
"189 700 LINE SMOOTH",
"165 700 OFFCURVE",
"150 689 OFFCURVE",
"145 668 CURVE SMOOTH",
"132 611 LINE SMOOTH",
"127 590 OFFCURVE",
"137 579 OFFCURVE",
"161 579 CURVE SMOOTH",
"378 579 LINE SMOOTH",
"398 579 OFFCURVE",
"417 580 OFFCURVE",
"438 582 CURVE",
"437 578 LINE",
"28 142 LINE SMOOTH",
"7 119 OFFCURVE",
"-7 95 OFFCURVE",
"-12 72 CURVE SMOOTH",
"-21 32 LINE SMOOTH",
"-26 11 OFFCURVE",
"-17 0 OFFCURVE",
"8 0 CURVE SMOOTH"
);
}
);
width = 611;
}
);
unicode = 005A;
},
{
glyphname = bracketleft;
lastChange = "2016-09-03 11:06:02 +0000";
layers = (
{
layerId = UUID0;
paths = (
{
closed = 1;
nodes = (
"166 -199 LINE SMOOTH",
"180 -199 OFFCURVE",
"189 -193 OFFCURVE",
"191 -182 CURVE SMOOTH",
"198 -153 LINE SMOOTH",
"201 -142 OFFCURVE",
"195 -136 OFFCURVE",
"180 -136 CURVE SMOOTH",
"84 -136 LINE",
"269 667 LINE",
"365 667 LINE SMOOTH",
"380 667 OFFCURVE",
"389 673 OFFCURVE",
"391 684 CURVE SMOOTH",
"398 713 LINE SMOOTH",
"400 725 OFFCURVE",
"395 730 OFFCURVE",
"380 730 CURVE SMOOTH",
"220 730 LINE SMOOTH",
"205 730 OFFCURVE",
"196 723 OFFCURVE",
"193 708 CURVE SMOOTH",
"-12 -177 LINE SMOOTH",
"-15 -192 OFFCURVE",
"-9 -199 OFFCURVE",
"5 -199 CURVE SMOOTH"
);
}
);
width = 321;
},
{
layerId = "60861F18-288B-4955-898F-0966625DD71B";
paths = (
{
closed = 1;
nodes = (
"173 -199 LINE SMOOTH",
"192 -199 OFFCURVE",
"204 -191 OFFCURVE",
"208 -175 CURVE SMOOTH",
"219 -126 LINE SMOOTH",
"223 -110 OFFCURVE",
"215 -102 OFFCURVE",
"195 -102 CURVE SMOOTH",
"133 -102 LINE",
"302 633 LINE",
"365 633 LINE SMOOTH",
"384 633 OFFCURVE",
"396 641 OFFCURVE",
"400 657 CURVE SMOOTH",
"411 706 LINE SMOOTH",
"415 722 OFFCURVE",
"407 730 OFFCURVE",
"387 730 CURVE SMOOTH",
"217 730 LINE SMOOTH",
"198 730 OFFCURVE",
"186 721 OFFCURVE",
"182 701 CURVE SMOOTH",
"-20 -170 LINE SMOOTH",
"-24 -189 OFFCURVE",
"-17 -199 OFFCURVE",
"3 -199 CURVE SMOOTH"
);
}
);
width = 339;
}
);
unicode = 005B;
},
{
glyphname = backslash;
lastChange = "2016-09-03 11:06:02 +0000";
layers = (
{
layerId = UUID0;
paths = (
{
closed = 1;
nodes = (
"306 -184 LINE SMOOTH",
"309 -196 OFFCURVE",
"316 -201 OFFCURVE",
"328 -198 CURVE SMOOTH",
"350 -192 LINE SMOOTH",
"362 -189 OFFCURVE",
"366 -180 OFFCURVE",
"362 -165 CURVE SMOOTH",
"135 700 LINE SMOOTH",
"131 712 OFFCURVE",
"124 716 OFFCURVE",
"112 713 CURVE SMOOTH",
"89 708 LINE SMOOTH",
"78 705 OFFCURVE",
"74 696 OFFCURVE",
"78 681 CURVE SMOOTH"
);
}
);
width = 410;
},
{
layerId = "60861F18-288B-4955-898F-0966625DD71B";
paths = (
{
closed = 1;
nodes = (
"274 -181 LINE SMOOTH",
"278 -198 OFFCURVE",
"288 -205 OFFCURVE",
"304 -200 CURVE SMOOTH",
"343 -188 LINE SMOOTH",
"359 -183 OFFCURVE",
"365 -170 OFFCURVE",
"360 -151 CURVE SMOOTH",
"154 696 LINE SMOOTH",
"149 713 OFFCURVE",
"140 720 OFFCURVE",
"124 715 CURVE SMOOTH",
"84 703 LINE SMOOTH",
"68 698 OFFCURVE",
"63 686 OFFCURVE",
"67 667 CURVE SMOOTH"
);
}
);
width = 418;
}
);
unicode = 005C;
},
{
glyphname = bracketright;
lastChange = "2016-09-03 11:06:02 +0000";
layers = (
{
layerId = UUID0;
paths = (
{
closed = 1;
nodes = (
"115 -199 LINE SMOOTH",
"130 -199 OFFCURVE",
"139 -192 OFFCURVE",
"142 -177 CURVE SMOOTH",
"347 708 LINE SMOOTH",
"350 723 OFFCURVE",
"344 730 OFFCURVE",
"330 730 CURVE SMOOTH",
"169 730 LINE SMOOTH",
"155 730 OFFCURVE",
"146 725 OFFCURVE",
"144 713 CURVE SMOOTH",
"137 684 LINE SMOOTH",
"134 673 OFFCURVE",
"140 667 OFFCURVE",
"155 667 CURVE SMOOTH",
"251 667 LINE",
"66 -136 LINE",
"-30 -136 LINE SMOOTH",
"-45 -136 OFFCURVE",
"-54 -142 OFFCURVE",
"-56 -153 CURVE SMOOTH",
"-63 -182 LINE SMOOTH",
"-65 -193 OFFCURVE",
"-60 -199 OFFCURVE",
"-45 -199 CURVE SMOOTH"
);
}
);
width = 321;
},
{
layerId = "60861F18-288B-4955-898F-0966625DD71B";
paths = (
{
closed = 1;
nodes = (
"127 -199 LINE SMOOTH",
"146 -199 OFFCURVE",
"158 -189 OFFCURVE",
"163 -170 CURVE SMOOTH",
"364 701 LINE SMOOTH",
"368 721 OFFCURVE",
"361 730 OFFCURVE",
"341 730 CURVE SMOOTH",
"171 730 LINE SMOOTH",
"152 730 OFFCURVE",
"141 722 OFFCURVE",
"137 706 CURVE SMOOTH",
"125 657 LINE SMOOTH",
"122 641 OFFCURVE",
"129 633 OFFCURVE",
"149 633 CURVE SMOOTH",
"211 633 LINE",
"42 -102 LINE",
"-21 -102 LINE SMOOTH",
"-40 -102 OFFCURVE",
"-52 -110 OFFCURVE",
"-56 -126 CURVE SMOOTH",
"-67 -175 LINE SMOOTH",
"-70 -191 OFFCURVE",
"-63 -199 OFFCURVE",
"-43 -199 CURVE SMOOTH"
);
}
);
width = 339;
}
);
unicode = 005D;
},
{
glyphname = asciicircum;
lastChange = "2016-09-03 11:06:02 +0000";
layers = (
{
layerId = UUID0;
paths = (
{
closed = 1;
nodes = (
"127 435 LINE SMOOTH",
"137 429 OFFCURVE",
"146 432 OFFCURVE",
"154 445 CURVE SMOOTH",
"271 630 LINE",
"271 630 LINE",
"388 445 LINE SMOOTH",
"396 432 OFFCURVE",
"405 429 OFFCURVE",
"415 435 CURVE SMOOTH",
"438 451 LINE SMOOTH",
"448 457 OFFCURVE",
"449 466 OFFCURVE",
"441 478 CURVE SMOOTH",
"313 684 LINE SMOOTH",
"306 695 OFFCURVE",
"295 700 OFFCURVE",
"281 700 CURVE SMOOTH",
"261 700 LINE SMOOTH",
"247 700 OFFCURVE",
"236 695 OFFCURVE",
"229 684 CURVE SMOOTH",
"101 478 LINE SMOOTH",
"93 466 OFFCURVE",
"94 457 OFFCURVE",
"104 451 CURVE SMOOTH"
);
}
);
width = 423;
},
{
layerId = "60861F18-288B-4955-898F-0966625DD71B";
paths = (
{
closed = 1;
nodes = (
"121 432 LINE SMOOTH",
"134 423 OFFCURVE",
"146 426 OFFCURVE",
"157 441 CURVE SMOOTH",
"273 602 LINE",
"274 602 LINE",
"390 441 LINE SMOOTH",
"401 426 OFFCURVE",
"413 423 OFFCURVE",
"426 432 CURVE SMOOTH",
"457 454 LINE SMOOTH",
"470 463 OFFCURVE",
"471 476 OFFCURVE",
"459 492 CURVE SMOOTH",
"317 686 LINE SMOOTH",
"309 698 OFFCURVE",
"297 704 OFFCURVE",
"282 704 CURVE SMOOTH",
"265 704 LINE SMOOTH",
"250 704 OFFCURVE",
"238 698 OFFCURVE",
"229 686 CURVE SMOOTH",
"88 492 LINE",
"77 476 OFFCURVE",
"77 463 OFFCURVE",
"90 454 CURVE SMOOTH"
);
}
);
width = 449;
}
);
unicode = 005E;
},
{
glyphname = underscore;
lastChange = "2016-09-03 11:06:02 +0000";
layers = (
{
layerId = UUID0;
paths = (
{
closed = 1;
nodes = (
"432 -190 LINE SMOOTH",
"446 -190 OFFCURVE",
"454 -185 OFFCURVE",
"454 -173 CURVE SMOOTH",
"454 -144 LINE SMOOTH",
"454 -133 OFFCURVE",
"446 -127 OFFCURVE",
"432 -127 CURVE SMOOTH",
"-85 -127 LINE SMOOTH",
"-100 -127 OFFCURVE",
"-107 -133 OFFCURVE",
"-107 -144 CURVE SMOOTH",
"-107 -173 LINE SMOOTH",
"-107 -185 OFFCURVE",
"-100 -190 OFFCURVE",
"-85 -190 CURVE SMOOTH"
);
}
);
width = 537;
},
{
layerId = "60861F18-288B-4955-898F-0966625DD71B";
paths = (
{
closed = 1;
nodes = (
"474 -208 LINE SMOOTH",
"493 -208 OFFCURVE",
"503 -199 OFFCURVE",
"503 -183 CURVE SMOOTH",
"503 -134 LINE SMOOTH",
"503 -118 OFFCURVE",
"493 -110 OFFCURVE",
"474 -110 CURVE SMOOTH",
"-78 -110 LINE SMOOTH",
"-98 -110 OFFCURVE",
"-107 -118 OFFCURVE",
"-107 -134 CURVE SMOOTH",
"-107 -183 LINE SMOOTH",
"-107 -199 OFFCURVE",
"-98 -208 OFFCURVE",
"-78 -208 CURVE SMOOTH"
);
}
);
width = 586;
}
);
unicode = 005F;
},
{
glyphname = grave;
lastChange = "2016-09-03 11:06:02 +0000";
layers = (
{
layerId = UUID0;
paths = (
{
closed = 1;
nodes = (
"272 576 LINE SMOOTH",
"279 566 OFFCURVE",
"292 562 OFFCURVE",
"310 562 CURVE SMOOTH",
"341 562 LINE SMOOTH",
"357 562 OFFCURVE",
"360 570 OFFCURVE",
"350 587 CURVE SMOOTH",
"295 683 LINE SMOOTH",
"289 695 OFFCURVE",
"276 701 OFFCURVE",
"259 701 CURVE SMOOTH",
"209 701 LINE SMOOTH",
"190 701 OFFCURVE",
"187 692 OFFCURVE",
"199 675 CURVE SMOOTH"
);
}
);
width = 300;
},
{
layerId = "60861F18-288B-4955-898F-0966625DD71B";
paths = (
{
closed = 1;
nodes = (
"236 580 LINE SMOOTH",
"247 567 OFFCURVE",
"261 562 OFFCURVE",
"281 562 CURVE SMOOTH",
"323 562 LINE SMOOTH",
"344 562 OFFCURVE",
"350 571 OFFCURVE",
"340 590 CURVE SMOOTH",
"298 678 LINE SMOOTH",
"291 693 OFFCURVE",
"275 701 OFFCURVE",
"251 701 CURVE SMOOTH",
"177 701 LINE SMOOTH",
"150 701 OFFCURVE",
"144 691 OFFCURVE",
"160 672 CURVE SMOOTH"
);
}
);
width = 300;
}
);
unicode = 0060;
},
{
glyphname = a;
lastChange = "2016-09-03 11:06:02 +0000";
layers = (
{
anchors = (
{
name = mark0;
position = "{191, 0}";
},
{
name = mark1;
position = "{194, 0}";
},
{
name = mark2;
position = "{314, 521}";
}
);
layerId = UUID0;
paths = (
{
closed = 1;
nodes = (
"32 106 OFFCURVE",
"46 63 OFFCURVE",
"75 34 CURVE SMOOTH",
"104 6 OFFCURVE",
"142 -8 OFFCURVE",
"189 -8 CURVE SMOOTH",
"222 -8 OFFCURVE",
"251 1 OFFCURVE",
"277 20 CURVE SMOOTH",
"304 39 OFFCURVE",
"325 60 OFFCURVE",
"341 81 CURVE",
"342 81 LINE",
"330 22 LINE SMOOTH",
"327 7 OFFCURVE",
"333 0 OFFCURVE",
"347 0 CURVE SMOOTH",
"387 0 LINE SMOOTH",
"401 0 OFFCURVE",
"410 7 OFFCURVE",
"414 22 CURVE SMOOTH",
"522 491 LINE SMOOTH",
"525 505 OFFCURVE",
"520 513 OFFCURVE",
"505 513 CURVE SMOOTH",
"464 513 LINE SMOOTH",
"453 513 OFFCURVE",
"445 505 OFFCURVE",
"440 491 CURVE SMOOTH",
"430 460 LINE",
"429 460 LINE",
"419 476 OFFCURVE",
"406 490 OFFCURVE",
"387 502 CURVE SMOOTH",
"368 515 OFFCURVE",
"344 521 OFFCURVE",
"314 521 CURVE SMOOTH",
"248 521 OFFCURVE",
"184 484 OFFCURVE",
"123 410 CURVE SMOOTH",
"63 336 OFFCURVE",
"32 255 OFFCURVE",
"32 166 CURVE SMOOTH"
);
},
{
closed = 1;
nodes = (
"123 242 OFFCURVE",
"143 312 OFFCURVE",
"183 370 CURVE SMOOTH",
"223 428 OFFCURVE",
"266 458 OFFCURVE",
"312 458 CURVE SMOOTH",
"339 458 OFFCURVE",
"362 451 OFFCURVE",
"381 438 CURVE",
"400 426 OFFCURVE",
"409 405 OFFCURVE",
"409 376 CURVE",
"376 234 LINE SMOOTH",
"367 192 OFFCURVE",
"344 152 OFFCURVE",
"309 113 CURVE SMOOTH",
"273 75 OFFCURVE",
"241 55 OFFCURVE",
"211 55 CURVE SMOOTH",
"176 55 OFFCURVE",
"152 67 OFFCURVE",
"140 92 CURVE SMOOTH",
"129 117 OFFCURVE",
"123 141 OFFCURVE",
"123 162 CURVE SMOOTH"
);
}
);
width = 537;
},
{
anchors = (
{
name = mark0;
position = "{197, 0}";
},
{
name = mark1;
position = "{198, 0}";
},
{
name = mark2;
position = "{318, 522}";
}
);
layerId = "60861F18-288B-4955-898F-0966625DD71B";
paths = (
{
closed = 1;
nodes = (
"30 134 OFFCURVE",
"44 89 OFFCURVE",
"73 49 CURVE SMOOTH",
"102 10 OFFCURVE",
"143 -10 OFFCURVE",
"194 -10 CURVE SMOOTH",
"250 -10 OFFCURVE",
"291 21 OFFCURVE",
"329 67 CURVE",
"331 67 LINE",
"324 29 LINE SMOOTH",
"321 10 OFFCURVE",
"328 0 OFFCURVE",
"346 0 CURVE SMOOTH",
"421 0 LINE SMOOTH",
"440 0 OFFCURVE",
"453 10 OFFCURVE",
"457 29 CURVE SMOOTH",
"562 483 LINE SMOOTH",
"566 503 OFFCURVE",
"559 513 OFFCURVE",
"539 513 CURVE SMOOTH",
"464 513 LINE SMOOTH",
"452 513 OFFCURVE",
"441 503 OFFCURVE",
"432 483 CURVE SMOOTH",
"423 466 LINE",
"421 466 LINE",
"406 489 OFFCURVE",
"388 504 OFFCURVE",
"369 511 CURVE SMOOTH",
"350 519 OFFCURVE",
"333 522 OFFCURVE",
"318 522 CURVE SMOOTH",
"245 522 OFFCURVE",
"179 489 OFFCURVE",
"119 422 CURVE SMOOTH",
"60 355 OFFCURVE",
"30 276 OFFCURVE",
"30 185 CURVE SMOOTH"
);
},
{
closed = 1;
nodes = (
"175 240 OFFCURVE",
"188 298 OFFCURVE",
"215 350 CURVE SMOOTH",
"242 401 OFFCURVE",
"276 427 OFFCURVE",
"316 427 CURVE SMOOTH",
"373 427 OFFCURVE",
"391 391 OFFCURVE",
"391 332 CURVE",
"373 255 LINE SMOOTH",
"346 142 OFFCURVE",
"292 86 OFFCURVE",
"236 86 CURVE SMOOTH",
"220 86 OFFCURVE",
"206 94 OFFCURVE",
"193 110 CURVE SMOOTH",
"181 126 OFFCURVE",
"175 148 OFFCURVE",
"175 176 CURVE SMOOTH"
);
}
);
width = 575;
}
);
unicode = 0061;
},
{
glyphname = b;
lastChange = "2016-09-03 11:06:02 +0000";
layers = (
{
anchors = (
{
name = mark0;
position = "{0, 0}";
},
{
name = mark1;
position = "{229, 0}";
},
{
name = mark2;
position = "{395, 721}";
}
);
layerId = UUID0;
paths = (
{
closed = 1;
nodes = (
"79 0 LINE",
"90 0 OFFCURVE",
"98 7 OFFCURVE",
"103 22 CURVE SMOOTH",
"114 58 LINE",
"115 58 LINE",
"131 36 OFFCURVE",
"150 19 OFFCURVE",
"170 8 CURVE SMOOTH",
"190 -3 OFFCURVE",
"218 -8 OFFCURVE",
"254 -8 CURVE SMOOTH",
"325 -8 OFFCURVE",
"387 27 OFFCURVE",
"439 97 CURVE SMOOTH",
"492 168 OFFCURVE",
"518 245 OFFCURVE",
"518 328 CURVE SMOOTH",
"518 381 OFFCURVE",
"506 426 OFFCURVE",
"481 464 CURVE",
"458 502 OFFCURVE",
"415 521 OFFCURVE",
"353 521 CURVE SMOOTH",
"327 521 OFFCURVE",
"298 513 OFFCURVE",
"268 496 CURVE SMOOTH",
"238 479 OFFCURVE",
"215 458 OFFCURVE",
"201 432 CURVE",
"200 432 LINE",
"208 462 LINE",
"263 699 LINE SMOOTH",
"266 713 OFFCURVE",
"260 721 OFFCURVE",
"246 721 CURVE SMOOTH",
"204 721 LINE SMOOTH",
"189 721 OFFCURVE",
"180 713 OFFCURVE",
"177 699 CURVE SMOOTH",
"21 22 LINE SMOOTH",
"17 7 OFFCURVE",
"23 0 OFFCURVE",
"38 0 CURVE SMOOTH"
);
},
{
closed = 1;
nodes = (
"166 278 LINE",
"176 321 OFFCURVE",
"198 362 OFFCURVE",
"230 400 CURVE SMOOTH",
"264 438 OFFCURVE",
"296 458 OFFCURVE",
"328 458 CURVE SMOOTH",
"365 458 OFFCURVE",
"391 445 OFFCURVE",
"405 419 CURVE SMOOTH",
"420 395 OFFCURVE",
"427 365 OFFCURVE",
"427 331 CURVE SMOOTH",
"427 257 OFFCURVE",
"410 193 OFFCURVE",
"375 138 CURVE SMOOTH",
"339 83 OFFCURVE",
"297 55 OFFCURVE",
"248 55 CURVE SMOOTH",
"211 55 OFFCURVE",
"184 62 OFFCURVE",
"166 74 CURVE SMOOTH",
"148 86 OFFCURVE",
"138 109 OFFCURVE",
"134 142 CURVE"
);
}
);
width = 546;
},
{
anchors = (
{
name = mark0;
position = "{0, 0}";
},
{
name = mark1;
position = "{248, 0}";
},
{
name = mark2;
position = "{414, 721}";
}
);
layerId = "60861F18-288B-4955-898F-0966625DD71B";
paths = (
{
closed = 1;
nodes = (
"114 0 LINE",
"130 0 OFFCURVE",
"141 10 OFFCURVE",
"147 29 CURVE SMOOTH",
"153 47 LINE",
"155 47 LINE",
"171 21 OFFCURVE",
"192 6 OFFCURVE",
"218 0 CURVE SMOOTH",
"243 -7 OFFCURVE",
"268 -10 OFFCURVE",
"291 -10 CURVE SMOOTH",
"360 -10 OFFCURVE",
"420 23 OFFCURVE",
"473 90 CURVE SMOOTH",
"525 156 OFFCURVE",
"551 232 OFFCURVE",
"551 318 CURVE SMOOTH",
"551 370 OFFCURVE",
"538 417 OFFCURVE",
"511 459 CURVE SMOOTH",
"484 501 OFFCURVE",
"438 522 OFFCURVE",
"374 522 CURVE SMOOTH",
"350 522 OFFCURVE",
"329 517 OFFCURVE",
"311 505 CURVE SMOOTH",
"292 493 OFFCURVE",
"271 473 OFFCURVE",
"248 445 CURVE",
"246 445 LINE",
"250 458 OFFCURVE",
"254 471 OFFCURVE",
"257 484 CURVE SMOOTH",
"304 691 LINE SMOOTH",
"309 711 OFFCURVE",
"301 721 OFFCURVE",
"282 721 CURVE SMOOTH",
"204 721 LINE SMOOTH",
"184 721 OFFCURVE",
"172 711 OFFCURVE",
"167 691 CURVE SMOOTH",
"15 29 LINE SMOOTH",
"10 10 OFFCURVE",
"18 0 OFFCURVE",
"37 0 CURVE SMOOTH"
);
},
{
closed = 1;
nodes = (
"204 258 LINE",
"217 313 OFFCURVE",
"236 354 OFFCURVE",
"262 383 CURVE SMOOTH",
"289 412 OFFCURVE",
"313 427 OFFCURVE",
"336 427 CURVE SMOOTH",
"380 427 OFFCURVE",
"407 395 OFFCURVE",
"407 327 CURVE SMOOTH",
"407 265 OFFCURVE",
"395 209 OFFCURVE",
"370 160 CURVE SMOOTH",
"346 111 OFFCURVE",
"312 86 OFFCURVE",
"268 86 CURVE SMOOTH",
"235 86 OFFCURVE",
"213 94 OFFCURVE",
"202 110 CURVE SMOOTH",
"191 126 OFFCURVE",
"186 149 OFFCURVE",
"186 181 CURVE"
);
}
);
width = 582;
}
);
unicode = 0062;
},
{
glyphname = c;
lastChange = "2016-09-03 11:06:02 +0000";
layers = (
{
anchors = (
{
name = mark0;
position = "{0, 0}";
},
{
name = mark1;
position = "{240, 0}";
},
{
name = mark2;
position = "{322, 521}";
}
);
layerId = UUID0;
paths = (
{
closed = 1;
nodes = (
"33 147 OFFCURVE",
"48 100 OFFCURVE",
"79 57 CURVE SMOOTH",
"109 13 OFFCURVE",
"162 -8 OFFCURVE",
"238 -8 CURVE SMOOTH",
"294 -8 OFFCURVE",
"338 4 OFFCURVE",
"370 29 CURVE SMOOTH",
"402 54 OFFCURVE",
"423 72 OFFCURVE",
"432 85 CURVE SMOOTH",
"440 97 OFFCURVE",
"439 105 OFFCURVE",
"430 112 CURVE SMOOTH",
"399 135 LINE SMOOTH",
"389 142 OFFCURVE",
"380 139 OFFCURVE",
"373 128 CURVE SMOOTH",
"364 114 OFFCURVE",
"349 99 OFFCURVE",
"327 81 CURVE SMOOTH",
"306 64 OFFCURVE",
"278 55 OFFCURVE",
"245 55 CURVE SMOOTH",
"202 55 OFFCURVE",
"171 67 OFFCURVE",
"152 92 CURVE SMOOTH",
"133 117 OFFCURVE",
"124 149 OFFCURVE",
"124 189 CURVE SMOOTH",
"124 277 OFFCURVE",
"143 344 OFFCURVE",
"182 389 CURVE SMOOTH",
"220 435 OFFCURVE",
"265 458 OFFCURVE",
"316 458 CURVE SMOOTH",
"348 458 OFFCURVE",
"372 451 OFFCURVE",
"388 438 CURVE SMOOTH",
"404 424 OFFCURVE",
"415 413 OFFCURVE",
"419 402 CURVE SMOOTH",
"425 388 OFFCURVE",
"434 384 OFFCURVE",
"445 390 CURVE SMOOTH",
"477 407 LINE SMOOTH",
"487 413 OFFCURVE",
"489 421 OFFCURVE",
"484 433 CURVE SMOOTH",
"474 455 OFFCURVE",
"458 475 OFFCURVE",
"435 493 CURVE SMOOTH",
"413 512 OFFCURVE",
"375 521 OFFCURVE",
"322 521 CURVE SMOOTH",
"236 521 OFFCURVE",
"166 488 OFFCURVE",
"113 423 CURVE SMOOTH",
"60 358 OFFCURVE",
"33 283 OFFCURVE",
"33 196 CURVE SMOOTH"
);
}
);
width = 501;
},
{
anchors = (
{
name = mark0;
position = "{0, 0}";
},
{
name = mark1;
position = "{255, 0}";
},
{
name = mark2;
position = "{329, 522}";
}
);
layerId = "60861F18-288B-4955-898F-0966625DD71B";
paths = (
{
closed = 1;
nodes = (
"28 144 OFFCURVE",
"44 95 OFFCURVE",
"77 53 CURVE SMOOTH",
"110 11 OFFCURVE",
"168 -10 OFFCURVE",
"253 -10 CURVE SMOOTH",
"307 -10 OFFCURVE",
"350 0 OFFCURVE",
"382 18 CURVE SMOOTH",
"414 36 OFFCURVE",
"437 54 OFFCURVE",
"449 70 CURVE SMOOTH",
"462 87 OFFCURVE",
"463 101 OFFCURVE",
"450 113 CURVE SMOOTH",
"411 149 LINE SMOOTH",
"396 163 OFFCURVE",
"383 162 OFFCURVE",
"371 147 CURVE SMOOTH",
"356 128 OFFCURVE",
"340 113 OFFCURVE",
"324 102 CURVE SMOOTH",
"308 91 OFFCURVE",
"287 86 OFFCURVE",
"262 86 CURVE SMOOTH",
"207 86 OFFCURVE",
"173 121 OFFCURVE",
"173 189 CURVE SMOOTH",
"173 266 OFFCURVE",
"189 324 OFFCURVE",
"221 365 CURVE SMOOTH",
"252 406 OFFCURVE",
"287 427 OFFCURVE",
"324 427 CURVE SMOOTH",
"347 427 OFFCURVE",
"364 422 OFFCURVE",
"375 414 CURVE SMOOTH",
"387 405 OFFCURVE",
"396 396 OFFCURVE",
"403 386 CURVE SMOOTH",
"416 368 OFFCURVE",
"428 363 OFFCURVE",
"441 371 CURVE SMOOTH",
"494 407 LINE SMOOTH",
"509 417 OFFCURVE",
"512 429 OFFCURVE",
"502 442 CURVE SMOOTH",
"486 466 OFFCURVE",
"465 486 OFFCURVE",
"439 500 CURVE SMOOTH",
"414 515 OFFCURVE",
"377 522 OFFCURVE",
"329 522 CURVE SMOOTH",
"238 522 OFFCURVE",
"165 488 OFFCURVE",
"110 418 CURVE SMOOTH",
"56 349 OFFCURVE",
"28 277 OFFCURVE",
"28 201 CURVE SMOOTH"
);
}
);
width = 530;
}
);
unicode = 0063;
},
{
glyphname = d;
lastChange = "2016-09-03 11:06:02 +0000";
layers = (
{
anchors = (
{
name = mark0;
position = "{0, 0}";
},
{
name = mark1;
position = "{200, 0}";
},
{
name = mark2;
position = "{366, 721}";
}
);
layerId = UUID0;
paths = (
{
closed = 1;
nodes = (
"34 132 OFFCURVE",
"46 86 OFFCURVE",
"70 48 CURVE",
"95 11 OFFCURVE",
"138 -8 OFFCURVE",
"200 -8 CURVE SMOOTH",
"226 -8 OFFCURVE",
"254 0 OFFCURVE",
"284 17 CURVE SMOOTH",
"314 34 OFFCURVE",
"337 55 OFFCURVE",
"351 81 CURVE",
"352 81 LINE",
"341 22 LINE SMOOTH",
"339 7 OFFCURVE",
"343 0 OFFCURVE",
"355 0 CURVE SMOOTH",
"396 0 LINE SMOOTH",
"411 0 OFFCURVE",
"420 7 OFFCURVE",
"423 22 CURVE SMOOTH",
"580 699 LINE SMOOTH",
"583 713 OFFCURVE",
"577 721 OFFCURVE",
"563 721 CURVE SMOOTH",
"521 721 LINE SMOOTH",
"506 721 OFFCURVE",
"497 713 OFFCURVE",
"494 699 CURVE SMOOTH",
"444 485 LINE SMOOTH",
"441 473 OFFCURVE",
"439 463 OFFCURVE",
"438 455 CURVE",
"438 455 LINE",
"421 477 OFFCURVE",
"402 494 OFFCURVE",
"382 504 CURVE SMOOTH",
"362 516 OFFCURVE",
"334 521 OFFCURVE",
"298 521 CURVE SMOOTH",
"227 521 OFFCURVE",
"165 486 OFFCURVE",
"113 415 CURVE SMOOTH",
"61 345 OFFCURVE",
"34 268 OFFCURVE",
"34 185 CURVE SMOOTH"
);
},
{
closed = 1;
nodes = (
"125 255 OFFCURVE",
"143 319 OFFCURVE",
"178 375 CURVE SMOOTH",
"213 430 OFFCURVE",
"255 458 OFFCURVE",
"305 458 CURVE SMOOTH",
"341 458 OFFCURVE",
"368 451 OFFCURVE",
"386 438 CURVE SMOOTH",
"404 426 OFFCURVE",
"415 404 OFFCURVE",
"418 371 CURVE",
"386 234 LINE SMOOTH",
"376 191 OFFCURVE",
"354 151 OFFCURVE",
"321 112 CURVE SMOOTH",
"289 74 OFFCURVE",
"256 55 OFFCURVE",
"224 55 CURVE SMOOTH",
"188 55 OFFCURVE",
"162 68 OFFCURVE",
"147 93 CURVE SMOOTH",
"132 118 OFFCURVE",
"125 148 OFFCURVE",
"125 182 CURVE SMOOTH"
);
}
);
width = 546;
},
{
anchors = (
{
name = mark0;
position = "{0, 0}";
},
{
name = mark1;
position = "{217, 0}";
},
{
name = mark2;
position = "{384, 721}";
}
);
layerId = "60861F18-288B-4955-898F-0966625DD71B";
paths = (
{
closed = 1;
nodes = (
"32 143 OFFCURVE",
"45 96 OFFCURVE",
"72 54 CURVE SMOOTH",
"99 11 OFFCURVE",
"145 -10 OFFCURVE",
"209 -10 CURVE SMOOTH",
"233 -10 OFFCURVE",
"254 -4 OFFCURVE",
"273 8 CURVE SMOOTH",
"292 20 OFFCURVE",
"313 40 OFFCURVE",
"336 67 CURVE",
"338 67 LINE",
"331 29 LINE SMOOTH",
"328 10 OFFCURVE",
"334 0 OFFCURVE",
"351 0 CURVE SMOOTH",
"428 0 LINE SMOOTH",
"447 0 OFFCURVE",
"459 10 OFFCURVE",
"464 29 CURVE SMOOTH",
"617 691 LINE SMOOTH",
"621 711 OFFCURVE",
"614 721 OFFCURVE",
"594 721 CURVE SMOOTH",
"516 721 LINE SMOOTH",
"497 721 OFFCURVE",
"484 711 OFFCURVE",
"480 691 CURVE SMOOTH",
"438 505 LINE SMOOTH",
"434 489 OFFCURVE",
"432 476 OFFCURVE",
"430 466 CURVE",
"428 466 LINE",
"412 491 OFFCURVE",
"391 507 OFFCURVE",
"366 513 CURVE SMOOTH",
"340 520 OFFCURVE",
"316 522 OFFCURVE",
"292 522 CURVE SMOOTH",
"224 522 OFFCURVE",
"163 489 OFFCURVE",
"110 423 CURVE SMOOTH",
"58 356 OFFCURVE",
"32 280 OFFCURVE",
"32 195 CURVE SMOOTH"
);
},
{
closed = 1;
nodes = (
"177 248 OFFCURVE",
"189 303 OFFCURVE",
"213 353 CURVE SMOOTH",
"238 402 OFFCURVE",
"272 427 OFFCURVE",
"316 427 CURVE SMOOTH",
"349 427 OFFCURVE",
"370 419 OFFCURVE",
"381 403 CURVE SMOOTH",
"392 387 OFFCURVE",
"397 363 OFFCURVE",
"397 332 CURVE",
"379 255 LINE SMOOTH",
"367 200 OFFCURVE",
"347 158 OFFCURVE",
"321 129 CURVE SMOOTH",
"295 101 OFFCURVE",
"271 86 OFFCURVE",
"248 86 CURVE SMOOTH",
"203 86 OFFCURVE",
"177 118 OFFCURVE",
"177 186 CURVE SMOOTH"
);
}
);
width = 582;
}
);
unicode = 0064;
},
{
glyphname = e;
lastChange = "2016-09-03 11:06:02 +0000";
layers = (
{
anchors = (
{
name = mark0;
position = "{233, 0}";
},
{
name = mark1;
position = "{233, 0}";
},
{
name = mark2;
position = "{318, 521}";
}
);
layerId = UUID0;
paths = (
{
closed = 1;
nodes = (
"33 139 OFFCURVE",
"49 92 OFFCURVE",
"80 52 CURVE SMOOTH",
"111 12 OFFCURVE",
"162 -8 OFFCURVE",
"231 -8 CURVE SMOOTH",
"294 -8 OFFCURVE",
"343 2 OFFCURVE",
"375 22 CURVE SMOOTH",
"408 43 OFFCURVE",
"429 60 OFFCURVE",
"436 71 CURVE SMOOTH",
"444 84 OFFCURVE",
"445 93 OFFCURVE",
"439 99 CURVE SMOOTH",
"410 124 LINE SMOOTH",
"401 132 OFFCURVE",
"391 128 OFFCURVE",
"379 113 CURVE SMOOTH",
"371 102 OFFCURVE",
"356 90 OFFCURVE",
"333 76 CURVE SMOOTH",
"310 63 OFFCURVE",
"280 56 OFFCURVE",
"243 56 CURVE SMOOTH",
"199 56 OFFCURVE",
"168 67 OFFCURVE",
"150 91 CURVE SMOOTH",
"133 115 OFFCURVE",
"124 143 OFFCURVE",
"124 175 CURVE SMOOTH",
"124 176 OFFCURVE",
"125 183 OFFCURVE",
"127 195 CURVE",
"247 219 LINE SMOOTH",
"315 232 OFFCURVE",
"372 250 OFFCURVE",
"418 273 CURVE SMOOTH",
"464 296 OFFCURVE",
"487 332 OFFCURVE",
"487 380 CURVE SMOOTH",
"487 417 OFFCURVE",
"472 449 OFFCURVE",
"440 478 CURVE SMOOTH",
"410 506 OFFCURVE",
"369 521 OFFCURVE",
"318 521 CURVE SMOOTH",
"230 521 OFFCURVE",
"161 491 OFFCURVE",
"109 430 CURVE SMOOTH",
"59 370 OFFCURVE",
"33 291 OFFCURVE",
"33 193 CURVE SMOOTH"
);
},
{
closed = 1;
nodes = (
"129 263 LINE",
"144 333 OFFCURVE",
"166 383 OFFCURVE",
"197 413 CURVE SMOOTH",
"228 442 OFFCURVE",
"263 458 OFFCURVE",
"302 458 CURVE SMOOTH",
"328 458 OFFCURVE",
"351 451 OFFCURVE",
"371 437 CURVE SMOOTH",
"391 424 OFFCURVE",
"401 406 OFFCURVE",
"401 384 CURVE SMOOTH",
"401 356 OFFCURVE",
"384 334 OFFCURVE",
"350 318 CURVE SMOOTH",
"315 303 OFFCURVE",
"275 291 OFFCURVE",
"229 282 CURVE SMOOTH"
);
}
);
width = 526;
},
{
anchors = (
{
name = mark0;
position = "{263, 0}";
},
{
name = mark1;
position = "{263, 0}";
},
{
name = mark2;
position = "{332, 522}";
}
);
layerId = "60861F18-288B-4955-898F-0966625DD71B";
paths = (
{
closed = 1;
nodes = (
"28 144 OFFCURVE",
"44 94 OFFCURVE",
"77 52 CURVE SMOOTH",
"110 11 OFFCURVE",
"171 -10 OFFCURVE",
"261 -10 CURVE SMOOTH",
"353 -10 OFFCURVE",
"422 9 OFFCURVE",
"464 48 CURVE SMOOTH",
"479 62 OFFCURVE",
"480 76 OFFCURVE",
"468 91 CURVE SMOOTH",
"439 129 LINE SMOOTH",
"430 142 OFFCURVE",
"417 142 OFFCURVE",
"400 129 CURVE SMOOTH",
"385 118 OFFCURVE",
"366 108 OFFCURVE",
"341 99 CURVE SMOOTH",
"317 90 OFFCURVE",
"293 86 OFFCURVE",
"270 86 CURVE SMOOTH",
"229 86 OFFCURVE",
"202 95 OFFCURVE",
"191 114 CURVE SMOOTH",
"180 132 OFFCURVE",
"174 152 OFFCURVE",
"174 173 CURVE SMOOTH",
"174 178 OFFCURVE",
"174 182 OFFCURVE",
"174 187 CURVE",
"276 204 LINE SMOOTH",
"359 218 OFFCURVE",
"423 235 OFFCURVE",
"469 255 CURVE SMOOTH",
"516 274 OFFCURVE",
"539 315 OFFCURVE",
"539 378 CURVE SMOOTH",
"539 416 OFFCURVE",
"521 449 OFFCURVE",
"484 479 CURVE SMOOTH",
"448 508 OFFCURVE",
"397 522 OFFCURVE",
"332 522 CURVE SMOOTH",
"237 522 OFFCURVE",
"163 488 OFFCURVE",
"109 419 CURVE SMOOTH",
"55 350 OFFCURVE",
"28 278 OFFCURVE",
"28 203 CURVE SMOOTH"
);
},
{
closed = 1;
nodes = (
"181 278 LINE",
"192 320 OFFCURVE",
"209 355 OFFCURVE",
"234 384 CURVE SMOOTH",
"259 413 OFFCURVE",
"292 427 OFFCURVE",
"333 427 CURVE SMOOTH",
"359 427 OFFCURVE",
"380 421 OFFCURVE",
"397 410 CURVE SMOOTH",
"415 399 OFFCURVE",
"423 385 OFFCURVE",
"423 367 CURVE SMOOTH",
"423 347 OFFCURVE",
"409 332 OFFCURVE",
"381 320 CURVE SMOOTH",
"353 310 OFFCURVE",
"322 301 OFFCURVE",
"288 296 CURVE SMOOTH"
);
}
);
width = 562;
}
);
unicode = 0065;
},
{
glyphname = f;
lastChange = "2016-09-03 11:06:02 +0000";
layers = (
{
anchors = (
{
name = mark0;
position = "{0, 0}";
},
{
name = mark1;
position = "{58, -195}";
},
{
name = mark2;
position = "{332, 721}";
}
);
layerId = UUID0;
paths = (
{
closed = 1;
nodes = (
"146 448 LINE",
"2 -173 LINE SMOOTH",
"-1 -188 OFFCURVE",
"5 -195 OFFCURVE",
"20 -195 CURVE SMOOTH",
"62 -195 LINE SMOOTH",
"76 -195 OFFCURVE",
"85 -188 OFFCURVE",
"88 -173 CURVE SMOOTH",
"232 448 LINE",
"321 448 LINE SMOOTH",
"336 448 OFFCURVE",
"345 454 OFFCURVE",
"347 465 CURVE SMOOTH",
"354 496 LINE SMOOTH",
"356 507 OFFCURVE",
"351 513 OFFCURVE",
"336 513 CURVE SMOOTH",
"247 513 LINE",
"260 571 LINE SMOOTH",
"269 608 OFFCURVE",
"280 633 OFFCURVE",
"295 646 CURVE SMOOTH",
"311 659 OFFCURVE",
"332 666 OFFCURVE",
"358 666 CURVE SMOOTH",
"382 666 OFFCURVE",
"403 659 OFFCURVE",
"415 652 CURVE SMOOTH",
"423 648 OFFCURVE",
"429 650 OFFCURVE",
"433 656 CURVE SMOOTH",
"458 695 LINE SMOOTH",
"462 702 OFFCURVE",
"461 708 OFFCURVE",
"455 710 CURVE SMOOTH",
"438 718 OFFCURVE",
"422 723 OFFCURVE",
"409 726 CURVE SMOOTH",
"396 728 OFFCURVE",
"378 729 OFFCURVE",
"355 729 CURVE SMOOTH",
"318 729 OFFCURVE",
"282 719 OFFCURVE",
"248 698 CURVE SMOOTH",
"213 677 OFFCURVE",
"190 640 OFFCURVE",
"178 585 CURVE",
"161 513 LINE",
"108 513 LINE SMOOTH",
"94 513 OFFCURVE",
"85 507 OFFCURVE",
"83 496 CURVE SMOOTH",
"76 465 LINE SMOOTH",
"73 454 OFFCURVE",
"79 448 OFFCURVE",
"94 448 CURVE SMOOTH"
);
}
);
width = 318;
},
{
anchors = (
{
name = mark0;
position = "{0, 0}";
},
{
name = mark1;
position = "{64, -195}";
},
{
name = mark2;
position = "{338, 721}";
}
);
layerId = "60861F18-288B-4955-898F-0966625DD71B";
paths = (
{
closed = 1;
nodes = (
"114 415 LINE",
"-20 -166 LINE SMOOTH",
"-24 -186 OFFCURVE",
"-17 -195 OFFCURVE",
"2 -195 CURVE SMOOTH",
"81 -195 LINE SMOOTH",
"100 -195 OFFCURVE",
"112 -186 OFFCURVE",
"117 -166 CURVE SMOOTH",
"250 415 LINE",
"315 415 LINE SMOOTH",
"334 415 OFFCURVE",
"346 423 OFFCURVE",
"350 439 CURVE SMOOTH",
"361 488 LINE SMOOTH",
"365 504 OFFCURVE",
"357 513 OFFCURVE",
"337 513 CURVE SMOOTH",
"273 513 LINE",
"278 532 LINE SMOOTH",
"286 563 OFFCURVE",
"293 587 OFFCURVE",
"301 606 CURVE SMOOTH",
"309 625 OFFCURVE",
"326 635 OFFCURVE",
"354 635 CURVE SMOOTH",
"369 635 OFFCURVE",
"394 633 OFFCURVE",
"413 627 CURVE SMOOTH",
"426 623 OFFCURVE",
"434 625 OFFCURVE",
"437 633 CURVE SMOOTH",
"459 686 LINE SMOOTH",
"464 699 OFFCURVE",
"461 708 OFFCURVE",
"450 712 CURVE SMOOTH",
"425 722 OFFCURVE",
"396 730 OFFCURVE",
"357 730 CURVE SMOOTH",
"240 730 OFFCURVE",
"177 687 OFFCURVE",
"152 581 CURVE SMOOTH",
"136 513 LINE",
"109 513 LINE SMOOTH",
"90 513 OFFCURVE",
"79 504 OFFCURVE",
"75 488 CURVE SMOOTH",
"63 439 LINE SMOOTH",
"60 423 OFFCURVE",
"67 415 OFFCURVE",
"86 415 CURVE SMOOTH"
);
}
);
width = 333;
}
);
unicode = 0066;
},
{
glyphname = g;
lastChange = "2016-09-03 11:06:02 +0000";
layers = (
{
anchors = (
{
name = mark0;
position = "{0, 0}";
},
{
name = mark1;
position = "{160, -195}";
},
{
name = mark2;
position = "{320, 521}";
}
);
layerId = UUID0;
paths = (
{
closed = 1;
nodes = (
"44 132 OFFCURVE",
"57 86 OFFCURVE",
"81 48 CURVE",
"105 11 OFFCURVE",
"148 -8 OFFCURVE",
"210 -8 CURVE SMOOTH",
"236 -8 OFFCURVE",
"264 0 OFFCURVE",
"294 17 CURVE SMOOTH",
"325 34 OFFCURVE",
"347 55 OFFCURVE",
"361 81 CURVE",
"362 81 LINE",
"359 69 OFFCURVE",
"356 60 OFFCURVE",
"354 51 CURVE SMOOTH",
"344 5 LINE SMOOTH",
"332 -48 OFFCURVE",
"313 -85 OFFCURVE",
"285 -107 CURVE SMOOTH",
"257 -129 OFFCURVE",
"224 -140 OFFCURVE",
"183 -140 CURVE SMOOTH",
"148 -140 OFFCURVE",
"122 -136 OFFCURVE",
"103 -128 CURVE SMOOTH",
"84 -120 OFFCURVE",
"68 -110 OFFCURVE",
"56 -97 CURVE SMOOTH",
"46 -86 OFFCURVE",
"37 -84 OFFCURVE",
"29 -93 CURVE SMOOTH",
"4 -116 LINE SMOOTH",
"-4 -125 OFFCURVE",
"-4 -134 OFFCURVE",
"2 -146 CURVE SMOOTH",
"23 -181 OFFCURVE",
"80 -204 OFFCURVE",
"168 -204 CURVE SMOOTH",
"252 -204 OFFCURVE",
"313 -187 OFFCURVE",
"350 -154 CURVE SMOOTH",
"386 -121 OFFCURVE",
"413 -71 OFFCURVE",
"428 -4 CURVE SMOOTH",
"542 491 LINE SMOOTH",
"545 505 OFFCURVE",
"540 513 OFFCURVE",
"525 513 CURVE SMOOTH",
"484 513 LINE SMOOTH",
"473 513 OFFCURVE",
"464 505 OFFCURVE",
"460 491 CURVE SMOOTH",
"449 455 LINE",
"448 455 LINE",
"431 477 OFFCURVE",
"413 494 OFFCURVE",
"393 504 CURVE SMOOTH",
"373 516 OFFCURVE",
"344 521 OFFCURVE",
"308 521 CURVE SMOOTH",
"237 521 OFFCURVE",
"175 486 OFFCURVE",
"123 415 CURVE SMOOTH",
"71 345 OFFCURVE",
"44 268 OFFCURVE",
"44 185 CURVE SMOOTH"
);
},
{
closed = 1;
nodes = (
"135 255 OFFCURVE",
"153 319 OFFCURVE",
"188 375 CURVE SMOOTH",
"223 430 OFFCURVE",
"266 458 OFFCURVE",
"315 458 CURVE SMOOTH",
"352 458 OFFCURVE",
"378 451 OFFCURVE",
"396 438 CURVE SMOOTH",
"415 426 OFFCURVE",
"425 404 OFFCURVE",
"428 371 CURVE",
"396 234 LINE SMOOTH",
"386 191 OFFCURVE",
"365 151 OFFCURVE",
"332 112 CURVE SMOOTH",
"299 74 OFFCURVE",
"266 55 OFFCURVE",
"234 55 CURVE SMOOTH",
"198 55 OFFCURVE",
"172 68 OFFCURVE",
"157 93 CURVE SMOOTH",
"143 118 OFFCURVE",
"135 148 OFFCURVE",
"135 182 CURVE SMOOTH"
);
}
);
width = 546;
},
{
anchors = (
{
name = mark0;
position = "{0, 0}";
},
{
name = mark1;
position = "{161, -195}";
},
{
name = mark2;
position = "{338, 522}";
}
);
layerId = "60861F18-288B-4955-898F-0966625DD71B";
paths = (
{
closed = 1;
nodes = (
"32 149 OFFCURVE",
"46 103 OFFCURVE",
"73 60 CURVE SMOOTH",
"100 16 OFFCURVE",
"146 -5 OFFCURVE",
"210 -5 CURVE SMOOTH",
"234 -5 OFFCURVE",
"255 0 OFFCURVE",
"274 12 CURVE SMOOTH",
"292 24 OFFCURVE",
"313 44 OFFCURVE",
"337 72 CURVE",
"339 72 LINE",
"334 58 OFFCURVE",
"330 44 OFFCURVE",
"328 33 CURVE SMOOTH",
"324 15 LINE SMOOTH",
"313 -37 OFFCURVE",
"292 -70 OFFCURVE",
"263 -86 CURVE SMOOTH",
"233 -102 OFFCURVE",
"201 -109 OFFCURVE",
"166 -109 CURVE SMOOTH",
"110 -109 OFFCURVE",
"74 -95 OFFCURVE",
"50 -83 CURVE SMOOTH",
"34 -75 OFFCURVE",
"21 -78 OFFCURVE",
"12 -93 CURVE SMOOTH",
"-9 -128 LINE SMOOTH",
"-20 -147 OFFCURVE",
"-18 -160 OFFCURVE",
"-4 -167 CURVE SMOOTH",
"22 -181 OFFCURVE",
"47 -191 OFFCURVE",
"69 -197 CURVE SMOOTH",
"91 -202 OFFCURVE",
"121 -205 OFFCURVE",
"159 -205 CURVE SMOOTH",
"247 -205 OFFCURVE",
"314 -189 OFFCURVE",
"361 -157 CURVE",
"409 -125 OFFCURVE",
"441 -71 OFFCURVE",
"458 5 CURVE SMOOTH",
"569 483 LINE SMOOTH",
"573 503 OFFCURVE",
"566 513 OFFCURVE",
"546 513 CURVE SMOOTH",
"469 513 LINE SMOOTH",
"454 513 OFFCURVE",
"442 503 OFFCURVE",
"436 483 CURVE SMOOTH",
"430 466 LINE",
"428 466 LINE",
"412 491 OFFCURVE",
"391 507 OFFCURVE",
"366 513 CURVE SMOOTH",
"340 520 OFFCURVE",
"316 522 OFFCURVE",
"292 522 CURVE SMOOTH",
"224 522 OFFCURVE",
"163 489 OFFCURVE",
"110 423 CURVE SMOOTH",
"58 356 OFFCURVE",
"32 281 OFFCURVE",
"32 196 CURVE SMOOTH"
);
},
{
closed = 1;
nodes = (
"177 248 OFFCURVE",
"189 303 OFFCURVE",
"213 353 CURVE SMOOTH",
"238 402 OFFCURVE",
"272 427 OFFCURVE",
"316 427 CURVE SMOOTH",
"349 427 OFFCURVE",
"370 419 OFFCURVE",
"381 403 CURVE SMOOTH",
"392 387 OFFCURVE",
"397 363 OFFCURVE",
"397 332 CURVE",
"379 255 LINE SMOOTH",
"368 205 OFFCURVE",
"349 165 OFFCURVE",
"322 135 CURVE SMOOTH",
"296 105 OFFCURVE",
"271 90 OFFCURVE",
"249 90 CURVE SMOOTH",
"204 90 OFFCURVE",
"177 129 OFFCURVE",
"177 187 CURVE SMOOTH"
);
}
);
width = 582;
}
);
unicode = 0067;
},
{
glyphname = h;
lastChange = "2016-09-03 11:06:02 +0000";
layers = (
{
anchors = (
{
name = mark0;
position = "{0, 0}";
},
{
name = mark1;
position = "{217, 0}";
},
{
name = mark2;
position = "{383, 721}";
}
);
layerId = UUID0;
paths = (
{
closed = 1;
nodes = (
"80 0 LINE SMOOTH",
"94 0 OFFCURVE",
"103 7 OFFCURVE",
"106 22 CURVE SMOOTH",
"164 271 LINE SMOOTH",
"175 319 OFFCURVE",
"197 363 OFFCURVE",
"229 400 CURVE SMOOTH",
"261 438 OFFCURVE",
"297 458 OFFCURVE",
"336 458 CURVE SMOOTH",
"372 458 OFFCURVE",
"397 449 OFFCURVE",
"413 432 CURVE SMOOTH",
"429 415 OFFCURVE",
"429 375 OFFCURVE",
"415 311 CURVE SMOOTH",
"348 22 LINE SMOOTH",
"344 7 OFFCURVE",
"350 0 OFFCURVE",
"365 0 CURVE SMOOTH",
"407 0 LINE SMOOTH",
"421 0 OFFCURVE",
"430 7 OFFCURVE",
"434 22 CURVE SMOOTH",
"506 334 LINE SMOOTH",
"519 392 OFFCURVE",
"516 438 OFFCURVE",
"496 471 CURVE SMOOTH",
"476 504 OFFCURVE",
"438 521 OFFCURVE",
"382 521 CURVE SMOOTH",
"343 521 OFFCURVE",
"308 512 OFFCURVE",
"277 494 CURVE SMOOTH",
"247 477 OFFCURVE",
"222 456 OFFCURVE",
"203 432 CURVE",
"201 432 LINE",
"204 442 OFFCURVE",
"206 452 OFFCURVE",
"208 461 CURVE SMOOTH",
"263 699 LINE SMOOTH",
"266 713 OFFCURVE",
"260 721 OFFCURVE",
"246 721 CURVE SMOOTH",
"204 721 LINE SMOOTH",
"189 721 OFFCURVE",
"180 713 OFFCURVE",
"177 699 CURVE SMOOTH",
"21 22 LINE SMOOTH",
"17 7 OFFCURVE",
"23 0 OFFCURVE",
"38 0 CURVE SMOOTH"
);
}
);
width = 551;
},
{
anchors = (
{
name = mark0;
position = "{0, 0}";
},
{
name = mark1;
position = "{235, 0}";
},
{
name = mark2;
position = "{401, 721}";
}
);
layerId = "60861F18-288B-4955-898F-0966625DD71B";
paths = (
{
closed = 1;
nodes = (
"115 0 LINE SMOOTH",
"135 0 OFFCURVE",
"147 10 OFFCURVE",
"151 29 CURVE SMOOTH",
"192 207 LINE SMOOTH",
"224 348 OFFCURVE",
"278 427 OFFCURVE",
"346 427 CURVE SMOOTH",
"373 427 OFFCURVE",
"391 417 OFFCURVE",
"398 397 CURVE SMOOTH",
"406 378 OFFCURVE",
"402 333 OFFCURVE",
"386 265 CURVE SMOOTH",
"332 29 LINE SMOOTH",
"328 10 OFFCURVE",
"335 0 OFFCURVE",
"354 0 CURVE SMOOTH",
"433 0 LINE SMOOTH",
"452 0 OFFCURVE",
"464 10 OFFCURVE",
"469 29 CURVE SMOOTH",
"531 300 LINE SMOOTH",
"549 378 OFFCURVE",
"545 436 OFFCURVE",
"518 470 CURVE SMOOTH",
"491 505 OFFCURVE",
"454 522 OFFCURVE",
"407 522 CURVE SMOOTH",
"374 522 OFFCURVE",
"346 517 OFFCURVE",
"322 507 CURVE SMOOTH",
"299 497 OFFCURVE",
"274 476 OFFCURVE",
"248 445 CURVE",
"246 445 LINE",
"250 458 OFFCURVE",
"254 471 OFFCURVE",
"257 484 CURVE SMOOTH",
"304 691 LINE SMOOTH",
"309 711 OFFCURVE",
"301 721 OFFCURVE",
"282 721 CURVE SMOOTH",
"204 721 LINE SMOOTH",
"184 721 OFFCURVE",
"172 711 OFFCURVE",
"167 691 CURVE SMOOTH",
"15 29 LINE SMOOTH",
"10 10 OFFCURVE",
"18 0 OFFCURVE",
"37 0 CURVE SMOOTH"
);
}
);
width = 586;
}
);
unicode = 0068;
},
{
glyphname = k;
lastChange = "2016-09-03 11:06:02 +0000";
layers = (
{
anchors = (
{
name = mark0;
position = "{0, 0}";
},
{
name = mark1;
position = "{208, 0}";
},
{
name = mark2;
position = "{375, 721}";
}
);
layerId = UUID0;
paths = (
{
closed = 1;
nodes = (
"80 0 LINE SMOOTH",
"94 0 OFFCURVE",
"103 7 OFFCURVE",
"106 22 CURVE SMOOTH",
"135 143 LINE",
"238 240 LINE",
"329 18 LINE SMOOTH",
"333 6 OFFCURVE",
"341 0 OFFCURVE",
"352 0 CURVE SMOOTH",
"392 0 LINE SMOOTH",
"413 0 OFFCURVE",
"419 10 OFFCURVE",
"411 29 CURVE SMOOTH",
"300 298 LINE",
"500 484 LINE SMOOTH",
"521 503 OFFCURVE",
"518 513 OFFCURVE",
"493 513 CURVE SMOOTH",
"439 513 LINE SMOOTH",
"429 513 OFFCURVE",
"419 508 OFFCURVE",
"410 500 CURVE SMOOTH",
"164 269 LINE",
"163 269 LINE",
"170 298 LINE",
"263 699 LINE SMOOTH",
"266 713 OFFCURVE",
"260 721 OFFCURVE",
"246 721 CURVE SMOOTH",
"204 721 LINE SMOOTH",
"189 721 OFFCURVE",
"180 713 OFFCURVE",
"177 699 CURVE SMOOTH",
"21 22 LINE SMOOTH",
"17 7 OFFCURVE",
"23 0 OFFCURVE",
"38 0 CURVE SMOOTH"
);
}
);
width = 490;
},
{
anchors = (
{
name = mark0;
position = "{0, 0}";
},
{
name = mark1;
position = "{236, 0}";
},
{
name = mark2;
position = "{403, 721}";
}
);
layerId = "60861F18-288B-4955-898F-0966625DD71B";
paths = (
{
closed = 1;
nodes = (
"115 0 LINE SMOOTH",
"135 0 OFFCURVE",
"147 10 OFFCURVE",
"151 29 CURVE SMOOTH",
"173 125 LINE",
"263 210 LINE",
"337 25 LINE SMOOTH",
"344 8 OFFCURVE",
"355 0 OFFCURVE",
"371 0 CURVE SMOOTH",
"441 0 LINE SMOOTH",
"467 0 OFFCURVE",
"475 12 OFFCURVE",
"464 36 CURVE SMOOTH",
"355 295 LINE",
"544 477 LINE SMOOTH",
"569 500 OFFCURVE",
"567 513 OFFCURVE",
"537 513 CURVE SMOOTH",
"444 513 LINE SMOOTH",
"429 513 OFFCURVE",
"415 506 OFFCURVE",
"401 493 CURVE SMOOTH",
"217 312 LINE",
"215 312 LINE",
"219 326 OFFCURVE",
"223 339 OFFCURVE",
"226 351 CURVE SMOOTH",
"304 691 LINE SMOOTH",
"309 711 OFFCURVE",
"301 721 OFFCURVE",
"282 721 CURVE SMOOTH",
"204 721 LINE SMOOTH",
"184 721 OFFCURVE",
"172 711 OFFCURVE",
"167 691 CURVE SMOOTH",
"15 29 LINE SMOOTH",
"10 10 OFFCURVE",
"18 0 OFFCURVE",
"37 0 CURVE SMOOTH"
);
}
);
width = 546;
}
);
unicode = 006B;
},
{
glyphname = l;
lastChange = "2016-09-03 11:06:02 +0000";
layers = (
{
anchors = (
{
name = mark0;
position = "{0, 0}";
},
{
name = mark1;
position = "{54, 0}";
},
{
name = mark2;
position = "{220, 721}";
}
);
layerId = UUID0;
paths = (
{
closed = 1;
nodes = (
"80 0 LINE SMOOTH",
"94 0 OFFCURVE",
"103 7 OFFCURVE",
"106 22 CURVE SMOOTH",
"266 712 LINE SMOOTH",
"269 723 OFFCURVE",
"265 729 OFFCURVE",
"255 729 CURVE SMOOTH",
"238 729 LINE SMOOTH",
"234 729 OFFCURVE",
"228 723 OFFCURVE",
"219 712 CURVE SMOOTH",
"170 650 LINE SMOOTH",
"166 644 OFFCURVE",
"163 638 OFFCURVE",
"162 631 CURVE SMOOTH",
"21 22 LINE SMOOTH",
"17 7 OFFCURVE",
"23 0 OFFCURVE",
"38 0 CURVE SMOOTH"
);
}
);
width = 225;
},
{
anchors = (
{
name = mark0;
position = "{0, 0}";
},
{
name = mark1;
position = "{76, 0}";
},
{
name = mark2;
position = "{243, 721}";
}
);
layerId = "60861F18-288B-4955-898F-0966625DD71B";
paths = (
{
closed = 1;
nodes = (
"115 0 LINE SMOOTH",
"135 0 OFFCURVE",
"147 10 OFFCURVE",
"151 29 CURVE SMOOTH",
"307 701 LINE SMOOTH",
"311 721 OFFCURVE",
"303 730 OFFCURVE",
"284 730 CURVE SMOOTH",
"250 730 LINE SMOOTH",
"240 730 OFFCURVE",
"230 724 OFFCURVE",
"220 712 CURVE SMOOTH",
"167 646 LINE",
"158 634 OFFCURVE",
"151 621 OFFCURVE",
"148 606 CURVE SMOOTH",
"15 29 LINE SMOOTH",
"10 10 OFFCURVE",
"18 0 OFFCURVE",
"37 0 CURVE SMOOTH"
);
}
);
width = 270;
}
);
unicode = 006C;
},
{
glyphname = m;
lastChange = "2016-09-03 11:06:02 +0000";
layers = (
{
anchors = (
{
name = mark0;
position = "{0, 0}";
},
{
name = mark1;
position = "{352, 0}";
},
{
name = mark2;
position = "{472, 521}";
}
);
layerId = UUID0;
paths = (
{
closed = 1;
nodes = (
"80 0 LINE SMOOTH",
"94 0 OFFCURVE",
"103 7 OFFCURVE",
"106 22 CURVE SMOOTH",
"164 271 LINE SMOOTH",
"175 319 OFFCURVE",
"197 363 OFFCURVE",
"229 400 CURVE SMOOTH",
"261 438 OFFCURVE",
"292 458 OFFCURVE",
"321 458 CURVE SMOOTH",
"357 458 OFFCURVE",
"380 448 OFFCURVE",
"391 429 CURVE SMOOTH",
"401 410 OFFCURVE",
"399 369 OFFCURVE",
"384 306 CURVE SMOOTH",
"318 22 LINE SMOOTH",
"315 7 OFFCURVE",
"321 0 OFFCURVE",
"335 0 CURVE SMOOTH",
"377 0 LINE SMOOTH",
"392 0 OFFCURVE",
"401 7 OFFCURVE",
"404 22 CURVE SMOOTH",
"462 271 LINE SMOOTH",
"473 317 OFFCURVE",
"494 359 OFFCURVE",
"526 398 CURVE SMOOTH",
"559 438 OFFCURVE",
"590 458 OFFCURVE",
"619 458 CURVE SMOOTH",
"655 458 OFFCURVE",
"678 448 OFFCURVE",
"688 429 CURVE SMOOTH",
"699 410 OFFCURVE",
"697 369 OFFCURVE",
"682 306 CURVE SMOOTH",
"616 22 LINE SMOOTH",
"613 7 OFFCURVE",
"619 0 OFFCURVE",
"633 0 CURVE SMOOTH",
"675 0 LINE SMOOTH",
"690 0 OFFCURVE",
"699 7 OFFCURVE",
"702 22 CURVE SMOOTH",
"774 334 LINE SMOOTH",
"788 392 OFFCURVE",
"784 438 OFFCURVE",
"762 471 CURVE SMOOTH",
"740 504 OFFCURVE",
"706 521 OFFCURVE",
"661 521 CURVE SMOOTH",
"623 521 OFFCURVE",
"589 509 OFFCURVE",
"557 484 CURVE SMOOTH",
"526 459 OFFCURVE",
"500 434 OFFCURVE",
"479 407 CURVE",
"478 407 LINE",
"478 438 OFFCURVE",
"467 464 OFFCURVE",
"447 487 CURVE",
"427 510 OFFCURVE",
"398 521 OFFCURVE",
"363 521 CURVE SMOOTH",
"333 521 OFFCURVE",
"304 512 OFFCURVE",
"275 494 CURVE SMOOTH",
"246 476 OFFCURVE",
"222 456 OFFCURVE",
"203 432 CURVE",
"201 432 LINE",
"214 491 LINE SMOOTH",
"217 505 OFFCURVE",
"211 513 OFFCURVE",
"197 513 CURVE SMOOTH",
"156 513 LINE SMOOTH",
"141 513 OFFCURVE",
"132 505 OFFCURVE",
"129 491 CURVE SMOOTH",
"21 22 LINE SMOOTH",
"17 7 OFFCURVE",
"23 0 OFFCURVE",
"38 0 CURVE SMOOTH"
);
}
);
width = 819;
},
{
anchors = (
{
name = mark0;
position = "{0, 0}";
},
{
name = mark1;
position = "{369, 0}";
},
{
name = mark2;
position = "{490, 522}";
}
);
layerId = "60861F18-288B-4955-898F-0966625DD71B";
paths = (
{
closed = 1;
nodes = (
"115 0 LINE SMOOTH",
"135 0 OFFCURVE",
"147 10 OFFCURVE",
"151 29 CURVE SMOOTH",
"191 201 LINE SMOOTH",
"209 280 OFFCURVE",
"232 337 OFFCURVE",
"259 373 CURVE SMOOTH",
"287 409 OFFCURVE",
"312 427 OFFCURVE",
"334 427 CURVE SMOOTH",
"358 427 OFFCURVE",
"372 413 OFFCURVE",
"375 385 CURVE",
"378 358 OFFCURVE",
"372 311 OFFCURVE",
"357 244 CURVE SMOOTH",
"308 29 LINE SMOOTH",
"303 10 OFFCURVE",
"311 0 OFFCURVE",
"330 0 CURVE SMOOTH",
"408 0 LINE SMOOTH",
"428 0 OFFCURVE",
"440 10 OFFCURVE",
"444 29 CURVE SMOOTH",
"484 201 LINE SMOOTH",
"506 298 OFFCURVE",
"530 360 OFFCURVE",
"555 387 CURVE SMOOTH",
"580 414 OFFCURVE",
"604 427 OFFCURVE",
"627 427 CURVE SMOOTH",
"676 427 OFFCURVE",
"680 376 OFFCURVE",
"652 254 CURVE SMOOTH",
"601 29 LINE SMOOTH",
"596 10 OFFCURVE",
"604 0 OFFCURVE",
"623 0 CURVE SMOOTH",
"701 0 LINE SMOOTH",
"721 0 OFFCURVE",
"733 10 OFFCURVE",
"737 29 CURVE SMOOTH",
"798 293 LINE SMOOTH",
"818 377 OFFCURVE",
"814 436 OFFCURVE",
"787 471 CURVE SMOOTH",
"759 505 OFFCURVE",
"724 522 OFFCURVE",
"680 522 CURVE SMOOTH",
"596 522 OFFCURVE",
"541 482 OFFCURVE",
"493 410 CURVE",
"491 410 LINE",
"491 438 OFFCURVE",
"482 464 OFFCURVE",
"464 487 CURVE",
"447 511 OFFCURVE",
"417 522 OFFCURVE",
"377 522 CURVE SMOOTH",
"352 522 OFFCURVE",
"328 514 OFFCURVE",
"305 498 CURVE SMOOTH",
"281 481 OFFCURVE",
"262 462 OFFCURVE",
"247 439 CURVE",
"245 439 LINE",
"255 483 LINE SMOOTH",
"260 503 OFFCURVE",
"252 513 OFFCURVE",
"232 513 CURVE SMOOTH",
"155 513 LINE SMOOTH",
"136 513 OFFCURVE",
"124 503 OFFCURVE",
"120 483 CURVE SMOOTH",
"15 29 LINE SMOOTH",
"10 10 OFFCURVE",
"18 0 OFFCURVE",
"37 0 CURVE SMOOTH"
);
}
);
width = 854;
}
);
unicode = 006D;
},
{
glyphname = n;
lastChange = "2016-09-03 11:06:02 +0000";
layers = (
{
anchors = (
{
name = mark0;
position = "{0, 0}";
},
{
name = mark1;
position = "{217, 0}";
},
{
name = mark2;
position = "{337, 521}";
}
);
layerId = UUID0;
paths = (
{
closed = 1;
nodes = (
"80 0 LINE SMOOTH",
"94 0 OFFCURVE",
"103 7 OFFCURVE",
"106 22 CURVE SMOOTH",
"164 271 LINE SMOOTH",
"175 319 OFFCURVE",
"197 363 OFFCURVE",
"229 400 CURVE SMOOTH",
"261 438 OFFCURVE",
"297 458 OFFCURVE",
"336 458 CURVE SMOOTH",
"372 458 OFFCURVE",
"397 449 OFFCURVE",
"413 432 CURVE SMOOTH",
"429 415 OFFCURVE",
"429 375 OFFCURVE",
"415 311 CURVE SMOOTH",
"348 22 LINE SMOOTH",
"344 7 OFFCURVE",
"350 0 OFFCURVE",
"365 0 CURVE SMOOTH",
"407 0 LINE SMOOTH",
"421 0 OFFCURVE",
"430 7 OFFCURVE",
"434 22 CURVE SMOOTH",
"506 334 LINE SMOOTH",
"519 392 OFFCURVE",
"516 438 OFFCURVE",
"496 471 CURVE SMOOTH",
"476 504 OFFCURVE",
"438 521 OFFCURVE",
"382 521 CURVE SMOOTH",
"343 521 OFFCURVE",
"308 512 OFFCURVE",
"277 494 CURVE SMOOTH",
"247 477 OFFCURVE",
"222 456 OFFCURVE",
"203 432 CURVE",
"201 432 LINE",
"214 491 LINE SMOOTH",
"217 505 OFFCURVE",
"211 513 OFFCURVE",
"197 513 CURVE SMOOTH",
"156 513 LINE SMOOTH",
"141 513 OFFCURVE",
"132 505 OFFCURVE",
"129 491 CURVE SMOOTH",
"21 22 LINE SMOOTH",
"17 7 OFFCURVE",
"23 0 OFFCURVE",
"38 0 CURVE SMOOTH"
);
}
);
width = 551;
},
{
anchors = (
{
name = mark0;
position = "{0, 0}";
},
{
name = mark1;
position = "{235, 0}";
},
{
name = mark2;
position = "{355, 522}";
}
);
layerId = "60861F18-288B-4955-898F-0966625DD71B";
paths = (
{
closed = 1;
nodes = (
"115 0 LINE SMOOTH",
"135 0 OFFCURVE",
"147 10 OFFCURVE",
"151 29 CURVE SMOOTH",
"192 207 LINE SMOOTH",
"224 348 OFFCURVE",
"278 427 OFFCURVE",
"346 427 CURVE SMOOTH",
"373 427 OFFCURVE",
"391 417 OFFCURVE",
"398 397 CURVE SMOOTH",
"406 378 OFFCURVE",
"402 333 OFFCURVE",
"386 265 CURVE SMOOTH",
"332 29 LINE SMOOTH",
"328 10 OFFCURVE",
"335 0 OFFCURVE",
"354 0 CURVE SMOOTH",
"433 0 LINE SMOOTH",
"452 0 OFFCURVE",
"464 10 OFFCURVE",
"469 29 CURVE SMOOTH",
"531 300 LINE SMOOTH",
"549 378 OFFCURVE",
"545 436 OFFCURVE",
"518 470 CURVE SMOOTH",
"491 505 OFFCURVE",
"454 522 OFFCURVE",
"407 522 CURVE SMOOTH",
"374 522 OFFCURVE",
"346 517 OFFCURVE",
"322 507 CURVE SMOOTH",
"299 497 OFFCURVE",
"274 476 OFFCURVE",
"248 445 CURVE",
"246 445 LINE",
"255 483 LINE SMOOTH",
"260 503 OFFCURVE",
"252 513 OFFCURVE",
"232 513 CURVE SMOOTH",
"155 513 LINE SMOOTH",
"136 513 OFFCURVE",
"124 503 OFFCURVE",
"120 483 CURVE SMOOTH",
"15 29 LINE SMOOTH",
"10 10 OFFCURVE",
"18 0 OFFCURVE",
"37 0 CURVE SMOOTH"
);
}
);
width = 586;
}
);
unicode = 006E;
},
{
glyphname = o;
lastChange = "2016-09-03 11:06:02 +0000";
layers = (
{
anchors = (
{
name = mark0;
position = "{240, 0}";
},
{
name = mark1;
position = "{240, 0}";
},
{
name = mark2;
position = "{322, 521}";
}
);
layerId = UUID0;
paths = (
{
closed = 1;
nodes = (
"33 147 OFFCURVE",
"48 101 OFFCURVE",
"79 57 CURVE SMOOTH",
"109 14 OFFCURVE",
"162 -8 OFFCURVE",
"238 -8 CURVE SMOOTH",
"325 -8 OFFCURVE",
"394 24 OFFCURVE",
"447 89 CURVE SMOOTH",
"500 155 OFFCURVE",
"527 230 OFFCURVE",
"527 316 CURVE SMOOTH",
"527 365 OFFCURVE",
"512 412 OFFCURVE",
"482 455 CURVE SMOOTH",
"452 499 OFFCURVE",
"398 521 OFFCURVE",
"322 521 CURVE SMOOTH",
"236 521 OFFCURVE",
"166 488 OFFCURVE",
"113 423 CURVE SMOOTH",
"60 358 OFFCURVE",
"33 282 OFFCURVE",
"33 196 CURVE SMOOTH"
);
},
{
closed = 1;
nodes = (
"124 276 OFFCURVE",
"143 342 OFFCURVE",
"182 388 CURVE SMOOTH",
"220 435 OFFCURVE",
"265 458 OFFCURVE",
"316 458 CURVE SMOOTH",
"358 458 OFFCURVE",
"389 445 OFFCURVE",
"408 421 CURVE SMOOTH",
"427 397 OFFCURVE",
"437 364 OFFCURVE",
"437 324 CURVE SMOOTH",
"437 237 OFFCURVE",
"417 170 OFFCURVE",
"378 124 CURVE SMOOTH",
"340 78 OFFCURVE",
"295 55 OFFCURVE",
"245 55 CURVE SMOOTH",
"202 55 OFFCURVE",
"171 67 OFFCURVE",
"152 91 CURVE SMOOTH",
"133 116 OFFCURVE",
"124 148 OFFCURVE",
"124 189 CURVE SMOOTH"
);
}
);
width = 561;
},
{
anchors = (
{
name = mark0;
position = "{255, 0}";
},
{
name = mark1;
position = "{255, 0}";
},
{
name = mark2;
position = "{337, 522}";
}
);
layerId = "60861F18-288B-4955-898F-0966625DD71B";
paths = (
{
closed = 1;
nodes = (
"28 144 OFFCURVE",
"44 95 OFFCURVE",
"77 53 CURVE SMOOTH",
"110 11 OFFCURVE",
"168 -10 OFFCURVE",
"253 -10 CURVE SMOOTH",
"351 -10 OFFCURVE",
"426 25 OFFCURVE",
"480 96 CURVE SMOOTH",
"535 167 OFFCURVE",
"562 238 OFFCURVE",
"562 312 CURVE SMOOTH",
"562 369 OFFCURVE",
"545 418 OFFCURVE",
"513 459 CURVE SMOOTH",
"480 501 OFFCURVE",
"421 522 OFFCURVE",
"337 522 CURVE SMOOTH",
"239 522 OFFCURVE",
"164 487 OFFCURVE",
"109 417 CURVE SMOOTH",
"55 346 OFFCURVE",
"28 274 OFFCURVE",
"28 201 CURVE SMOOTH"
);
},
{
closed = 1;
nodes = (
"173 264 OFFCURVE",
"188 322 OFFCURVE",
"220 364 CURVE SMOOTH",
"251 406 OFFCURVE",
"288 427 OFFCURVE",
"328 427 CURVE SMOOTH",
"383 427 OFFCURVE",
"417 389 OFFCURVE",
"417 324 CURVE SMOOTH",
"417 249 OFFCURVE",
"401 190 OFFCURVE",
"370 148 CURVE SMOOTH",
"338 107 OFFCURVE",
"302 86 OFFCURVE",
"262 86 CURVE SMOOTH",
"207 86 OFFCURVE",
"173 124 OFFCURVE",
"173 189 CURVE SMOOTH"
);
}
);
width = 589;
}
);
unicode = 006F;
},
{
glyphname = p;
lastChange = "2016-09-03 11:06:02 +0000";
layers = (
{
anchors = (
{
name = mark0;
position = "{0, 0}";
},
{
name = mark1;
position = "{184, -195}";
},
{
name = mark2;
position = "{349, 521}";
}
);
layerId = UUID0;
paths = (
{
closed = 1;
nodes = (
"35 -195 LINE",
"49 -195 OFFCURVE",
"58 -188 OFFCURVE",
"62 -173 CURVE SMOOTH",
"108 28 LINE SMOOTH",
"110 39 OFFCURVE",
"112 48 OFFCURVE",
"114 58 CURVE",
"115 58 LINE",
"131 36 OFFCURVE",
"150 19 OFFCURVE",
"170 8 CURVE SMOOTH",
"190 -3 OFFCURVE",
"218 -8 OFFCURVE",
"254 -8 CURVE SMOOTH",
"325 -8 OFFCURVE",
"387 27 OFFCURVE",
"439 97 CURVE SMOOTH",
"492 168 OFFCURVE",
"518 245 OFFCURVE",
"518 328 CURVE SMOOTH",
"518 381 OFFCURVE",
"506 426 OFFCURVE",
"481 464 CURVE",
"458 502 OFFCURVE",
"415 521 OFFCURVE",
"353 521 CURVE SMOOTH",
"327 521 OFFCURVE",
"298 513 OFFCURVE",
"268 496 CURVE SMOOTH",
"238 479 OFFCURVE",
"215 458 OFFCURVE",
"201 432 CURVE",
"200 432 LINE",
"211 491 LINE SMOOTH",
"213 505 OFFCURVE",
"209 513 OFFCURVE",
"197 513 CURVE SMOOTH",
"156 513 LINE SMOOTH",
"141 513 OFFCURVE",
"132 505 OFFCURVE",
"129 491 CURVE SMOOTH",
"-24 -173 LINE SMOOTH",
"-28 -188 OFFCURVE",
"-22 -195 OFFCURVE",
"-7 -195 CURVE SMOOTH"
);
},
{
closed = 1;
nodes = (
"166 278 LINE",
"176 321 OFFCURVE",
"198 362 OFFCURVE",
"230 400 CURVE SMOOTH",
"264 438 OFFCURVE",
"296 458 OFFCURVE",
"328 458 CURVE SMOOTH",
"365 458 OFFCURVE",
"391 445 OFFCURVE",
"405 419 CURVE SMOOTH",
"420 395 OFFCURVE",
"427 365 OFFCURVE",
"427 331 CURVE SMOOTH",
"427 257 OFFCURVE",
"410 193 OFFCURVE",
"375 138 CURVE SMOOTH",
"339 83 OFFCURVE",
"297 55 OFFCURVE",
"248 55 CURVE SMOOTH",
"211 55 OFFCURVE",
"184 62 OFFCURVE",
"166 74 CURVE SMOOTH",
"148 86 OFFCURVE",
"138 109 OFFCURVE",
"134 142 CURVE"
);
}
);
width = 546;
},
{
anchors = (
{
name = mark0;
position = "{0, 0}";
},
{
name = mark1;
position = "{202, -195}";
},
{
name = mark2;
position = "{368, 522}";
}
);
layerId = "60861F18-288B-4955-898F-0966625DD71B";
paths = (
{
closed = 1;
nodes = (
"70 -195 LINE",
"90 -195 OFFCURVE",
"102 -186 OFFCURVE",
"106 -166 CURVE SMOOTH",
"146 8 LINE SMOOTH",
"149 20 OFFCURVE",
"152 33 OFFCURVE",
"153 47 CURVE",
"155 47 LINE",
"171 21 OFFCURVE",
"192 6 OFFCURVE",
"218 0 CURVE SMOOTH",
"243 -7 OFFCURVE",
"268 -10 OFFCURVE",
"291 -10 CURVE SMOOTH",
"360 -10 OFFCURVE",
"420 23 OFFCURVE",
"473 90 CURVE SMOOTH",
"525 156 OFFCURVE",
"551 232 OFFCURVE",
"551 318 CURVE SMOOTH",
"551 370 OFFCURVE",
"538 417 OFFCURVE",
"511 459 CURVE SMOOTH",
"484 501 OFFCURVE",
"438 522 OFFCURVE",
"374 522 CURVE SMOOTH",
"350 522 OFFCURVE",
"329 517 OFFCURVE",
"311 505 CURVE SMOOTH",
"292 493 OFFCURVE",
"271 473 OFFCURVE",
"248 445 CURVE",
"246 445 LINE",
"252 483 LINE SMOOTH",
"256 503 OFFCURVE",
"250 513 OFFCURVE",
"232 513 CURVE SMOOTH",
"155 513 LINE SMOOTH",
"136 513 OFFCURVE",
"124 503 OFFCURVE",
"120 483 CURVE SMOOTH",
"-30 -166 LINE SMOOTH",
"-35 -186 OFFCURVE",
"-27 -195 OFFCURVE",
"-8 -195 CURVE SMOOTH"
);
},
{
closed = 1;
nodes = (
"204 258 LINE",
"217 313 OFFCURVE",
"236 354 OFFCURVE",
"262 383 CURVE SMOOTH",
"289 412 OFFCURVE",
"313 427 OFFCURVE",
"336 427 CURVE SMOOTH",
"380 427 OFFCURVE",
"407 395 OFFCURVE",
"407 327 CURVE SMOOTH",
"407 265 OFFCURVE",
"395 209 OFFCURVE",
"370 160 CURVE SMOOTH",
"346 111 OFFCURVE",
"312 86 OFFCURVE",
"268 86 CURVE SMOOTH",
"235 86 OFFCURVE",
"213 94 OFFCURVE",
"202 110 CURVE SMOOTH",
"191 126 OFFCURVE",
"186 149 OFFCURVE",
"186 181 CURVE"
);
}
);
width = 582;
}
);
unicode = 0070;
},
{
glyphname = q;
lastChange = "2016-09-03 11:06:02 +0000";
layers = (
{
anchors = (
{
name = mark0;
position = "{0, 0}";
},
{
name = mark1;
position = "{155, -195}";
},
{
name = mark2;
position = "{320, 521}";
}
);
layerId = UUID0;
paths = (
{
closed = 1;
nodes = (
"34 132 OFFCURVE",
"46 86 OFFCURVE",
"70 48 CURVE",
"95 11 OFFCURVE",
"138 -8 OFFCURVE",
"200 -8 CURVE SMOOTH",
"226 -8 OFFCURVE",
"254 0 OFFCURVE",
"284 17 CURVE SMOOTH",
"314 34 OFFCURVE",
"337 55 OFFCURVE",
"351 81 CURVE",
"352 81 LINE",
"350 73 OFFCURVE",
"347 63 OFFCURVE",
"344 51 CURVE SMOOTH",
"292 -173 LINE SMOOTH",
"289 -188 OFFCURVE",
"295 -195 OFFCURVE",
"310 -195 CURVE SMOOTH",
"352 -195 LINE SMOOTH",
"366 -195 OFFCURVE",
"375 -188 OFFCURVE",
"378 -173 CURVE SMOOTH",
"532 491 LINE SMOOTH",
"535 505 OFFCURVE",
"529 513 OFFCURVE",
"515 513 CURVE SMOOTH",
"474 513 LINE SMOOTH",
"462 513 OFFCURVE",
"454 505 OFFCURVE",
"450 491 CURVE SMOOTH",
"438 455 LINE",
"438 455 LINE",
"421 477 OFFCURVE",
"402 494 OFFCURVE",
"382 504 CURVE SMOOTH",
"362 516 OFFCURVE",
"334 521 OFFCURVE",
"298 521 CURVE SMOOTH",
"227 521 OFFCURVE",
"165 486 OFFCURVE",
"113 415 CURVE SMOOTH",
"61 345 OFFCURVE",
"34 268 OFFCURVE",
"34 185 CURVE SMOOTH"
);
},
{
closed = 1;
nodes = (
"125 255 OFFCURVE",
"143 319 OFFCURVE",
"178 375 CURVE SMOOTH",
"213 430 OFFCURVE",
"255 458 OFFCURVE",
"305 458 CURVE SMOOTH",
"341 458 OFFCURVE",
"368 451 OFFCURVE",
"386 438 CURVE SMOOTH",
"404 426 OFFCURVE",
"415 404 OFFCURVE",
"418 371 CURVE",
"386 234 LINE SMOOTH",
"376 191 OFFCURVE",
"354 151 OFFCURVE",
"321 112 CURVE SMOOTH",
"289 74 OFFCURVE",
"256 55 OFFCURVE",
"224 55 CURVE SMOOTH",
"188 55 OFFCURVE",
"162 68 OFFCURVE",
"147 93 CURVE SMOOTH",
"132 118 OFFCURVE",
"125 148 OFFCURVE",
"125 182 CURVE SMOOTH"
);
}
);
width = 546;
},
{
anchors = (
{
name = mark0;
position = "{0, 0}";
},
{
name = mark1;
position = "{172, -195}";
},
{
name = mark2;
position = "{338, 522}";
}
);
layerId = "60861F18-288B-4955-898F-0966625DD71B";
paths = (
{
closed = 1;
nodes = (
"32 143 OFFCURVE",
"45 96 OFFCURVE",
"72 54 CURVE SMOOTH",
"99 11 OFFCURVE",
"145 -10 OFFCURVE",
"209 -10 CURVE SMOOTH",
"233 -10 OFFCURVE",
"254 -4 OFFCURVE",
"273 8 CURVE SMOOTH",
"292 20 OFFCURVE",
"313 40 OFFCURVE",
"336 67 CURVE",
"338 67 LINE",
"334 55 OFFCURVE",
"331 42 OFFCURVE",
"327 28 CURVE SMOOTH",
"282 -166 LINE SMOOTH",
"278 -186 OFFCURVE",
"285 -195 OFFCURVE",
"305 -195 CURVE SMOOTH",
"383 -195 LINE SMOOTH",
"402 -195 OFFCURVE",
"415 -186 OFFCURVE",
"419 -166 CURVE SMOOTH",
"569 483 LINE SMOOTH",
"573 503 OFFCURVE",
"566 513 OFFCURVE",
"546 513 CURVE SMOOTH",
"469 513 LINE SMOOTH",
"454 513 OFFCURVE",
"442 503 OFFCURVE",
"436 483 CURVE SMOOTH",
"430 466 LINE",
"428 466 LINE",
"412 491 OFFCURVE",
"391 507 OFFCURVE",
"366 513 CURVE SMOOTH",
"340 520 OFFCURVE",
"316 522 OFFCURVE",
"292 522 CURVE SMOOTH",
"224 522 OFFCURVE",
"163 489 OFFCURVE",
"110 423 CURVE SMOOTH",
"58 356 OFFCURVE",
"32 280 OFFCURVE",
"32 195 CURVE SMOOTH"
);
},
{
closed = 1;
nodes = (
"177 248 OFFCURVE",
"189 303 OFFCURVE",
"213 353 CURVE SMOOTH",
"238 402 OFFCURVE",
"272 427 OFFCURVE",
"316 427 CURVE SMOOTH",
"349 427 OFFCURVE",
"370 419 OFFCURVE",
"381 403 CURVE SMOOTH",
"392 387 OFFCURVE",
"397 363 OFFCURVE",
"397 332 CURVE",
"379 255 LINE SMOOTH",
"367 200 OFFCURVE",
"347 158 OFFCURVE",
"321 129 CURVE SMOOTH",
"295 101 OFFCURVE",
"271 86 OFFCURVE",
"248 86 CURVE SMOOTH",
"203 86 OFFCURVE",
"177 118 OFFCURVE",
"177 186 CURVE SMOOTH"
);
}
);
width = 582;
}
);
unicode = 0071;
},
{
glyphname = r;
lastChange = "2016-09-03 11:06:02 +0000";
layers = (
{
anchors = (
{
name = mark0;
position = "{0, 0}";
},
{
name = mark1;
position = "{54, 0}";
},
{
name = mark2;
position = "{272, 521}";
}
);
layerId = UUID0;
paths = (
{
closed = 1;
nodes = (
"80 0 LINE SMOOTH",
"94 0 OFFCURVE",
"103 7 OFFCURVE",
"106 22 CURVE SMOOTH",
"159 246 LINE SMOOTH",
"170 295 OFFCURVE",
"194 342 OFFCURVE",
"230 388 CURVE SMOOTH",
"267 435 OFFCURVE",
"303 458 OFFCURVE",
"338 458 CURVE SMOOTH",
"350 458 OFFCURVE",
"361 457 OFFCURVE",
"372 454 CURVE SMOOTH",
"379 453 OFFCURVE",
"384 455 OFFCURVE",
"386 461 CURVE SMOOTH",
"402 501 LINE SMOOTH",
"405 508 OFFCURVE",
"404 513 OFFCURVE",
"397 516 CURVE SMOOTH",
"390 519 OFFCURVE",
"376 521 OFFCURVE",
"357 521 CURVE SMOOTH",
"290 521 OFFCURVE",
"245 486 OFFCURVE",
"198 413 CURVE",
"196 413 LINE",
"214 491 LINE SMOOTH",
"217 505 OFFCURVE",
"211 513 OFFCURVE",
"197 513 CURVE SMOOTH",
"156 513 LINE SMOOTH",
"141 513 OFFCURVE",
"132 505 OFFCURVE",
"129 491 CURVE SMOOTH",
"21 22 LINE SMOOTH",
"17 7 OFFCURVE",
"23 0 OFFCURVE",
"38 0 CURVE SMOOTH"
);
}
);
width = 353;
},
{
anchors = (
{
name = mark0;
position = "{0, 0}";
},
{
name = mark1;
position = "{76, 0}";
},
{
name = mark2;
position = "{288, 522}";
}
);
layerId = "60861F18-288B-4955-898F-0966625DD71B";
paths = (
{
closed = 1;
nodes = (
"115 0 LINE SMOOTH",
"135 0 OFFCURVE",
"147 10 OFFCURVE",
"151 29 CURVE SMOOTH",
"184 169 LINE SMOOTH",
"203 252 OFFCURVE",
"228 316 OFFCURVE",
"260 360 CURVE SMOOTH",
"292 405 OFFCURVE",
"322 427 OFFCURVE",
"352 427 CURVE SMOOTH",
"361 427 OFFCURVE",
"370 425 OFFCURVE",
"378 422 CURVE SMOOTH",
"392 417 OFFCURVE",
"402 421 OFFCURVE",
"407 434 CURVE SMOOTH",
"428 492 LINE SMOOTH",
"433 504 OFFCURVE",
"430 512 OFFCURVE",
"420 516 CURVE SMOOTH",
"409 520 OFFCURVE",
"395 522 OFFCURVE",
"375 522 CURVE SMOOTH",
"347 522 OFFCURVE",
"321 513 OFFCURVE",
"297 494 CURVE SMOOTH",
"274 475 OFFCURVE",
"255 451 OFFCURVE",
"242 423 CURVE",
"240 423 LINE",
"253 483 LINE SMOOTH",
"258 503 OFFCURVE",
"250 513 OFFCURVE",
"230 513 CURVE SMOOTH",
"155 513 LINE SMOOTH",
"136 513 OFFCURVE",
"124 503 OFFCURVE",
"120 483 CURVE SMOOTH",
"15 29 LINE SMOOTH",
"10 10 OFFCURVE",
"18 0 OFFCURVE",
"37 0 CURVE SMOOTH"
);
}
);
width = 384;
}
);
unicode = 0072;
},
{
glyphname = s;
lastChange = "2016-09-03 11:06:02 +0000";
layers = (
{
anchors = (
{
name = mark0;
position = "{0, 0}";
},
{
name = mark1;
position = "{188, 0}";
},
{
name = mark2;
position = "{272, 521}";
}
);
layerId = UUID0;
paths = (
{
closed = 1;
nodes = (
"36 37 OFFCURVE",
"56 24 OFFCURVE",
"84 11 CURVE SMOOTH",
"112 -2 OFFCURVE",
"149 -8 OFFCURVE",
"196 -8 CURVE SMOOTH",
"271 -8 OFFCURVE",
"328 5 OFFCURVE",
"373 52 CURVE SMOOTH",
"396 76 OFFCURVE",
"407 106 OFFCURVE",
"407 142 CURVE",
"408 198 OFFCURVE",
"385 242 OFFCURVE",
"314 271 CURVE",
"289 283 OFFCURVE",
"256 293 OFFCURVE",
"222 309 CURVE",
"192 320 OFFCURVE",
"171 346 OFFCURVE",
"173 382 CURVE",
"173 415 OFFCURVE",
"196 439 OFFCURVE",
"230 448 CURVE SMOOTH",
"248 453 OFFCURVE",
"265 455 OFFCURVE",
"280 455 CURVE SMOOTH",
"316 455 OFFCURVE",
"352 442 OFFCURVE",
"377 424 CURVE SMOOTH",
"392 414 OFFCURVE",
"402 412 OFFCURVE",
"409 418 CURVE SMOOTH",
"433 446 LINE SMOOTH",
"441 455 OFFCURVE",
"441 464 OFFCURVE",
"431 472 CURVE SMOOTH",
"396 501 OFFCURVE",
"345 521 OFFCURVE",
"283 521 CURVE SMOOTH",
"247 521 OFFCURVE",
"213 516 OFFCURVE",
"182 506 CURVE SMOOTH",
"151 496 OFFCURVE",
"128 478 OFFCURVE",
"112 452 CURVE SMOOTH",
"96 427 OFFCURVE",
"87 401 OFFCURVE",
"87 374 CURVE",
"86 322 OFFCURVE",
"116 271 OFFCURVE",
"162 249 CURVE",
"192 235 OFFCURVE",
"231 219 OFFCURVE",
"258 209 CURVE SMOOTH",
"278 201 OFFCURVE",
"302 188 OFFCURVE",
"310 168 CURVE SMOOTH",
"314 158 OFFCURVE",
"316 146 OFFCURVE",
"316 132 CURVE SMOOTH",
"316 118 OFFCURVE",
"310 104 OFFCURVE",
"299 90 CURVE SMOOTH",
"288 76 OFFCURVE",
"273 67 OFFCURVE",
"255 62 CURVE SMOOTH",
"238 58 OFFCURVE",
"221 55 OFFCURVE",
"203 55 CURVE SMOOTH",
"156 55 OFFCURVE",
"113 73 OFFCURVE",
"76 101 CURVE SMOOTH",
"62 112 OFFCURVE",
"51 113 OFFCURVE",
"44 105 CURVE SMOOTH",
"20 77 LINE SMOOTH",
"13 69 OFFCURVE",
"15 60 OFFCURVE",
"24 50 CURVE SMOOTH"
);
}
);
width = 458;
},
{
anchors = (
{
name = mark0;
position = "{0, 0}";
},
{
name = mark1;
position = "{208, 0}";
},
{
name = mark2;
position = "{300, 522}";
}
);
layerId = "60861F18-288B-4955-898F-0966625DD71B";
paths = (
{
closed = 1;
nodes = (
"43 18 OFFCURVE",
"68 6 OFFCURVE",
"96 0 CURVE SMOOTH",
"123 -6 OFFCURVE",
"160 -10 OFFCURVE",
"206 -10 CURVE SMOOTH",
"244 -10 OFFCURVE",
"280 -5 OFFCURVE",
"313 4 CURVE SMOOTH",
"346 14 OFFCURVE",
"374 33 OFFCURVE",
"397 61 CURVE SMOOTH",
"420 90 OFFCURVE",
"432 120 OFFCURVE",
"432 152 CURVE SMOOTH",
"432 216 OFFCURVE",
"406 251 OFFCURVE",
"341 283 CURVE",
"308 298 OFFCURVE",
"283 306 OFFCURVE",
"255 318 CURVE SMOOTH",
"238 325 OFFCURVE",
"222 340 OFFCURVE",
"217 354 CURVE SMOOTH",
"215 360 OFFCURVE",
"214 367 OFFCURVE",
"214 375 CURVE SMOOTH",
"213 414 OFFCURVE",
"258 429 OFFCURVE",
"291 427 CURVE",
"307 427 OFFCURVE",
"323 424 OFFCURVE",
"340 419 CURVE SMOOTH",
"357 414 OFFCURVE",
"371 408 OFFCURVE",
"381 402 CURVE SMOOTH",
"401 390 OFFCURVE",
"416 390 OFFCURVE",
"425 401 CURVE SMOOTH",
"456 441 LINE SMOOTH",
"468 457 OFFCURVE",
"464 470 OFFCURVE",
"445 482 CURVE SMOOTH",
"429 492 OFFCURVE",
"408 501 OFFCURVE",
"381 510 CURVE SMOOTH",
"355 518 OFFCURVE",
"328 522 OFFCURVE",
"300 522 CURVE SMOOTH",
"210 522 OFFCURVE",
"147 506 OFFCURVE",
"108 454 CURVE SMOOTH",
"88 428 OFFCURVE",
"79 398 OFFCURVE",
"79 366 CURVE",
"81 299 OFFCURVE",
"99 267 OFFCURVE",
"167 235 CURVE",
"204 219 LINE",
"250 200 LINE SMOOTH",
"283 188 OFFCURVE",
"297 171 OFFCURVE",
"297 147 CURVE SMOOTH",
"297 117 OFFCURVE",
"275 86 OFFCURVE",
"209 86 CURVE SMOOTH",
"188 86 OFFCURVE",
"166 88 OFFCURVE",
"141 94 CURVE SMOOTH",
"117 99 OFFCURVE",
"96 107 OFFCURVE",
"78 118 CURVE SMOOTH",
"58 130 OFFCURVE",
"44 130 OFFCURVE",
"37 117 CURVE SMOOTH",
"10 73 LINE SMOOTH",
"2 59 OFFCURVE",
"5 46 OFFCURVE",
"20 35 CURVE SMOOTH"
);
}
);
width = 491;
}
);
unicode = 0073;
},
{
glyphname = t;
lastChange = "2016-09-03 11:06:02 +0000";
layers = (
{
anchors = (
{
name = mark0;
position = "{0, 0}";
},
{
name = mark1;
position = "{130, 0}";
},
{
name = mark2;
position = "{237, 654}";
}
);
layerId = UUID0;
paths = (
{
closed = 1;
nodes = (
"160 448 LINE",
"87 132 LINE SMOOTH",
"77 87 OFFCURVE",
"80 53 OFFCURVE",
"96 28 CURVE SMOOTH",
"112 4 OFFCURVE",
"135 -8 OFFCURVE",
"164 -8 CURVE SMOOTH",
"192 -8 OFFCURVE",
"220 -5 OFFCURVE",
"245 2 CURVE SMOOTH",
"271 9 OFFCURVE",
"291 17 OFFCURVE",
"304 25 CURVE SMOOTH",
"309 29 OFFCURVE",
"311 34 OFFCURVE",
"309 40 CURVE SMOOTH",
"296 75 LINE SMOOTH",
"294 81 OFFCURVE",
"290 82 OFFCURVE",
"282 78 CURVE SMOOTH",
"277 74 OFFCURVE",
"266 69 OFFCURVE",
"250 63 CURVE SMOOTH",
"234 58 OFFCURVE",
"219 55 OFFCURVE",
"204 55 CURVE SMOOTH",
"192 55 OFFCURVE",
"183 60 OFFCURVE",
"174 70 CURVE SMOOTH",
"167 81 OFFCURVE",
"167 103 OFFCURVE",
"174 137 CURVE SMOOTH",
"246 448 LINE",
"350 448 LINE SMOOTH",
"365 448 OFFCURVE",
"374 454 OFFCURVE",
"376 465 CURVE SMOOTH",
"383 496 LINE SMOOTH",
"385 507 OFFCURVE",
"379 513 OFFCURVE",
"365 513 CURVE SMOOTH",
"261 513 LINE",
"290 637 LINE SMOOTH",
"292 648 OFFCURVE",
"289 654 OFFCURVE",
"279 654 CURVE SMOOTH",
"262 654 LINE SMOOTH",
"258 654 OFFCURVE",
"251 648 OFFCURVE",
"243 637 CURVE SMOOTH",
"194 575 LINE",
"190 569 OFFCURVE",
"187 563 OFFCURVE",
"185 557 CURVE SMOOTH",
"175 513 LINE",
"117 513 LINE SMOOTH",
"103 513 OFFCURVE",
"94 507 OFFCURVE",
"91 496 CURVE SMOOTH",
"84 465 LINE SMOOTH",
"82 454 OFFCURVE",
"88 448 OFFCURVE",
"103 448 CURVE SMOOTH"
);
}
);
width = 370;
},
{
anchors = (
{
name = mark0;
position = "{0, 0}";
},
{
name = mark1;
position = "{170, 0}";
},
{
name = mark2;
position = "{243, 654}";
}
);
layerId = "60861F18-288B-4955-898F-0966625DD71B";
paths = (
{
closed = 1;
nodes = (
"120 415 LINE",
"63 171 LINE SMOOTH",
"50 112 OFFCURVE",
"52 66 OFFCURVE",
"71 33 CURVE SMOOTH",
"89 0 OFFCURVE",
"128 -16 OFFCURVE",
"188 -16 CURVE SMOOTH",
"208 -16 OFFCURVE",
"227 -15 OFFCURVE",
"248 -11 CURVE SMOOTH",
"269 -8 OFFCURVE",
"285 -4 OFFCURVE",
"297 0 CURVE SMOOTH",
"310 6 OFFCURVE",
"316 14 OFFCURVE",
"315 25 CURVE SMOOTH",
"307 81 LINE SMOOTH",
"306 93 OFFCURVE",
"299 97 OFFCURVE",
"288 92 CURVE SMOOTH",
"271 85 OFFCURVE",
"243 80 OFFCURVE",
"223 80 CURVE SMOOTH",
"190 80 OFFCURVE",
"188 116 OFFCURVE",
"201 173 CURVE SMOOTH",
"256 415 LINE",
"335 415 LINE SMOOTH",
"354 415 OFFCURVE",
"366 423 OFFCURVE",
"370 439 CURVE SMOOTH",
"381 488 LINE SMOOTH",
"385 504 OFFCURVE",
"377 513 OFFCURVE",
"358 513 CURVE SMOOTH",
"279 513 LINE",
"305 625 LINE SMOOTH",
"310 645 OFFCURVE",
"302 654 OFFCURVE",
"282 654 CURVE SMOOTH",
"248 654 LINE SMOOTH",
"238 654 OFFCURVE",
"229 648 OFFCURVE",
"219 636 CURVE SMOOTH",
"166 570 LINE SMOOTH",
"156 558 OFFCURVE",
"149 544 OFFCURVE",
"146 530 CURVE SMOOTH",
"142 513 LINE",
"109 513 LINE SMOOTH",
"90 513 OFFCURVE",
"79 504 OFFCURVE",
"75 488 CURVE SMOOTH",
"63 439 LINE SMOOTH",
"60 423 OFFCURVE",
"67 415 OFFCURVE",
"86 415 CURVE SMOOTH"
);
}
);
width = 390;
}
);
unicode = 0074;
},
